{
.appVersion = "85";
DisplayStrings = (
"abcdefghijklmn\012opqrstuvwxyz\012ABCDEFGHIJKLMN\012OPQRSTUVWXYZ\0120123456789\012*@£%?<>()¥©/approxequal/guilsinglright/daggerdbl °\012±{}»&"
);
copyright = "Copyright © 2018 by Christopher Kent.";
date = "2018-02-28 11:33:02 +0000";
designer = "Christopher Kent";
familyName = "Flat Bottom";
featurePrefixes = (
{
automatic = 1;
code = "languagesystem DFLT dflt;\012";
name = Languagesystems;
}
);
fontMaster = (
{
alignmentZones = (
"{721, 16}",
"{613, 16}",
"{445, 16}",
"{0, -15}",
"{-223, -15}",
"{-250, -15}"
);
ascender = 721;
capHeight = 613;
descender = -250;
horizontalStems = (
70
);
iconName = Regular;
id = "88C65AEA-4CF7-410E-9BC9-3A05E177EFEE";
userData = {
GSCornerRadius = 20;
GSOffsetHorizontal = -10;
GSOffsetVertical = 10;
};
verticalStems = (
70
);
xHeight = 445;
}
);
glyphs = (
{
glyphname = A;
lastChange = "2018-03-16 22:08:58 +0000";
layers = (
{
layerId = "88C65AEA-4CF7-410E-9BC9-3A05E177EFEE";
paths = (
{
closed = 1;
nodes = (
"351 596 OFFCURVE",
"550 20 OFFCURVE",
"537 10 CURVE",
"524 0 OFFCURVE",
"495 -3 OFFCURVE",
"478 7 CURVE",
"464 17 OFFCURVE",
"416 205 OFFCURVE",
"399 218 CURVE",
"383 231 OFFCURVE",
"194 235 OFFCURVE",
"169 217 CURVE",
"145 199 OFFCURVE",
"103 20 OFFCURVE",
"77 3 CURVE",
"65 -3 OFFCURVE",
"34 -1 OFFCURVE",
"22 9 CURVE",
"7 23 OFFCURVE",
"223 600 OFFCURVE",
"242 612 CURVE",
"261 625 OFFCURVE",
"315 629 OFFCURVE",
"333 612 CURVE"
);
},
{
closed = 1;
nodes = (
"269 550 OFFCURVE",
"190 317 OFFCURVE",
"201 301 CURVE",
"213 289 OFFCURVE",
"351 290 OFFCURVE",
"365 300 CURVE",
"378 313 OFFCURVE",
"305 550 OFFCURVE",
"288 551 CURVE"
);
}
);
width = 558;
}
);
unicode = 0041;
},
{
glyphname = AE;
lastChange = "2018-03-14 09:42:29 +0000";
layers = (
{
layerId = "88C65AEA-4CF7-410E-9BC9-3A05E177EFEE";
paths = (
{
closed = 1;
nodes = (
"-1 37 OFFCURVE",
"236 587 OFFCURVE",
"255 599 CURVE",
"276 613 OFFCURVE",
"535 613 OFFCURVE",
"546 611 CURVE SMOOTH",
"587 611 OFFCURVE",
"660 612 OFFCURVE",
"672 599 CURVE SMOOTH",
"684 586 OFFCURVE",
"683 558 OFFCURVE",
"673 547 CURVE",
"663 537 OFFCURVE",
"572 542 OFFCURVE",
"547 541 CURVE",
"512 541 OFFCURVE",
"437 536 OFFCURVE",
"426 523 CURVE",
"421 469 OFFCURVE",
"424 459 OFFCURVE",
"424 445 CURVE SMOOTH",
"423 407 OFFCURVE",
"417 356 OFFCURVE",
"427 341 CURVE SMOOTH",
"437 326 OFFCURVE",
"622 343 OFFCURVE",
"630 330 CURVE SMOOTH",
"638 317 OFFCURVE",
"640 286 OFFCURVE",
"630 273 CURVE SMOOTH",
"620 260 OFFCURVE",
"435 275 OFFCURVE",
"427 260 CURVE SMOOTH",
"419 245 OFFCURVE",
"430 76 OFFCURVE",
"432 74 CURVE",
"443 62 OFFCURVE",
"493 66 OFFCURVE",
"547 68 CURVE SMOOTH",
"601 70 OFFCURVE",
"669 80 OFFCURVE",
"683 68 CURVE SMOOTH",
"697 56 OFFCURVE",
"689 17 OFFCURVE",
"679 8 CURVE",
"671 0 OFFCURVE",
"558 -2 OFFCURVE",
"392 0 CURVE",
"375 -2 OFFCURVE",
"374 8 OFFCURVE",
"365 16 CURVE SMOOTH",
"339 40 OFFCURVE",
"358 208 OFFCURVE",
"341 221 CURVE SMOOTH",
"325 234 OFFCURVE",
"209 240 OFFCURVE",
"184 222 CURVE SMOOTH",
"160 204 OFFCURVE",
"122 23 OFFCURVE",
"96 14 CURVE SMOOTH",
"69 5 OFFCURVE",
"45 0 OFFCURVE",
"21 19 CURVE SMOOTH"
);
},
{
closed = 1;
nodes = (
"222 293 OFFCURVE",
"333 294 OFFCURVE",
"346 306 CURVE",
"359 319 OFFCURVE",
"356 536 OFFCURVE",
"329 535 CURVE SMOOTH",
"302 534 OFFCURVE",
"200 324 OFFCURVE",
"211 308 CURVE SMOOTH"
);
}
);
width = 721;
}
);
unicode = 00C6;
},
{
glyphname = B;
lastChange = "2018-03-16 21:16:38 +0000";
layers = (
{
layerId = "88C65AEA-4CF7-410E-9BC9-3A05E177EFEE";
paths = (
{
closed = 1;
nodes = (
"453 607 OFFCURVE",
"473 531 OFFCURVE",
"473 449 CURVE",
"473 367 OFFCURVE",
"410 328 OFFCURVE",
"409 314 CURVE",
"408 301 OFFCURVE",
"500 265 OFFCURVE",
"498 171 CURVE",
"496 77 OFFCURVE",
"413 2 OFFCURVE",
"317 2 CURVE",
"317 2 OFFCURVE",
"84 -6 OFFCURVE",
"57 14 CURVE",
"30 34 OFFCURVE",
"36 573 OFFCURVE",
"64 596 CURVE",
"92 619 OFFCURVE",
"253 613 OFFCURVE",
"322 611 CURVE SMOOTH"
);
},
{
closed = 1;
nodes = (
"370 76 OFFCURVE",
"422 114 OFFCURVE",
"423 170 CURVE",
"423 225 OFFCURVE",
"376 270 OFFCURVE",
"300 270 CURVE",
"224 270 OFFCURVE",
"160 277 OFFCURVE",
"129 261 CURVE",
"98 245 OFFCURVE",
"109 98 OFFCURVE",
"128 81 CURVE",
"147 64 OFFCURVE",
"315 72 OFFCURVE",
"315 72 CURVE"
);
},
{
closed = 1;
nodes = (
"288 547 OFFCURVE",
"147 549 OFFCURVE",
"126 525 CURVE",
"105 502 OFFCURVE",
"112 376 OFFCURVE",
"126 357 CURVE",
"140 338 OFFCURVE",
"248 342 OFFCURVE",
"299 343 CURVE",
"350 344 OFFCURVE",
"398 371 OFFCURVE",
"401 434 CURVE",
"406 535 OFFCURVE",
"352 534 OFFCURVE",
"320 540 CURVE"
);
}
);
width = 528;
}
);
unicode = 0042;
},
{
glyphname = C;
lastChange = "2018-03-16 21:14:44 +0000";
layers = (
{
layerId = "88C65AEA-4CF7-410E-9BC9-3A05E177EFEE";
paths = (
{
closed = 1;
nodes = (
"387 612 OFFCURVE",
"452 593 OFFCURVE",
"514 529 CURVE",
"543 499 OFFCURVE",
"558 476 OFFCURVE",
"546 461 CURVE",
"534 446 OFFCURVE",
"519 436 OFFCURVE",
"499 444 CURVE",
"479 452 OFFCURVE",
"471 464 OFFCURVE",
"457 482 CURVE",
"416 536 OFFCURVE",
"353 543 OFFCURVE",
"313 543 CURVE",
"274 543 OFFCURVE",
"189 529 OFFCURVE",
"155 477 CURVE",
"121 425 OFFCURVE",
"102 344 OFFCURVE",
"105 269 CURVE",
"108 194 OFFCURVE",
"132 106 OFFCURVE",
"151 89 CURVE",
"170 72 OFFCURVE",
"268 70 OFFCURVE",
"315 70 CURVE",
"362 70 OFFCURVE",
"435 68 OFFCURVE",
"458 89 CURVE",
"479 111 OFFCURVE",
"481 134 OFFCURVE",
"499 147 CURVE",
"517 160 OFFCURVE",
"553 146 OFFCURVE",
"561 134 CURVE",
"569 122 OFFCURVE",
"552 70 OFFCURVE",
"517 33 CURVE",
"475 -1 OFFCURVE",
"396 0 OFFCURVE",
"314 0 CURVE",
"231 -1 OFFCURVE",
"142 0 OFFCURVE",
"94 32 CURVE",
"48 69 OFFCURVE",
"30 174 OFFCURVE",
"30 263 CURVE SMOOTH",
"30 301 OFFCURVE",
"24 443 OFFCURVE",
"91 520 CURVE",
"163 587 OFFCURVE",
"245 612 OFFCURVE",
"316 612 CURVE"
);
}
);
width = 593;
}
);
unicode = 0043;
},
{
glyphname = D;
lastChange = "2018-03-16 21:19:02 +0000";
layers = (
{
layerId = "88C65AEA-4CF7-410E-9BC9-3A05E177EFEE";
paths = (
{
closed = 1;
nodes = (
"33 36 OFFCURVE",
"40 582 OFFCURVE",
"52 597 CURVE",
"64 612 OFFCURVE",
"184 612 OFFCURVE",
"240 612 CURVE",
"322 612 OFFCURVE",
"414 613 OFFCURVE",
"456 579 CURVE",
"495 540 OFFCURVE",
"527 455 OFFCURVE",
"527 310 CURVE",
"527 183 OFFCURVE",
"525 100 OFFCURVE",
"456 30 CURVE",
"413 -5 OFFCURVE",
"119 -14 OFFCURVE",
"51 17 CURVE"
);
},
{
closed = 1;
nodes = (
"139 61 OFFCURVE",
"374 58 OFFCURVE",
"403 84 CURVE",
"426 105 OFFCURVE",
"460 184 OFFCURVE",
"458 265 CURVE",
"458 329 OFFCURVE",
"458 337 OFFCURVE",
"458 343 CURVE",
"460 424 OFFCURVE",
"426 502 OFFCURVE",
"403 523 CURVE",
"380 544 OFFCURVE",
"288 542 OFFCURVE",
"241 542 CURVE",
"206 542 OFFCURVE",
"130 542 OFFCURVE",
"119 529 CURVE",
"108 515 OFFCURVE",
"109 93 OFFCURVE",
"120 82 CURVE"
);
}
);
width = 562;
}
);
unicode = 0044;
},
{
glyphname = E;
lastChange = "2018-03-16 21:23:15 +0000";
layers = (
{
layerId = "88C65AEA-4CF7-410E-9BC9-3A05E177EFEE";
paths = (
{
closed = 1;
nodes = (
"381 618 OFFCURVE",
"396 602 CURVE",
"408 589 OFFCURVE",
"411 564 OFFCURVE",
"397 547 CURVE",
"377 527 OFFCURVE",
"150 558 OFFCURVE",
"120 529 CURVE",
"114 513 OFFCURVE",
"106 352 OFFCURVE",
"113 341 CURVE",
"123 326 OFFCURVE",
"344 343 OFFCURVE",
"352 330 CURVE",
"360 317 OFFCURVE",
"362 286 OFFCURVE",
"352 273 CURVE",
"342 260 OFFCURVE",
"121 275 OFFCURVE",
"113 260 CURVE",
"105 245 OFFCURVE",
"114 97 OFFCURVE",
"121 80 CURVE",
"147 60 OFFCURVE",
"385 87 OFFCURVE",
"412 64 CURVE",
"426 52 OFFCURVE",
"418 20 OFFCURVE",
"408 11 CURVE",
"394 -3 OFFCURVE",
"94 -5 OFFCURVE",
"51 11 CURVE",
"33 40 OFFCURVE",
"38 587 OFFCURVE",
"50 602 CURVE",
"64 613 OFFCURVE"
);
}
);
width = 450;
}
);
unicode = 0045;
},
{
glyphname = Eacute;
lastChange = "2018-03-13 17:54:13 +0000";
layers = (
{
layerId = "88C65AEA-4CF7-410E-9BC9-3A05E177EFEE";
paths = (
{
closed = 1;
nodes = (
"240 609 LINE",
"281 609 OFFCURVE",
"384 612 OFFCURVE",
"396 599 CURVE",
"408 586 OFFCURVE",
"407 558 OFFCURVE",
"397 547 CURVE",
"387 537 OFFCURVE",
"266 542 OFFCURVE",
"241 541 CURVE",
"206 541 OFFCURVE",
"146 542 OFFCURVE",
"135 529 CURVE",
"130 475 OFFCURVE",
"129 461 OFFCURVE",
"129 447 CURVE",
"128 409 OFFCURVE",
"118 356 OFFCURVE",
"128 341 CURVE",
"138 326 OFFCURVE",
"344 343 OFFCURVE",
"352 330 CURVE",
"360 317 OFFCURVE",
"362 286 OFFCURVE",
"352 273 CURVE",
"342 260 OFFCURVE",
"136 275 OFFCURVE",
"128 260 CURVE",
"120 245 OFFCURVE",
"134 84 OFFCURVE",
"136 82 CURVE",
"147 70 OFFCURVE",
"187 66 OFFCURVE",
"241 68 CURVE",
"295 70 OFFCURVE",
"398 80 OFFCURVE",
"412 68 CURVE",
"426 56 OFFCURVE",
"418 17 OFFCURVE",
"408 8 CURVE",
"398 -2 OFFCURVE",
"281 0 OFFCURVE",
"240 0 CURVE",
"240 0 OFFCURVE",
"69 -2 OFFCURVE",
"51 17 CURVE",
"33 36 OFFCURVE",
"40 582 OFFCURVE",
"52 597 CURVE",
"58 602 OFFCURVE",
"72 604 OFFCURVE",
"80 605 CURVE"
);
},
{
closed = 1;
nodes = (
"274 806 OFFCURVE",
"333 802 OFFCURVE",
"341 792 CURVE",
"349 782 OFFCURVE",
"203 653 OFFCURVE",
"188 644 CURVE",
"172 635 OFFCURVE",
"125 634 OFFCURVE",
"108 642 CURVE",
"92 650 OFFCURVE",
"255 780 OFFCURVE",
"264 793 CURVE"
);
}
);
width = 460;
}
);
unicode = 00C9;
},
{
glyphname = F;
lastChange = "2018-03-16 21:24:27 +0000";
layers = (
{
layerId = "88C65AEA-4CF7-410E-9BC9-3A05E177EFEE";
paths = (
{
closed = 1;
nodes = (
"392 616 OFFCURVE",
"405 603 CURVE",
"417 589 OFFCURVE",
"416 557 OFFCURVE",
"406 547 CURVE",
"388 527 OFFCURVE",
"137 555 OFFCURVE",
"120 534 CURVE",
"113 497 OFFCURVE",
"109 359 OFFCURVE",
"118 345 CURVE",
"128 330 OFFCURVE",
"353 346 OFFCURVE",
"361 334 CURVE",
"369 321 OFFCURVE",
"371 286 OFFCURVE",
"361 273 CURVE",
"351 259 OFFCURVE",
"123 275 OFFCURVE",
"114 260 CURVE",
"110 238 OFFCURVE",
"117 20 OFFCURVE",
"105 9 CURVE",
"91 -1 OFFCURVE",
"68 -5 OFFCURVE",
"50 10 CURVE",
"32 26 OFFCURVE",
"41 585 OFFCURVE",
"53 600 CURVE",
"69 616 OFFCURVE"
);
}
);
width = 444;
}
);
unicode = 0046;
},
{
glyphname = G;
lastChange = "2018-03-16 21:27:25 +0000";
layers = (
{
layerId = "88C65AEA-4CF7-410E-9BC9-3A05E177EFEE";
paths = (
{
closed = 1;
nodes = (
"394 612 OFFCURVE",
"472 592 OFFCURVE",
"534 528 CURVE",
"569 493 OFFCURVE",
"595 425 OFFCURVE",
"585 412 CURVE",
"574 399 OFFCURVE",
"549 400 OFFCURVE",
"529 410 CURVE",
"509 420 OFFCURVE",
"495 457 OFFCURVE",
"477 481 CURVE",
"436 535 OFFCURVE",
"360 543 OFFCURVE",
"320 543 CURVE",
"281 543 OFFCURVE",
"191 537 OFFCURVE",
"157 485 CURVE",
"123 433 OFFCURVE",
"103 344 OFFCURVE",
"106 269 CURVE",
"109 194 OFFCURVE",
"134 108 OFFCURVE",
"153 91 CURVE",
"181 66 OFFCURVE",
"445 56 OFFCURVE",
"478 86 CURVE",
"510 119 OFFCURVE",
"536 221 OFFCURVE",
"526 236 CURVE",
"515 251 OFFCURVE",
"366 233 OFFCURVE",
"354 244 CURVE",
"342 255 OFFCURVE",
"334 291 OFFCURVE",
"347 304 CURVE",
"360 317 OFFCURVE",
"584 318 OFFCURVE",
"596 304 CURVE",
"609 290 OFFCURVE",
"607 274 OFFCURVE",
"607 260 CURVE",
"608 154 OFFCURVE",
"576 70 OFFCURVE",
"537 30 CURVE",
"472 -5 OFFCURVE",
"168 -13 OFFCURVE",
"97 35 CURVE",
"51 72 OFFCURVE",
"30 218 OFFCURVE",
"30 277 CURVE SMOOTH",
"30 316 OFFCURVE",
"26 466 OFFCURVE",
"98 533 CURVE",
"170 600 OFFCURVE",
"252 612 OFFCURVE",
"323 612 CURVE"
);
}
);
width = 637;
}
);
unicode = 0047;
},
{
glyphname = H;
lastChange = "2018-03-16 21:29:41 +0000";
layers = (
{
layerId = "88C65AEA-4CF7-410E-9BC9-3A05E177EFEE";
paths = (
{
closed = 1;
nodes = (
"125 597 OFFCURVE",
"102 359 OFFCURVE",
"120 347 CURVE",
"140 332 OFFCURVE",
"466 333 OFFCURVE",
"479 349 CURVE",
"491 364 OFFCURVE",
"474 598 OFFCURVE",
"489 611 CURVE",
"504 625 OFFCURVE",
"529 627 OFFCURVE",
"545 611 CURVE",
"561 596 OFFCURVE",
"555 28 OFFCURVE",
"546 14 CURVE",
"537 0 OFFCURVE",
"494 -2 OFFCURVE",
"482 5 CURVE",
"470 12 OFFCURVE",
"495 240 OFFCURVE",
"478 255 CURVE",
"460 268 OFFCURVE",
"133 271 OFFCURVE",
"115 253 CURVE",
"100 232 OFFCURVE",
"122 20 OFFCURVE",
"106 6 CURVE",
"90 -8 OFFCURVE",
"71 1 OFFCURVE",
"52 12 CURVE",
"33 23 OFFCURVE",
"38 597 OFFCURVE",
"53 611 CURVE",
"68 626 OFFCURVE",
"103 626 OFFCURVE",
"114 611 CURVE"
);
}
);
width = 595;
}
);
unicode = 0048;
},
{
glyphname = I;
lastChange = "2018-03-03 12:22:22 +0000";
layers = (
{
layerId = "88C65AEA-4CF7-410E-9BC9-3A05E177EFEE";
paths = (
{
closed = 1;
nodes = (
"37 15 OFFCURVE",
"38 60 OFFCURVE",
"47 70 CURVE",
"57 80 OFFCURVE",
"90 64 OFFCURVE",
"104 74 CURVE",
"119 84 OFFCURVE",
"117 525 OFFCURVE",
"106 540 CURVE",
"96 554 OFFCURVE",
"55 536 OFFCURVE",
"48 544 CURVE",
"40 552 OFFCURVE",
"36 595 OFFCURVE",
"47 605 CURVE",
"59 614 OFFCURVE",
"238 613 OFFCURVE",
"248 602 CURVE",
"259 590 OFFCURVE",
"258 553 OFFCURVE",
"247 543 CURVE",
"237 532 OFFCURVE",
"201 550 OFFCURVE",
"189 540 CURVE",
"178 529 OFFCURVE",
"181 84 OFFCURVE",
"194 73 CURVE",
"208 62 OFFCURVE",
"236 82 OFFCURVE",
"248 67 CURVE",
"261 52 OFFCURVE",
"262 22 OFFCURVE",
"250 9 CURVE",
"239 -4 OFFCURVE",
"56 1 OFFCURVE",
"46 8 CURVE"
);
}
);
width = 298;
}
);
unicode = 0049;
},
{
glyphname = J;
lastChange = "2018-03-03 17:11:50 +0000";
layers = (
{
layerId = "88C65AEA-4CF7-410E-9BC9-3A05E177EFEE";
paths = (
{
closed = 1;
nodes = (
"553 594 OFFCURVE",
"548 228 OFFCURVE",
"548 228 CURVE",
"547 228 LINE",
"540 163 OFFCURVE",
"521 80 OFFCURVE",
"474 31 CURVE",
"432 -3 OFFCURVE",
"340 1 OFFCURVE",
"258 1 CURVE",
"175 0 OFFCURVE",
"133 -2 OFFCURVE",
"85 30 CURVE",
"64 50 OFFCURVE",
"54 85 OFFCURVE",
"46 113 CURVE",
"36 150 OFFCURVE",
"11 211 OFFCURVE",
"23 228 CURVE",
"35 245 OFFCURVE",
"93 240 OFFCURVE",
"104 228 CURVE",
"116 216 OFFCURVE",
"116 159 OFFCURVE",
"127 126 CURVE",
"132 112 OFFCURVE",
"137 97 OFFCURVE",
"147 86 CURVE",
"166 69 OFFCURVE",
"212 69 OFFCURVE",
"259 69 CURVE",
"306 69 OFFCURVE",
"392 66 OFFCURVE",
"415 87 CURVE",
"448 120 OFFCURVE",
"466 175 OFFCURVE",
"471 228 CURVE",
"476 281 OFFCURVE",
"458 595 OFFCURVE",
"472 611 CURVE",
"486 627 OFFCURVE",
"528 628 OFFCURVE",
"541 611 CURVE"
);
}
);
width = 589;
}
);
unicode = 004A;
},
{
glyphname = K;
lastChange = "2018-03-16 21:37:49 +0000";
layers = (
{
layerId = "88C65AEA-4CF7-410E-9BC9-3A05E177EFEE";
paths = (
{
closed = 1;
nodes = (
"130 600 OFFCURVE",
"102 312 OFFCURVE",
"117 303 CURVE",
"132 295 OFFCURVE",
"422 624 OFFCURVE",
"448 612 CURVE",
"474 611 OFFCURVE",
"486 592 OFFCURVE",
"485 567 CURVE",
"483 543 OFFCURVE",
"296 392 OFFCURVE",
"294 365 CURVE",
"291 338 OFFCURVE",
"538 33 OFFCURVE",
"536 14 CURVE",
"534 -4 OFFCURVE",
"484 1 OFFCURVE",
"464 2 CURVE",
"443 4 OFFCURVE",
"254 300 OFFCURVE",
"234 300 CURVE",
"213 300 OFFCURVE",
"130 220 OFFCURVE",
"119 190 CURVE",
"108 160 OFFCURVE",
"129 29 OFFCURVE",
"117 13 CURVE",
"105 -3 OFFCURVE",
"75 -2 OFFCURVE",
"54 14 CURVE",
"34 30 OFFCURVE",
"38 598 OFFCURVE",
"54 612 CURVE",
"71 626 OFFCURVE",
"96 624 OFFCURVE",
"113 612 CURVE"
);
}
);
width = 566;
}
);
unicode = 004B;
},
{
glyphname = L;
lastChange = "2018-03-16 21:34:58 +0000";
layers = (
{
layerId = "88C65AEA-4CF7-410E-9BC9-3A05E177EFEE";
paths = (
{
closed = 1;
nodes = (
"32 24 OFFCURVE",
"41 589 OFFCURVE",
"53 603 CURVE",
"65 617 OFFCURVE",
"104 615 OFFCURVE",
"111 604 CURVE",
"118 593 OFFCURVE",
"103 88 OFFCURVE",
"116 78 CURVE",
"129 68 OFFCURVE",
"481 78 OFFCURVE",
"492 68 CURVE",
"503 58 OFFCURVE",
"513 28 OFFCURVE",
"498 11 CURVE",
"483 -6 OFFCURVE",
"74 0 OFFCURVE",
"53 12 CURVE"
);
}
);
width = 536;
}
);
unicode = 004C;
},
{
glyphname = Lcaron;
lastChange = "2018-03-16 09:31:59 +0000";
layers = (
{
components = (
{
name = L;
transform = "{1, 0, 0, 1, -5, 0}";
}
);
layerId = "88C65AEA-4CF7-410E-9BC9-3A05E177EFEE";
paths = (
{
closed = 1;
nodes = (
"170 461 LINE",
"240 461 LINE",
"240 607 LINE",
"170 607 LINE"
);
}
);
width = 554;
}
);
unicode = 013D;
},
{
glyphname = M;
lastChange = "2018-03-16 09:57:49 +0000";
layers = (
{
layerId = "88C65AEA-4CF7-410E-9BC9-3A05E177EFEE";
paths = (
{
closed = 1;
nodes = (
"30 595 OFFCURVE",
"34 21 OFFCURVE",
"45 11 CURVE",
"56 1 OFFCURVE",
"96 -4 OFFCURVE",
"112 6 CURVE",
"128 16 OFFCURVE",
"106 507 OFFCURVE",
"119 518 CURVE",
"132 529 OFFCURVE",
"258 322 OFFCURVE",
"277 312 CURVE",
"296 301 OFFCURVE",
"375 299 OFFCURVE",
"395 312 CURVE",
"415 324 OFFCURVE",
"537 520 OFFCURVE",
"552 507 CURVE",
"567 494 OFFCURVE",
"539 21 OFFCURVE",
"550 9 CURVE",
"561 -3 OFFCURVE",
"616 -2 OFFCURVE",
"622 7 CURVE",
"628 16 OFFCURVE",
"641 595 OFFCURVE",
"622 605 CURVE",
"603 615 OFFCURVE",
"530 614 OFFCURVE",
"516 604 CURVE",
"502 594 OFFCURVE",
"361 374 OFFCURVE",
"333 375 CURVE",
"305 375 OFFCURVE",
"178 597 OFFCURVE",
"163 606 CURVE",
"148 615 OFFCURVE",
"60 617 OFFCURVE",
"45 606 CURVE"
);
}
);
width = 667;
}
);
unicode = 004D;
},
{
glyphname = N;
lastChange = "2018-03-16 09:55:26 +0000";
layers = (
{
layerId = "88C65AEA-4CF7-410E-9BC9-3A05E177EFEE";
paths = (
{
closed = 1;
nodes = (
"135 595 OFFCURVE",
"480 108 OFFCURVE",
"496 129 CURVE",
"512 150 OFFCURVE",
"491 591 OFFCURVE",
"503 602 CURVE",
"515 613 OFFCURVE",
"556 613 OFFCURVE",
"566 604 CURVE",
"576 595 OFFCURVE",
"574 23 OFFCURVE",
"562 12 CURVE",
"550 1 OFFCURVE",
"507 -2 OFFCURVE",
"485 7 CURVE",
"463 16 OFFCURVE",
"138 484 OFFCURVE",
"117 472 CURVE",
"96 461 OFFCURVE",
"116 16 OFFCURVE",
"106 7 CURVE",
"96 -2 OFFCURVE",
"62 -3 OFFCURVE",
"46 7 CURVE",
"30 17 OFFCURVE",
"33 590 OFFCURVE",
"46 601 CURVE",
"59 612 OFFCURVE",
"103 615 OFFCURVE",
"119 605 CURVE"
);
}
);
width = 607;
}
);
unicode = 004E;
},
{
glyphname = Eng;
lastChange = "2018-03-16 21:12:13 +0000";
layers = (
{
layerId = "88C65AEA-4CF7-410E-9BC9-3A05E177EFEE";
paths = (
{
closed = 1;
nodes = (
"35 17 OFFCURVE",
"38 590 OFFCURVE",
"51 601 CURVE SMOOTH",
"64 612 OFFCURVE",
"108 615 OFFCURVE",
"124 605 CURVE SMOOTH",
"140 595 OFFCURVE",
"485 108 OFFCURVE",
"501 129 CURVE SMOOTH",
"517 150 OFFCURVE",
"496 591 OFFCURVE",
"508 602 CURVE SMOOTH",
"520 613 OFFCURVE",
"561 613 OFFCURVE",
"571 604 CURVE SMOOTH",
"570 605 OFFCURVE",
"574 137 OFFCURVE",
"574 13 CURVE SMOOTH",
"574 -94 OFFCURVE",
"574 -155 OFFCURVE",
"519 -177 CURVE SMOOTH",
"442 -208 OFFCURVE",
"354 -196 OFFCURVE",
"320 -186 CURVE",
"305 -167 OFFCURVE",
"301 -164 OFFCURVE",
"320 -138 CURVE",
"349 -123 OFFCURVE",
"370 -131 OFFCURVE",
"419 -131 CURVE SMOOTH",
"451 -131 OFFCURVE",
"488 -119 OFFCURVE",
"496 -98 CURVE SMOOTH",
"504 -76 OFFCURVE",
"502 -6 OFFCURVE",
"499 16 CURVE",
"423 109 OFFCURVE",
"140 483 OFFCURVE",
"122 472 CURVE",
"101 461 OFFCURVE",
"121 16 OFFCURVE",
"111 7 CURVE SMOOTH",
"101 -2 OFFCURVE",
"67 -3 OFFCURVE",
"51 7 CURVE SMOOTH"
);
}
);
width = 614;
}
);
unicode = 014A;
},
{
glyphname = O;
lastChange = "2018-03-07 17:20:07 +0000";
layers = (
{
layerId = "88C65AEA-4CF7-410E-9BC9-3A05E177EFEE";
paths = (
{
closed = 1;
nodes = (
"275 67 OFFCURVE",
"180 67 OFFCURVE",
"161 84 CURVE SMOOTH",
"142 101 OFFCURVE",
"118 192 OFFCURVE",
"115 267 CURVE SMOOTH",
"111 342 OFFCURVE",
"129 426 OFFCURVE",
"163 478 CURVE SMOOTH",
"197 530 OFFCURVE",
"281 546 OFFCURVE",
"321 543 CURVE",
"361 543 OFFCURVE",
"437 534 OFFCURVE",
"478 480 CURVE SMOOTH",
"519 426 OFFCURVE",
"533 346 OFFCURVE",
"536 265 CURVE SMOOTH",
"538 184 OFFCURVE",
"501 106 OFFCURVE",
"478 85 CURVE SMOOTH",
"455 64 OFFCURVE",
"369 67 OFFCURVE",
"322 67 CURVE SMOOTH"
);
},
{
closed = 1;
nodes = (
"403 -1 OFFCURVE",
"495 -5 OFFCURVE",
"537 29 CURVE",
"577 68 OFFCURVE",
"613 169 OFFCURVE",
"613 275 CURVE",
"612 381 OFFCURVE",
"597 463 OFFCURVE",
"535 527 CURVE SMOOTH",
"473 591 OFFCURVE",
"394 612 OFFCURVE",
"323 612 CURVE SMOOTH",
"253 612 OFFCURVE",
"171 599 OFFCURVE",
"99 532 CURVE SMOOTH",
"27 465 OFFCURVE",
"30 271 OFFCURVE",
"30 271 CURVE SMOOTH",
"30 271 OFFCURVE",
"53 65 OFFCURVE",
"99 28 CURVE",
"147 -4 OFFCURVE",
"238 -2 OFFCURVE",
"321 -1 CURVE SMOOTH"
);
}
);
width = 643;
}
);
unicode = 004F;
},
{
glyphname = OE;
lastChange = "2018-03-14 16:10:47 +0000";
layers = (
{
layerId = "88C65AEA-4CF7-410E-9BC9-3A05E177EFEE";
paths = (
{
closed = 1;
nodes = (
"30 271 OFFCURVE",
"53 65 OFFCURVE",
"99 28 CURVE",
"147 -4 OFFCURVE",
"238 -2 OFFCURVE",
"321 -1 CURVE SMOOTH",
"388 -1 OFFCURVE",
"489 0 OFFCURVE",
"559 0 CURVE SMOOTH",
"585 0 OFFCURVE",
"726 -6 OFFCURVE",
"726 -6 CURVE",
"767 -6 OFFCURVE",
"884 -8 OFFCURVE",
"894 2 CURVE",
"904 11 OFFCURVE",
"912 50 OFFCURVE",
"898 62 CURVE SMOOTH",
"884 74 OFFCURVE",
"781 64 OFFCURVE",
"727 62 CURVE SMOOTH",
"673 60 OFFCURVE",
"633 64 OFFCURVE",
"622 76 CURVE",
"620 78 OFFCURVE",
"606 239 OFFCURVE",
"614 254 CURVE SMOOTH",
"622 269 OFFCURVE",
"828 254 OFFCURVE",
"838 267 CURVE SMOOTH",
"848 280 OFFCURVE",
"846 311 OFFCURVE",
"838 324 CURVE SMOOTH",
"830 337 OFFCURVE",
"624 320 OFFCURVE",
"614 335 CURVE SMOOTH",
"604 350 OFFCURVE",
"615 403 OFFCURVE",
"615 441 CURVE SMOOTH",
"615 455 OFFCURVE",
"616 469 OFFCURVE",
"621 523 CURVE",
"632 536 OFFCURVE",
"692 535 OFFCURVE",
"727 535 CURVE",
"752 536 OFFCURVE",
"873 531 OFFCURVE",
"883 541 CURVE",
"893 552 OFFCURVE",
"894 580 OFFCURVE",
"882 593 CURVE SMOOTH",
"870 606 OFFCURVE",
"767 604 OFFCURVE",
"726 603 CURVE SMOOTH",
"580 599 LINE",
"572 598 OFFCURVE",
"558 596 OFFCURVE",
"552 591 CURVE",
"549 587 OFFCURVE",
"538 585 OFFCURVE",
"536 537 CURVE",
"502 577 OFFCURVE",
"398 612 OFFCURVE",
"323 612 CURVE SMOOTH",
"253 612 OFFCURVE",
"171 599 OFFCURVE",
"99 532 CURVE SMOOTH",
"27 465 OFFCURVE",
"30 271 OFFCURVE",
"30 271 CURVE SMOOTH"
);
},
{
closed = 1;
nodes = (
"111 342 OFFCURVE",
"129 426 OFFCURVE",
"163 478 CURVE SMOOTH",
"197 530 OFFCURVE",
"281 546 OFFCURVE",
"321 543 CURVE",
"361 543 OFFCURVE",
"437 534 OFFCURVE",
"478 480 CURVE SMOOTH",
"519 426 OFFCURVE",
"533 346 OFFCURVE",
"536 265 CURVE SMOOTH",
"538 184 OFFCURVE",
"501 106 OFFCURVE",
"478 85 CURVE SMOOTH",
"455 64 OFFCURVE",
"369 67 OFFCURVE",
"322 67 CURVE SMOOTH",
"275 67 OFFCURVE",
"180 67 OFFCURVE",
"161 84 CURVE SMOOTH",
"142 101 OFFCURVE",
"118 192 OFFCURVE",
"115 267 CURVE SMOOTH"
);
}
);
width = 936;
}
);
unicode = 0152;
},
{
glyphname = P;
lastChange = "2018-03-16 21:33:53 +0000";
layers = (
{
layerId = "88C65AEA-4CF7-410E-9BC9-3A05E177EFEE";
paths = (
{
closed = 1;
nodes = (
"327 612 OFFCURVE",
"407 599 OFFCURVE",
"444 568 CURVE",
"481 537 OFFCURVE",
"517 477 OFFCURVE",
"515 399 CURVE",
"513 321 OFFCURVE",
"489 291 OFFCURVE",
"449 251 CURVE",
"407 217 OFFCURVE",
"335 222 OFFCURVE",
"253 222 CURVE",
"216 222 OFFCURVE",
"129 227 OFFCURVE",
"115 210 CURVE",
"101 193 OFFCURVE",
"121 22 OFFCURVE",
"104 8 CURVE",
"87 -6 OFFCURVE",
"55 0 OFFCURVE",
"45 9 CURVE",
"35 19 OFFCURVE",
"40 582 OFFCURVE",
"54 596 CURVE",
"68 611 OFFCURVE",
"245 612 OFFCURVE",
"245 612 CURVE"
);
},
{
closed = 1;
nodes = (
"253 540 OFFCURVE",
"135 544 OFFCURVE",
"122 530 CURVE",
"109 516 OFFCURVE",
"110 313 OFFCURVE",
"121 302 CURVE",
"132 290 OFFCURVE",
"231 293 OFFCURVE",
"289 294 CURVE",
"347 295 OFFCURVE",
"445 273 OFFCURVE",
"442 397 CURVE",
"439 540 OFFCURVE",
"351 538 OFFCURVE",
"302 539 CURVE"
);
}
);
width = 545;
}
);
unicode = 0050;
},
{
glyphname = Thorn;
lastChange = "2018-03-17 11:01:52 +0000";
layers = (
{
layerId = "88C65AEA-4CF7-410E-9BC9-3A05E177EFEE";
paths = (
{
closed = 1;
nodes = (
"246 541 OFFCURVE",
"138 545 OFFCURVE",
"125 531 CURVE",
"112 517 OFFCURVE",
"116 314 OFFCURVE",
"127 303 CURVE",
"138 291 OFFCURVE",
"224 294 OFFCURVE",
"282 295 CURVE",
"340 296 OFFCURVE",
"436 274 OFFCURVE",
"433 398 CURVE",
"430 541 OFFCURVE",
"344 539 OFFCURVE",
"295 540 CURVE"
);
},
{
closed = 1;
nodes = (
"36 17 OFFCURVE",
"46 275 OFFCURVE",
"46 378 CURVE",
"47 492 OFFCURVE",
"44 709 OFFCURVE",
"53 721 CURVE",
"65 730 OFFCURVE",
"102 735 OFFCURVE",
"118 721 CURVE",
"132 709 OFFCURVE",
"116 629 OFFCURVE",
"124 617 CURVE",
"133 608 OFFCURVE",
"245 612 OFFCURVE",
"245 612 CURVE",
"327 612 OFFCURVE",
"407 599 OFFCURVE",
"444 568 CURVE SMOOTH",
"481 537 OFFCURVE",
"517 477 OFFCURVE",
"515 399 CURVE SMOOTH",
"513 321 OFFCURVE",
"489 291 OFFCURVE",
"449 251 CURVE",
"407 217 OFFCURVE",
"335 225 OFFCURVE",
"253 225 CURVE SMOOTH",
"216 225 OFFCURVE",
"140 230 OFFCURVE",
"126 213 CURVE SMOOTH",
"112 196 OFFCURVE",
"133 22 OFFCURVE",
"116 8 CURVE SMOOTH",
"99 -6 OFFCURVE",
"55 -1 OFFCURVE",
"45 8 CURVE"
);
}
);
width = 600;
}
);
unicode = 00DE;
},
{
glyphname = Q;
lastChange = "2018-03-04 19:26:04 +0000";
layers = (
{
layerId = "88C65AEA-4CF7-410E-9BC9-3A05E177EFEE";
paths = (
{
closed = 1;
nodes = (
"384 610 OFFCURVE",
"462 590 OFFCURVE",
"524 526 CURVE",
"586 462 OFFCURVE",
"601 383 OFFCURVE",
"602 277 CURVE",
"602 225 OFFCURVE",
"592 174 OFFCURVE",
"572 126 CURVE",
"568 116 OFFCURVE",
"568 116 OFFCURVE",
"562 104 CURVE",
"553 85 OFFCURVE",
"601 77 OFFCURVE",
"602 61 CURVE",
"603 45 OFFCURVE",
"569 1 OFFCURVE",
"552 0 CURVE",
"535 -1 OFFCURVE",
"513 37 OFFCURVE",
"498 33 CURVE",
"470 25 OFFCURVE",
"370 1 OFFCURVE",
"311 0 CURVE",
"228 -1 OFFCURVE",
"137 -3 OFFCURVE",
"89 29 CURVE",
"43 66 OFFCURVE",
"20 272 OFFCURVE",
"20 272 CURVE",
"20 272 OFFCURVE",
"16 464 OFFCURVE",
"88 531 CURVE",
"160 598 OFFCURVE",
"242 610 OFFCURVE",
"313 610 CURVE"
);
},
{
closed = 1;
nodes = (
"271 541 OFFCURVE",
"186 529 OFFCURVE",
"152 477 CURVE",
"118 425 OFFCURVE",
"101 344 OFFCURVE",
"104 269 CURVE",
"107 194 OFFCURVE",
"132 102 OFFCURVE",
"151 85 CURVE",
"170 68 OFFCURVE",
"265 68 OFFCURVE",
"312 68 CURVE",
"345 69 OFFCURVE",
"378 72 OFFCURVE",
"410 78 CURVE",
"422 80 OFFCURVE",
"432 83 OFFCURVE",
"430 100 CURVE",
"428 117 OFFCURVE",
"359 146 OFFCURVE",
"360 162 CURVE",
"361 178 OFFCURVE",
"384 215 OFFCURVE",
"403 216 CURVE",
"422 217 OFFCURVE",
"473 143 OFFCURVE",
"496 148 CURVE",
"518 153 OFFCURVE",
"526 226 OFFCURVE",
"525 267 CURVE",
"523 348 OFFCURVE",
"508 425 OFFCURVE",
"467 479 CURVE",
"426 533 OFFCURVE",
"350 541 OFFCURVE",
"310 541 CURVE"
);
}
);
width = 622;
}
);
unicode = 0051;
},
{
glyphname = R;
lastChange = "2018-03-16 21:32:33 +0000";
layers = (
{
layerId = "88C65AEA-4CF7-410E-9BC9-3A05E177EFEE";
paths = (
{
closed = 1;
nodes = (
"318 605 OFFCURVE",
"398 593 OFFCURVE",
"435 562 CURVE",
"472 531 OFFCURVE",
"508 479 OFFCURVE",
"506 401 CURVE",
"504 323 OFFCURVE",
"488 291 OFFCURVE",
"440 257 CURVE SMOOTH",
"387 220 OFFCURVE",
"351 240 OFFCURVE",
"338 226 CURVE",
"326 213 OFFCURVE",
"518 22 OFFCURVE",
"498 8 CURVE",
"478 -6 OFFCURVE",
"439 0 OFFCURVE",
"418 10 CURVE",
"397 20 OFFCURVE",
"257 215 OFFCURVE",
"241 222 CURVE",
"225 231 OFFCURVE",
"140 231 OFFCURVE",
"123 214 CURVE",
"109 197 OFFCURVE",
"126 24 OFFCURVE",
"109 10 CURVE",
"92 -4 OFFCURVE",
"55 1 OFFCURVE",
"45 11 CURVE",
"35 20 OFFCURVE",
"40 575 OFFCURVE",
"54 590 CURVE",
"68 604 OFFCURVE",
"236 605 OFFCURVE",
"236 605 CURVE"
);
},
{
closed = 1;
nodes = (
"179 534 OFFCURVE",
"133 533 OFFCURVE",
"123 523 CURVE",
"110 509 OFFCURVE",
"114 319 OFFCURVE",
"125 307 CURVE",
"136 295 OFFCURVE",
"221 295 OFFCURVE",
"279 296 CURVE",
"337 296 OFFCURVE",
"439 275 OFFCURVE",
"436 399 CURVE",
"433 528 OFFCURVE",
"352 534 OFFCURVE",
"209 534 CURVE"
);
}
);
width = 536;
}
);
unicode = 0052;
},
{
glyphname = S;
lastChange = "2018-03-04 19:54:12 +0000";
layers = (
{
layerId = "88C65AEA-4CF7-410E-9BC9-3A05E177EFEE";
paths = (
{
closed = 1;
nodes = (
"360 610 OFFCURVE",
"438 590 OFFCURVE",
"500 526 CURVE",
"524 502 OFFCURVE",
"562 453 OFFCURVE",
"548 440 CURVE",
"535 427 OFFCURVE",
"488 435 OFFCURVE",
"474 442 CURVE",
"461 449 OFFCURVE",
"452 467 OFFCURVE",
"443 479 CURVE",
"402 533 OFFCURVE",
"326 541 OFFCURVE",
"287 541 CURVE",
"247 541 OFFCURVE",
"162 529 OFFCURVE",
"128 477 CURVE",
"101 434 OFFCURVE",
"102 379 OFFCURVE",
"117 364 CURVE",
"132 349 OFFCURVE",
"495 352 OFFCURVE",
"536 322 CURVE",
"555 308 OFFCURVE",
"568 275 OFFCURVE",
"569 235 CURVE",
"570 195 OFFCURVE",
"543 70 OFFCURVE",
"503 31 CURVE",
"461 -3 OFFCURVE",
"369 1 OFFCURVE",
"287 1 CURVE",
"204 0 OFFCURVE",
"124 3 OFFCURVE",
"76 35 CURVE",
"50 59 OFFCURVE",
"22 122 OFFCURVE",
"24 140 CURVE",
"27 158 OFFCURVE",
"84 151 OFFCURVE",
"99 142 CURVE",
"115 133 OFFCURVE",
"128 102 OFFCURVE",
"140 90 CURVE",
"159 73 OFFCURVE",
"241 69 OFFCURVE",
"288 69 CURVE",
"335 69 OFFCURVE",
"421 66 OFFCURVE",
"444 87 CURVE",
"464 107 OFFCURVE",
"476 134 OFFCURVE",
"485 161 CURVE",
"485 161 OFFCURVE",
"498 236 OFFCURVE",
"482 254 CURVE",
"466 272 OFFCURVE",
"165 283 OFFCURVE",
"165 283 CURVE",
"82 285 OFFCURVE",
"67 304 OFFCURVE",
"46 319 CURVE",
"26 335 OFFCURVE",
"-8 464 OFFCURVE",
"64 531 CURVE",
"136 598 OFFCURVE",
"218 610 OFFCURVE",
"289 610 CURVE",
"289 610 LINE"
);
}
);
width = 589;
}
);
unicode = 0053;
},
{
glyphname = T;
lastChange = "2018-03-05 08:29:47 +0000";
layers = (
{
layerId = "88C65AEA-4CF7-410E-9BC9-3A05E177EFEE";
paths = (
{
closed = 1;
nodes = (
"623 582 OFFCURVE",
"625 549 OFFCURVE",
"611 538 CURVE",
"597 526 OFFCURVE",
"375 549 OFFCURVE",
"361 535 CURVE",
"348 520 OFFCURVE",
"371 22 OFFCURVE",
"356 10 CURVE",
"342 -2 OFFCURVE",
"297 -3 OFFCURVE",
"282 9 CURVE",
"267 21 OFFCURVE",
"292 524 OFFCURVE",
"279 536 CURVE",
"266 547 OFFCURVE",
"41 522 OFFCURVE",
"28 537 CURVE",
"16 551 OFFCURVE",
"20 586 OFFCURVE",
"28 598 CURVE",
"37 610 OFFCURVE",
"599 616 OFFCURVE",
"611 599 CURVE"
);
}
);
width = 641;
}
);
unicode = 0054;
},
{
glyphname = U;
lastChange = "2018-03-05 09:04:00 +0000";
layers = (
{
layerId = "88C65AEA-4CF7-410E-9BC9-3A05E177EFEE";
paths = (
{
closed = 1;
nodes = (
"124 584 OFFCURVE",
"116 280 OFFCURVE",
"120 249 CURVE",
"124 218 OFFCURVE",
"129 165 OFFCURVE",
"143 126 CURVE",
"148 112 OFFCURVE",
"153 96 OFFCURVE",
"163 85 CURVE",
"182 68 OFFCURVE",
"269 68 OFFCURVE",
"316 68 CURVE",
"363 68 OFFCURVE",
"441 65 OFFCURVE",
"464 86 CURVE",
"487 107 OFFCURVE",
"521 186 OFFCURVE",
"519 267 CURVE",
"519 267 OFFCURVE",
"510 584 OFFCURVE",
"522 598 CURVE",
"535 612 OFFCURVE",
"588 607 OFFCURVE",
"599 598 CURVE",
"610 589 OFFCURVE",
"600 271 OFFCURVE",
"600 271 CURVE",
"598 215 OFFCURVE",
"588 158 OFFCURVE",
"568 105 CURVE",
"557 78 OFFCURVE",
"544 52 OFFCURVE",
"523 30 CURVE",
"481 -4 OFFCURVE",
"397 0 OFFCURVE",
"315 0 CURVE",
"232 -1 OFFCURVE",
"149 -3 OFFCURVE",
"101 29 CURVE",
"55 66 OFFCURVE",
"32 272 OFFCURVE",
"32 272 CURVE",
"32 272 OFFCURVE",
"25 585 OFFCURVE",
"35 598 CURVE",
"46 611 OFFCURVE",
"104 612 OFFCURVE",
"114 598 CURVE"
);
}
);
width = 634;
}
);
unicode = 0055;
},
{
glyphname = V;
lastChange = "2018-03-05 10:43:52 +0000";
layers = (
{
layerId = "88C65AEA-4CF7-410E-9BC9-3A05E177EFEE";
paths = (
{
closed = 1;
nodes = (
"565 611 OFFCURVE",
"622 615 OFFCURVE",
"632 602 CURVE",
"642 589 OFFCURVE",
"374 13 OFFCURVE",
"357 6 CURVE",
"337 -2 OFFCURVE",
"315 -2 OFFCURVE",
"293 7 CURVE",
"267 17 OFFCURVE",
"11 589 OFFCURVE",
"20 603 CURVE",
"29 617 OFFCURVE",
"91 613 OFFCURVE",
"107 600 CURVE",
"123 587 OFFCURVE",
"286 133 OFFCURVE",
"327 134 CURVE",
"367 136 OFFCURVE",
"527 595 OFFCURVE",
"546 603 CURVE"
);
}
);
width = 652;
}
);
unicode = 0056;
},
{
glyphname = W;
lastChange = "2018-03-09 10:30:10 +0000";
layers = (
{
layerId = "88C65AEA-4CF7-410E-9BC9-3A05E177EFEE";
paths = (
{
closed = 1;
nodes = (
"504 420 OFFCURVE",
"501 295 OFFCURVE",
"503 249 CURVE",
"503 179 OFFCURVE",
"500 99 OFFCURVE",
"512 87 CURVE",
"531 70 OFFCURVE",
"587 68 OFFCURVE",
"634 68 CURVE",
"704 72 OFFCURVE",
"718 72 OFFCURVE",
"741 93 CURVE",
"764 114 OFFCURVE",
"799 189 OFFCURVE",
"797 270 CURVE",
"797 270 OFFCURVE",
"783 587 OFFCURVE",
"795 601 CURVE",
"807 615 OFFCURVE",
"855 613 OFFCURVE",
"866 604 CURVE",
"877 595 OFFCURVE",
"876 271 OFFCURVE",
"876 271 CURVE",
"874 215 OFFCURVE",
"864 158 OFFCURVE",
"844 105 CURVE",
"833 78 OFFCURVE",
"820 52 OFFCURVE",
"799 30 CURVE",
"757 -4 OFFCURVE",
"754 0 OFFCURVE",
"649 0 CURVE",
"484 0 OFFCURVE",
"629 0 OFFCURVE",
"283 0 CURVE",
"180 -1 OFFCURVE",
"158 -3 OFFCURVE",
"110 29 CURVE",
"64 66 OFFCURVE",
"41 215 OFFCURVE",
"41 272 CURVE",
"41 272 OFFCURVE",
"41 589 OFFCURVE",
"51 602 CURVE",
"62 615 OFFCURVE",
"114 616 OFFCURVE",
"124 602 CURVE",
"134 588 OFFCURVE",
"122 286 OFFCURVE",
"126 255 CURVE",
"130 224 OFFCURVE",
"138 165 OFFCURVE",
"152 126 CURVE",
"157 112 OFFCURVE",
"162 96 OFFCURVE",
"172 85 CURVE",
"191 68 OFFCURVE",
"245 68 OFFCURVE",
"312 68 CURVE",
"359 68 OFFCURVE",
"375 64 OFFCURVE",
"398 85 CURVE",
"421 106 OFFCURVE",
"417 186 OFFCURVE",
"415 267 CURVE",
"416 405 OFFCURVE",
"412 423 OFFCURVE",
"424 435 CURVE",
"436 447 OFFCURVE",
"482 448 OFFCURVE",
"493 434 CURVE"
);
}
);
width = 916;
}
);
unicode = 0057;
},
{
glyphname = X;
lastChange = "2018-03-13 14:22:38 +0000";
layers = (
{
layerId = "88C65AEA-4CF7-410E-9BC9-3A05E177EFEE";
paths = (
{
closed = 1;
nodes = (
"79 611 OFFCURVE",
"44 614 OFFCURVE",
"26 596 CURVE",
"8 579 OFFCURVE",
"202 324 OFFCURVE",
"203 299 CURVE",
"204 275 OFFCURVE",
"11 31 OFFCURVE",
"20 13 CURVE",
"29 -4 OFFCURVE",
"83 1 OFFCURVE",
"99 10 CURVE",
"115 20 OFFCURVE",
"239 237 OFFCURVE",
"267 236 CURVE",
"295 236 OFFCURVE",
"417 28 OFFCURVE",
"442 11 CURVE",
"462 -1 OFFCURVE",
"505 -6 OFFCURVE",
"516 11 CURVE",
"527 29 OFFCURVE",
"314 281 OFFCURVE",
"313 302 CURVE",
"313 324 OFFCURVE",
"502 583 OFFCURVE",
"496 597 CURVE",
"490 611 OFFCURVE",
"443 612 OFFCURVE",
"422 602 CURVE",
"414 597 OFFCURVE",
"299 371 OFFCURVE",
"263 372 CURVE",
"227 373 OFFCURVE",
"112 590 OFFCURVE",
"95 601 CURVE"
);
}
);
width = 536;
}
);
unicode = 0058;
},
{
glyphname = Y;
lastChange = "2018-03-16 21:37:03 +0000";
layers = (
{
layerId = "88C65AEA-4CF7-410E-9BC9-3A05E177EFEE";
paths = (
{
closed = 1;
nodes = (
"123 594 OFFCURVE",
"232 391 OFFCURVE",
"268 390 CURVE",
"304 389 OFFCURVE",
"405 593 OFFCURVE",
"417 603 CURVE",
"429 613 OFFCURVE",
"486 616 OFFCURVE",
"492 602 CURVE",
"498 588 OFFCURVE",
"312 317 OFFCURVE",
"305 288 CURVE",
"298 259 OFFCURVE",
"315 11 OFFCURVE",
"293 4 CURVE",
"277 -1 OFFCURVE",
"267 -1 OFFCURVE",
"247 4 CURVE",
"219 12 OFFCURVE",
"240 257 OFFCURVE",
"230 290 CURVE",
"220 323 OFFCURVE",
"26 587 OFFCURVE",
"30 601 CURVE",
"34 614 OFFCURVE",
"103 609 OFFCURVE",
"113 602 CURVE"
);
}
);
width = 522;
}
);
unicode = 0059;
},
{
glyphname = Z;
lastChange = "2018-03-06 12:03:03 +0000";
layers = (
{
layerId = "88C65AEA-4CF7-410E-9BC9-3A05E177EFEE";
paths = (
{
closed = 1;
nodes = (
"541 591 OFFCURVE",
"543 577 OFFCURVE",
"528 547 CURVE",
"513 517 OFFCURVE",
"124 92 OFFCURVE",
"139 74 CURVE",
"153 55 OFFCURVE",
"513 86 OFFCURVE",
"528 69 CURVE",
"543 53 OFFCURVE",
"543 22 OFFCURVE",
"528 10 CURVE",
"513 -2 OFFCURVE",
"58 -4 OFFCURVE",
"42 10 CURVE",
"26 24 OFFCURVE",
"30 34 OFFCURVE",
"42 67 CURVE",
"54 100 OFFCURVE",
"427 514 OFFCURVE",
"414 533 CURVE",
"402 552 OFFCURVE",
"41 535 OFFCURVE",
"29 543 CURVE",
"16 551 OFFCURVE",
"18 587 OFFCURVE",
"30 601 CURVE",
"43 615 OFFCURVE",
"515 611 OFFCURVE",
"528 601 CURVE"
);
}
);
width = 559;
}
);
unicode = 005A;
},
{
glyphname = a;
lastChange = "2018-03-16 10:50:14 +0000";
layers = (
{
layerId = "88C65AEA-4CF7-410E-9BC9-3A05E177EFEE";
paths = (
{
closed = 1;
nodes = (
"485 419 OFFCURVE",
"483 20 OFFCURVE",
"472 11 CURVE SMOOTH",
"454 -3 OFFCURVE",
"315 1 OFFCURVE",
"259 1 CURVE",
"59 0 OFFCURVE",
"25 110 OFFCURVE",
"25 218 CURVE SMOOTH",
"25 356 OFFCURVE",
"125 445 OFFCURVE",
"261 445 CURVE",
"413 443 OFFCURVE",
"463 450 OFFCURVE",
"474 435 CURVE SMOOTH"
);
},
{
closed = 1;
nodes = (
"180 376 OFFCURVE",
"97 320 OFFCURVE",
"97 224 CURVE SMOOTH",
"97 110 OFFCURVE",
"142 71 OFFCURVE",
"260 71 CURVE",
"303 71 OFFCURVE",
"385 62 OFFCURVE",
"398 90 CURVE SMOOTH",
"408 112 OFFCURVE",
"415 338 OFFCURVE",
"402 359 CURVE SMOOTH",
"388 382 OFFCURVE",
"342 376 OFFCURVE",
"268 376 CURVE SMOOTH"
);
}
);
width = 526;
}
);
unicode = 0061;
},
{
glyphname = agrave;
lastChange = "2018-03-13 14:19:01 +0000";
layers = (
{
layerId = "88C65AEA-4CF7-410E-9BC9-3A05E177EFEE";
paths = (
{
closed = 1;
nodes = (
"268 625 OFFCURVE",
"431 495 OFFCURVE",
"415 487 CURVE",
"398 479 OFFCURVE",
"351 480 OFFCURVE",
"335 489 CURVE",
"320 498 OFFCURVE",
"174 627 OFFCURVE",
"182 637 CURVE",
"190 647 OFFCURVE",
"249 651 OFFCURVE",
"259 638 CURVE"
);
},
{
closed = 1;
nodes = (
"488 391 OFFCURVE",
"485 46 OFFCURVE",
"468 11 CURVE",
"458 -7 OFFCURVE",
"276 1 OFFCURVE",
"255 1 CURVE",
"172 0 OFFCURVE",
"129 8 OFFCURVE",
"81 40 CURVE",
"35 77 OFFCURVE",
"21 201 OFFCURVE",
"21 201 CURVE",
"17 271 OFFCURVE",
"36 329 OFFCURVE",
"79 374 CURVE",
"122 419 OFFCURVE",
"181 445 OFFCURVE",
"257 445 CURVE",
"409 445 OFFCURVE",
"452 451 OFFCURVE",
"470 435 CURVE"
);
},
{
closed = 1;
nodes = (
"207 373 OFFCURVE",
"169 357 OFFCURVE",
"142 325 CURVE",
"142 325 OFFCURVE",
"101 294 OFFCURVE",
"98 221 CURVE",
"101 146 OFFCURVE",
"120 111 OFFCURVE",
"139 94 CURVE",
"158 77 OFFCURVE",
"209 69 OFFCURVE",
"256 69 CURVE",
"303 69 OFFCURVE",
"364 64 OFFCURVE",
"394 77 CURVE",
"409 110 OFFCURVE",
"406 137 OFFCURVE",
"406 218 CURVE",
"404 299 OFFCURVE",
"406 355 OFFCURVE",
"398 368 CURVE",
"390 381 OFFCURVE",
"256 373 OFFCURVE",
"256 373 CURVE"
);
}
);
width = 522;
}
);
unicode = 00E0;
},
{
glyphname = ae;
lastChange = "2018-03-14 16:11:50 +0000";
layers = (
{
layerId = "88C65AEA-4CF7-410E-9BC9-3A05E177EFEE";
paths = (
{
closed = 1;
nodes = (
"27 271 OFFCURVE",
"46 329 OFFCURVE",
"89 374 CURVE SMOOTH",
"132 419 OFFCURVE",
"191 445 OFFCURVE",
"267 445 CURVE SMOOTH",
"419 445 OFFCURVE",
"462 451 OFFCURVE",
"480 435 CURVE",
"484 426 OFFCURVE",
"487 403 OFFCURVE",
"489 372 CURVE",
"491 375 LINE SMOOTH",
"534 420 OFFCURVE",
"593 443 OFFCURVE",
"668 443 CURVE SMOOTH",
"740 443 OFFCURVE",
"797 420 OFFCURVE",
"838 375 CURVE",
"852 357 OFFCURVE",
"865 348 OFFCURVE",
"871 318 CURVE SMOOTH",
"877 288 OFFCURVE",
"867 256 OFFCURVE",
"867 256 CURVE",
"860 243 OFFCURVE",
"849 232 OFFCURVE",
"839 221 CURVE",
"797 187 OFFCURVE",
"737 191 OFFCURVE",
"655 191 CURVE SMOOTH",
"610 192 OFFCURVE",
"558 187 OFFCURVE",
"514 202 CURVE",
"517 122 OFFCURVE",
"531 104 OFFCURVE",
"550 87 CURVE SMOOTH",
"569 70 OFFCURVE",
"620 70 OFFCURVE",
"667 70 CURVE SMOOTH",
"714 70 OFFCURVE",
"768 67 OFFCURVE",
"791 88 CURVE",
"802 97 OFFCURVE",
"803 105 OFFCURVE",
"819 121 CURVE SMOOTH",
"836 137 OFFCURVE",
"884 137 OFFCURVE",
"891 118 CURVE",
"899 99 OFFCURVE",
"878 60 OFFCURVE",
"850 32 CURVE",
"808 -2 OFFCURVE",
"748 2 OFFCURVE",
"666 2 CURVE SMOOTH",
"583 1 OFFCURVE",
"536 -1 OFFCURVE",
"488 31 CURVE",
"483 35 LINE",
"482 23 OFFCURVE",
"480 15 OFFCURVE",
"478 11 CURVE",
"468 -7 OFFCURVE",
"286 1 OFFCURVE",
"265 1 CURVE SMOOTH",
"182 0 OFFCURVE",
"139 8 OFFCURVE",
"91 40 CURVE",
"45 77 OFFCURVE",
"31 201 OFFCURVE",
"31 201 CURVE"
);
},
{
closed = 1;
nodes = (
"111 146 OFFCURVE",
"130 111 OFFCURVE",
"149 94 CURVE SMOOTH",
"168 77 OFFCURVE",
"219 69 OFFCURVE",
"266 69 CURVE SMOOTH",
"313 69 OFFCURVE",
"374 64 OFFCURVE",
"404 77 CURVE",
"419 110 OFFCURVE",
"416 137 OFFCURVE",
"416 218 CURVE",
"414 299 OFFCURVE",
"416 355 OFFCURVE",
"408 368 CURVE SMOOTH",
"400 381 OFFCURVE",
"266 373 OFFCURVE",
"266 373 CURVE SMOOTH",
"217 373 OFFCURVE",
"179 357 OFFCURVE",
"152 325 CURVE",
"152 325 OFFCURVE",
"111 294 OFFCURVE",
"108 221 CURVE"
);
},
{
closed = 1;
nodes = (
"535 266 OFFCURVE",
"609 259 OFFCURVE",
"656 259 CURVE SMOOTH",
"703 259 OFFCURVE",
"759 254 OFFCURVE",
"780 277 CURVE",
"799 301 OFFCURVE",
"786 317 OFFCURVE",
"779 326 CURVE SMOOTH",
"751 360 OFFCURVE",
"716 373 OFFCURVE",
"667 374 CURVE SMOOTH",
"622 376 OFFCURVE",
"590 358 OFFCURVE",
"569 342 CURVE SMOOTH",
"549 326 OFFCURVE",
"520 301 OFFCURVE",
"527 278 CURVE"
);
}
);
width = 923;
}
);
unicode = 00E6;
},
{
glyphname = b;
lastChange = "2018-03-16 10:50:28 +0000";
layers = (
{
layerId = "88C65AEA-4CF7-410E-9BC9-3A05E177EFEE";
paths = (
{
closed = 1;
nodes = (
"134 696 OFFCURVE",
"119 457 OFFCURVE",
"131 448 CURVE",
"143 440 OFFCURVE",
"255 444 OFFCURVE",
"278 444 CURVE",
"409 446 OFFCURVE",
"508 351 OFFCURVE",
"508 216 CURVE SMOOTH",
"508 129 OFFCURVE",
"510 0 OFFCURVE",
"280 1 CURVE",
"258 1 OFFCURVE",
"83 -2 OFFCURVE",
"56 7 CURVE",
"43 54 OFFCURVE",
"39 692 OFFCURVE",
"56 710 CURVE",
"68 723 OFFCURVE",
"106 724 OFFCURVE",
"120 710 CURVE"
);
},
{
closed = 1;
nodes = (
"136 382 OFFCURVE",
"128 365 CURVE SMOOTH",
"114 336 OFFCURVE",
"119 106 OFFCURVE",
"132 78 CURVE",
"146 60 OFFCURVE",
"276 62 OFFCURVE",
"315 66 CURVE SMOOTH",
"421 78 OFFCURVE",
"435 152 OFFCURVE",
"435 221 CURVE SMOOTH",
"435 315 OFFCURVE",
"376 373 OFFCURVE",
"278 373 CURVE",
"246 375 OFFCURVE"
);
}
);
width = 533;
}
);
unicode = 0062;
},
{
glyphname = c;
lastChange = "2018-03-15 01:03:44 +0000";
layers = (
{
layerId = "88C65AEA-4CF7-410E-9BC9-3A05E177EFEE";
paths = (
{
closed = 1;
nodes = (
"338 444 OFFCURVE",
"395 418 OFFCURVE",
"437 372 CURVE SMOOTH",
"457 350 OFFCURVE",
"483 307 OFFCURVE",
"475 296 CURVE",
"463 288 OFFCURVE",
"440 288 OFFCURVE",
"420 291 CURVE SMOOTH",
"402 294 OFFCURVE",
"383 316 OFFCURVE",
"377 324 CURVE",
"351 356 OFFCURVE",
"314 373 OFFCURVE",
"265 373 CURVE",
"216 373 OFFCURVE",
"178 360 OFFCURVE",
"151 333 CURVE SMOOTH",
"125 307 OFFCURVE",
"112 270 OFFCURVE",
"112 195 CURVE SMOOTH",
"112 141 OFFCURVE",
"130 101 OFFCURVE",
"149 84 CURVE",
"168 67 OFFCURVE",
"219 67 OFFCURVE",
"266 67 CURVE",
"313 67 OFFCURVE",
"367 64 OFFCURVE",
"390 85 CURVE",
"404 98 OFFCURVE",
"411 117 OFFCURVE",
"421 126 CURVE",
"431 135 OFFCURVE",
"479 142 OFFCURVE",
"485 128 CURVE",
"491 114 OFFCURVE",
"489 86 OFFCURVE",
"479 67 CURVE",
"471 53 OFFCURVE",
"460 41 OFFCURVE",
"449 29 CURVE",
"407 -5 OFFCURVE",
"347 -1 OFFCURVE",
"265 -1 CURVE",
"182 -2 OFFCURVE",
"135 -4 OFFCURVE",
"87 28 CURVE",
"41 65 OFFCURVE",
"35 150 OFFCURVE",
"35 190 CURVE SMOOTH",
"35 239 OFFCURVE",
"46 327 OFFCURVE",
"89 372 CURVE",
"132 418 OFFCURVE",
"191 444 OFFCURVE",
"266 444 CURVE"
);
}
);
width = 523;
}
);
unicode = 0063;
},
{
glyphname = d;
lastChange = "2018-03-16 10:50:45 +0000";
layers = (
{
layerId = "88C65AEA-4CF7-410E-9BC9-3A05E177EFEE";
paths = (
{
closed = 1;
nodes = (
"433 724 OFFCURVE",
"472 722 OFFCURVE",
"484 710 CURVE",
"496 697 OFFCURVE",
"486 428 OFFCURVE",
"486 341 CURVE SMOOTH",
"486 268 OFFCURVE",
"477 32 OFFCURVE",
"471 11 CURVE",
"454 0 OFFCURVE",
"336 0 OFFCURVE",
"259 0 CURVE SMOOTH",
"176 0 OFFCURVE",
"129 -2 OFFCURVE",
"81 30 CURVE",
"35 67 OFFCURVE",
"25 150 OFFCURVE",
"25 201 CURVE SMOOTH",
"25 271 OFFCURVE",
"41 329 OFFCURVE",
"84 374 CURVE",
"127 419 OFFCURVE",
"186 445 OFFCURVE",
"261 445 CURVE SMOOTH",
"314 445 OFFCURVE",
"396 441 OFFCURVE",
"408 449 CURVE",
"420 458 OFFCURVE",
"405 696 OFFCURVE",
"419 710 CURVE"
);
},
{
closed = 1;
nodes = (
"297 375 OFFCURVE",
"261 373 CURVE",
"211 373 OFFCURVE",
"171 361 OFFCURVE",
"138 328 CURVE SMOOTH",
"122 312 OFFCURVE",
"95 279 OFFCURVE",
"98 204 CURVE",
"101 129 OFFCURVE",
"124 103 OFFCURVE",
"143 86 CURVE",
"162 69 OFFCURVE",
"213 69 OFFCURVE",
"260 69 CURVE",
"307 69 OFFCURVE",
"367 64 OFFCURVE",
"390 85 CURVE",
"413 106 OFFCURVE",
"412 154 OFFCURVE",
"412 235 CURVE SMOOTH",
"412 316 OFFCURVE",
"420 356 OFFCURVE",
"401 365 CURVE",
"389 370 OFFCURVE"
);
}
);
width = 535;
}
);
unicode = 0064;
},
{
glyphname = eth;
lastChange = "2018-03-16 09:21:59 +0000";
layers = (
{
layerId = "88C65AEA-4CF7-410E-9BC9-3A05E177EFEE";
paths = (
{
closed = 1;
nodes = (
"242 650 OFFCURVE",
"187 681 OFFCURVE",
"187 697 CURVE SMOOTH",
"187 715 OFFCURVE",
"202 723 OFFCURVE",
"224 723 CURVE SMOOTH",
"240 723 OFFCURVE",
"282 710 OFFCURVE",
"304 695 CURVE",
"409 635 OFFCURVE",
"490 428 OFFCURVE",
"490 199 CURVE SMOOTH",
"490 126 OFFCURVE",
"477 64 OFFCURVE",
"448 30 CURVE",
"416 4 OFFCURVE",
"358 0 OFFCURVE",
"316 0 CURVE SMOOTH",
"295 0 OFFCURVE",
"277 1 OFFCURVE",
"270 1 CURVE",
"253 1 OFFCURVE",
"238 1 OFFCURVE",
"224 1 CURVE SMOOTH",
"168 1 OFFCURVE",
"130 4 OFFCURVE",
"92 30 CURVE",
"46 67 OFFCURVE",
"36 201 OFFCURVE",
"36 201 CURVE",
"32 271 OFFCURVE",
"52 329 OFFCURVE",
"95 374 CURVE",
"138 419 OFFCURVE",
"197 442 OFFCURVE",
"272 442 CURVE",
"285 442 OFFCURVE",
"307 440 OFFCURVE",
"326 440 CURVE SMOOTH",
"341 440 OFFCURVE",
"355 441 OFFCURVE",
"360 445 CURVE",
"362 446 OFFCURVE",
"363 450 OFFCURVE",
"363 454 CURVE SMOOTH",
"363 483 OFFCURVE",
"352 568 OFFCURVE",
"270 628 CURVE"
);
},
{
closed = 1;
nodes = (
"304 372 OFFCURVE",
"288 374 OFFCURVE",
"272 373 CURVE",
"222 373 OFFCURVE",
"181 362 OFFCURVE",
"147 327 CURVE SMOOTH",
"119 299 OFFCURVE",
"108 279 OFFCURVE",
"111 204 CURVE",
"114 129 OFFCURVE",
"135 103 OFFCURVE",
"154 86 CURVE",
"173 69 OFFCURVE",
"224 68 OFFCURVE",
"271 68 CURVE",
"318 68 OFFCURVE",
"349 65 OFFCURVE",
"372 86 CURVE",
"395 107 OFFCURVE",
"418 137 OFFCURVE",
"416 218 CURVE",
"411 353 OFFCURVE",
"411 364 OFFCURVE",
"320 373 CURVE"
);
},
{
closed = 1;
nodes = (
"443 668 LINE",
"490 657 OFFCURVE",
"472 627 OFFCURVE",
"472 606 CURVE",
"263 509 LINE",
"242 518 OFFCURVE",
"234 550 OFFCURVE",
"234 571 CURVE"
);
}
);
width = 525;
}
);
unicode = 00F0;
},
{
glyphname = dcaron;
lastChange = "2018-03-16 09:27:00 +0000";
layers = (
{
layerId = "88C65AEA-4CF7-410E-9BC9-3A05E177EFEE";
paths = (
{
closed = 1;
nodes = (
"443 724 OFFCURVE",
"482 722 OFFCURVE",
"494 710 CURVE",
"506 697 OFFCURVE",
"496 428 OFFCURVE",
"496 341 CURVE SMOOTH",
"496 268 OFFCURVE",
"487 32 OFFCURVE",
"481 11 CURVE",
"464 0 OFFCURVE",
"346 0 OFFCURVE",
"269 0 CURVE SMOOTH",
"186 0 OFFCURVE",
"139 -2 OFFCURVE",
"91 30 CURVE",
"45 67 OFFCURVE",
"35 150 OFFCURVE",
"35 201 CURVE SMOOTH",
"35 271 OFFCURVE",
"51 329 OFFCURVE",
"94 374 CURVE",
"137 419 OFFCURVE",
"196 445 OFFCURVE",
"271 445 CURVE SMOOTH",
"324 445 OFFCURVE",
"406 441 OFFCURVE",
"418 449 CURVE",
"430 458 OFFCURVE",
"415 696 OFFCURVE",
"429 710 CURVE"
);
},
{
closed = 1;
nodes = (
"307 375 OFFCURVE",
"271 373 CURVE",
"221 373 OFFCURVE",
"181 361 OFFCURVE",
"148 328 CURVE SMOOTH",
"132 312 OFFCURVE",
"105 279 OFFCURVE",
"108 204 CURVE",
"111 129 OFFCURVE",
"134 103 OFFCURVE",
"153 86 CURVE",
"172 69 OFFCURVE",
"223 69 OFFCURVE",
"270 69 CURVE",
"317 69 OFFCURVE",
"377 64 OFFCURVE",
"400 85 CURVE",
"423 106 OFFCURVE",
"422 154 OFFCURVE",
"422 235 CURVE SMOOTH",
"422 316 OFFCURVE",
"430 356 OFFCURVE",
"411 365 CURVE",
"399 370 OFFCURVE"
);
},
{
closed = 1;
nodes = (
"545 551 LINE",
"614 551 LINE",
"614 721 LINE",
"545 721 LINE"
);
}
);
width = 649;
}
);
unicode = 010F;
},
{
glyphname = e;
lastChange = "2018-03-16 09:43:17 +0000";
layers = (
{
layerId = "88C65AEA-4CF7-410E-9BC9-3A05E177EFEE";
paths = (
{
closed = 1;
nodes = (
"340 445 OFFCURVE",
"397 420 OFFCURVE",
"438 375 CURVE",
"452 357 OFFCURVE",
"465 348 OFFCURVE",
"471 318 CURVE",
"477 275 OFFCURVE",
"465 250 OFFCURVE",
"439 221 CURVE",
"397 187 OFFCURVE",
"337 189 OFFCURVE",
"255 189 CURVE",
"210 190 OFFCURVE",
"127 196 OFFCURVE",
"110 178 CURVE SMOOTH",
"97 164 OFFCURVE",
"119 99 OFFCURVE",
"138 82 CURVE",
"157 65 OFFCURVE",
"220 66 OFFCURVE",
"267 66 CURVE SMOOTH",
"314 66 OFFCURVE",
"351 60 OFFCURVE",
"374 81 CURVE",
"385 90 OFFCURVE",
"389 104 OFFCURVE",
"405 120 CURVE",
"422 136 OFFCURVE",
"465 137 OFFCURVE",
"472 118 CURVE",
"480 99 OFFCURVE",
"459 60 OFFCURVE",
"431 32 CURVE",
"389 -2 OFFCURVE",
"348 0 OFFCURVE",
"266 0 CURVE SMOOTH",
"183 0 OFFCURVE",
"136 -1 OFFCURVE",
"88 31 CURVE",
"42 68 OFFCURVE",
"35 168 OFFCURVE",
"35 202 CURVE SMOOTH",
"35 230 OFFCURVE",
"32 254 OFFCURVE",
"42 288 CURVE SMOOTH",
"55 334 OFFCURVE",
"75 358 OFFCURVE",
"91 375 CURVE",
"134 420 OFFCURVE",
"193 445 OFFCURVE",
"268 445 CURVE"
);
},
{
closed = 1;
nodes = (
"222 378 OFFCURVE",
"179 359 OFFCURVE",
"158 343 CURVE",
"138 327 OFFCURVE",
"111 289 OFFCURVE",
"118 266 CURVE",
"126 254 OFFCURVE",
"209 258 OFFCURVE",
"256 258 CURVE",
"303 258 OFFCURVE",
"369 254 OFFCURVE",
"390 277 CURVE",
"409 301 OFFCURVE",
"396 317 OFFCURVE",
"389 326 CURVE",
"361 360 OFFCURVE",
"316 375 OFFCURVE",
"267 376 CURVE"
);
}
);
width = 509;
}
);
unicode = 0065;
},
{
glyphname = eacute;
lastChange = "2018-03-13 17:50:43 +0000";
layers = (
{
layerId = "88C65AEA-4CF7-410E-9BC9-3A05E177EFEE";
paths = (
{
closed = 1;
nodes = (
"328 443 OFFCURVE",
"385 420 OFFCURVE",
"426 375 CURVE",
"440 357 OFFCURVE",
"453 348 OFFCURVE",
"459 318 CURVE",
"465 288 OFFCURVE",
"455 256 OFFCURVE",
"455 256 CURVE",
"448 243 OFFCURVE",
"437 232 OFFCURVE",
"427 221 CURVE",
"385 187 OFFCURVE",
"325 191 OFFCURVE",
"243 191 CURVE",
"198 192 OFFCURVE",
"146 187 OFFCURVE",
"102 202 CURVE",
"105 122 OFFCURVE",
"119 104 OFFCURVE",
"138 87 CURVE",
"157 70 OFFCURVE",
"208 70 OFFCURVE",
"255 70 CURVE",
"302 70 OFFCURVE",
"356 67 OFFCURVE",
"379 88 CURVE",
"390 97 OFFCURVE",
"391 105 OFFCURVE",
"407 121 CURVE",
"424 137 OFFCURVE",
"472 137 OFFCURVE",
"479 118 CURVE",
"487 99 OFFCURVE",
"466 60 OFFCURVE",
"438 32 CURVE",
"396 -2 OFFCURVE",
"336 2 OFFCURVE",
"254 2 CURVE",
"171 1 OFFCURVE",
"124 -1 OFFCURVE",
"76 31 CURVE",
"30 68 OFFCURVE",
"20 202 OFFCURVE",
"20 202 CURVE",
"19 230 OFFCURVE",
"21 258 OFFCURVE",
"28 285 CURVE",
"49 339 OFFCURVE",
"63 358 OFFCURVE",
"79 375 CURVE",
"122 420 OFFCURVE",
"181 443 OFFCURVE",
"256 443 CURVE"
);
},
{
closed = 1;
nodes = (
"210 376 OFFCURVE",
"178 358 OFFCURVE",
"157 342 CURVE",
"137 326 OFFCURVE",
"108 301 OFFCURVE",
"115 278 CURVE",
"123 266 OFFCURVE",
"197 259 OFFCURVE",
"244 259 CURVE",
"291 259 OFFCURVE",
"347 254 OFFCURVE",
"368 277 CURVE",
"387 301 OFFCURVE",
"374 317 OFFCURVE",
"367 326 CURVE",
"339 360 OFFCURVE",
"304 373 OFFCURVE",
"255 374 CURVE"
);
},
{
closed = 1;
nodes = (
"269 634 OFFCURVE",
"328 630 OFFCURVE",
"336 620 CURVE",
"344 610 OFFCURVE",
"198 481 OFFCURVE",
"183 472 CURVE",
"167 463 OFFCURVE",
"120 462 OFFCURVE",
"103 470 CURVE",
"87 478 OFFCURVE",
"250 608 OFFCURVE",
"259 621 CURVE"
);
}
);
width = 501;
}
);
unicode = 00E9;
},
{
glyphname = edieresis;
lastChange = "2018-03-12 23:21:08 +0000";
layers = (
{
layerId = "88C65AEA-4CF7-410E-9BC9-3A05E177EFEE";
paths = (
{
closed = 1;
nodes = (
"328 443 OFFCURVE",
"385 420 OFFCURVE",
"426 375 CURVE",
"440 357 OFFCURVE",
"453 348 OFFCURVE",
"459 318 CURVE",
"465 288 OFFCURVE",
"455 256 OFFCURVE",
"455 256 CURVE",
"448 243 OFFCURVE",
"437 232 OFFCURVE",
"427 221 CURVE",
"385 187 OFFCURVE",
"325 191 OFFCURVE",
"243 191 CURVE",
"198 192 OFFCURVE",
"146 187 OFFCURVE",
"102 202 CURVE",
"105 122 OFFCURVE",
"119 104 OFFCURVE",
"138 87 CURVE",
"157 70 OFFCURVE",
"208 70 OFFCURVE",
"255 70 CURVE",
"302 70 OFFCURVE",
"356 67 OFFCURVE",
"379 88 CURVE",
"390 97 OFFCURVE",
"391 105 OFFCURVE",
"407 121 CURVE",
"424 137 OFFCURVE",
"472 137 OFFCURVE",
"479 118 CURVE",
"487 99 OFFCURVE",
"466 60 OFFCURVE",
"438 32 CURVE",
"396 -2 OFFCURVE",
"336 2 OFFCURVE",
"254 2 CURVE",
"171 1 OFFCURVE",
"124 -1 OFFCURVE",
"76 31 CURVE",
"30 68 OFFCURVE",
"20 202 OFFCURVE",
"20 202 CURVE",
"19 230 OFFCURVE",
"21 258 OFFCURVE",
"28 285 CURVE",
"49 339 OFFCURVE",
"63 358 OFFCURVE",
"79 375 CURVE",
"122 420 OFFCURVE",
"181 443 OFFCURVE",
"256 443 CURVE"
);
},
{
closed = 1;
nodes = (
"210 376 OFFCURVE",
"178 358 OFFCURVE",
"157 342 CURVE",
"137 326 OFFCURVE",
"108 301 OFFCURVE",
"115 278 CURVE",
"123 266 OFFCURVE",
"197 259 OFFCURVE",
"244 259 CURVE",
"291 259 OFFCURVE",
"347 254 OFFCURVE",
"368 277 CURVE",
"387 301 OFFCURVE",
"374 317 OFFCURVE",
"367 326 CURVE",
"339 360 OFFCURVE",
"304 373 OFFCURVE",
"255 374 CURVE"
);
},
{
closed = 1;
nodes = (
"133 572 OFFCURVE",
"137 512 OFFCURVE",
"144 505 CURVE SMOOTH",
"151 498 OFFCURVE",
"212 499 OFFCURVE",
"219 505 CURVE SMOOTH",
"227 512 OFFCURVE",
"228 572 OFFCURVE",
"219 581 CURVE SMOOTH",
"212 588 OFFCURVE",
"154 589 OFFCURVE",
"144 581 CURVE SMOOTH"
);
},
{
closed = 1;
nodes = (
"278 571 OFFCURVE",
"282 511 OFFCURVE",
"289 504 CURVE SMOOTH",
"296 497 OFFCURVE",
"357 498 OFFCURVE",
"364 504 CURVE SMOOTH",
"372 511 OFFCURVE",
"373 571 OFFCURVE",
"364 580 CURVE SMOOTH",
"357 587 OFFCURVE",
"299 588 OFFCURVE",
"289 580 CURVE SMOOTH"
);
}
);
width = 501;
}
);
unicode = 00EB;
},
{
glyphname = f;
lastChange = "2018-03-15 01:25:26 +0000";
layers = (
{
layerId = "88C65AEA-4CF7-410E-9BC9-3A05E177EFEE";
paths = (
{
closed = 1;
nodes = (
"122 355 OFFCURVE",
"107 23 OFFCURVE",
"125 9 CURVE",
"142 -5 OFFCURVE",
"167 0 OFFCURVE",
"180 8 CURVE",
"194 16 OFFCURVE",
"180 354 OFFCURVE",
"192 367 CURVE",
"203 380 OFFCURVE",
"281 363 OFFCURVE",
"293 378 CURVE",
"306 393 OFFCURVE",
"306 426 OFFCURVE",
"293 438 CURVE",
"281 450 OFFCURVE",
"211 438 OFFCURVE",
"195 449 CURVE",
"182 474 OFFCURVE",
"177 612 OFFCURVE",
"202 637 CURVE SMOOTH",
"218 653 OFFCURVE",
"231 648 OFFCURVE",
"250 648 CURVE",
"272 648 OFFCURVE",
"279 647 OFFCURVE",
"294 662 CURVE",
"307 676 OFFCURVE",
"304 692 OFFCURVE",
"295 706 CURVE",
"287 720 OFFCURVE",
"244 717 OFFCURVE",
"244 717 CURVE",
"201 717 OFFCURVE",
"171 709 OFFCURVE",
"149 690 CURVE",
"126 670 OFFCURVE",
"115 638 OFFCURVE",
"115 600 CURVE",
"115 600 OFFCURVE",
"122 461 OFFCURVE",
"108 449 CURVE",
"93 437 OFFCURVE",
"40 451 OFFCURVE",
"32 439 CURVE",
"23 427 OFFCURVE",
"23 385 OFFCURVE",
"34 374 CURVE",
"44 363 OFFCURVE",
"99 377 OFFCURVE",
"111 366 CURVE"
);
}
);
width = 328;
}
);
unicode = 0066;
},
{
glyphname = g;
lastChange = "2018-03-16 10:27:47 +0000";
layers = (
{
layerId = "88C65AEA-4CF7-410E-9BC9-3A05E177EFEE";
paths = (
{
closed = 1;
nodes = (
"349 449 OFFCURVE",
"412 445 OFFCURVE",
"477 438 CURVE",
"508 403 OFFCURVE",
"498 302 OFFCURVE",
"499 196 CURVE",
"501 51 OFFCURVE",
"498 25 OFFCURVE",
"498 -2 CURVE",
"497 -109 OFFCURVE",
"439 -180 OFFCURVE",
"439 -180 CURVE",
"397 -225 OFFCURVE",
"340 -248 OFFCURVE",
"269 -248 CURVE",
"193 -248 OFFCURVE",
"134 -225 OFFCURVE",
"91 -180 CURVE",
"56 -143 OFFCURVE",
"31 -80 OFFCURVE",
"40 -63 CURVE",
"50 -46 OFFCURVE",
"99 -42 OFFCURVE",
"114 -54 CURVE",
"129 -66 OFFCURVE",
"136 -108 OFFCURVE",
"154 -131 CURVE",
"180 -164 OFFCURVE",
"218 -180 OFFCURVE",
"267 -180 CURVE",
"316 -180 OFFCURVE",
"354 -164 OFFCURVE",
"380 -131 CURVE",
"417 -81 OFFCURVE",
"435 -18 OFFCURVE",
"422 -7 CURVE SMOOTH",
"397 14 OFFCURVE",
"144 -17 OFFCURVE",
"92 18 CURVE",
"46 55 OFFCURVE",
"35 155 OFFCURVE",
"35 201 CURVE SMOOTH",
"35 271 OFFCURVE",
"49 329 OFFCURVE",
"92 374 CURVE",
"135 419 OFFCURVE",
"194 444 OFFCURVE",
"269 444 CURVE"
);
},
{
closed = 1;
nodes = (
"219 373 OFFCURVE",
"176 362 OFFCURVE",
"151 335 CURVE SMOOTH",
"126 307 OFFCURVE",
"105 275 OFFCURVE",
"108 200 CURVE",
"112 125 OFFCURVE",
"119 98 OFFCURVE",
"138 81 CURVE",
"157 64 OFFCURVE",
"222 69 OFFCURVE",
"269 69 CURVE",
"316 69 OFFCURVE",
"391 66 OFFCURVE",
"411 80 CURVE SMOOTH",
"431 94 OFFCURVE",
"429 115 OFFCURVE",
"427 196 CURVE",
"425 277 OFFCURVE",
"435 330 OFFCURVE",
"417 356 CURVE SMOOTH",
"395 387 OFFCURVE",
"317 373 OFFCURVE",
"268 373 CURVE"
);
}
);
width = 535;
}
);
unicode = 0067;
},
{
glyphname = gcommaaccent;
lastChange = "2018-03-14 15:29:31 +0000";
layers = (
{
layerId = "88C65AEA-4CF7-410E-9BC9-3A05E177EFEE";
paths = (
{
closed = 1;
nodes = (
"328 442 OFFCURVE",
"385 419 OFFCURVE",
"427 374 CURVE",
"427 374 OFFCURVE",
"485 302 OFFCURVE",
"486 196 CURVE",
"488 51 OFFCURVE",
"485 25 OFFCURVE",
"485 -2 CURVE",
"484 -109 OFFCURVE",
"426 -180 OFFCURVE",
"426 -180 CURVE",
"384 -225 OFFCURVE",
"327 -248 OFFCURVE",
"256 -248 CURVE",
"180 -248 OFFCURVE",
"121 -225 OFFCURVE",
"78 -180 CURVE",
"43 -143 OFFCURVE",
"18 -80 OFFCURVE",
"27 -63 CURVE",
"37 -46 OFFCURVE",
"86 -42 OFFCURVE",
"101 -54 CURVE",
"116 -66 OFFCURVE",
"123 -108 OFFCURVE",
"141 -131 CURVE",
"167 -164 OFFCURVE",
"205 -180 OFFCURVE",
"254 -180 CURVE",
"303 -180 OFFCURVE",
"341 -164 OFFCURVE",
"367 -131 CURVE",
"384 -108 OFFCURVE",
"393 -80 OFFCURVE",
"400 -52 CURVE",
"411 2 LINE",
"297 0 OFFCURVE",
"276 1 OFFCURVE",
"255 1 CURVE",
"172 0 OFFCURVE",
"125 -2 OFFCURVE",
"77 30 CURVE",
"31 67 OFFCURVE",
"21 201 OFFCURVE",
"21 201 CURVE",
"16 271 OFFCURVE",
"36 329 OFFCURVE",
"79 374 CURVE",
"122 419 OFFCURVE",
"181 442 OFFCURVE",
"256 442 CURVE"
);
},
{
closed = 1;
nodes = (
"206 373 OFFCURVE",
"168 357 OFFCURVE",
"142 325 CURVE",
"142 325 OFFCURVE",
"99 271 OFFCURVE",
"102 196 CURVE",
"106 121 OFFCURVE",
"120 103 OFFCURVE",
"139 86 CURVE",
"158 69 OFFCURVE",
"209 69 OFFCURVE",
"256 69 CURVE",
"303 69 OFFCURVE",
"357 66 OFFCURVE",
"380 87 CURVE",
"403 108 OFFCURVE",
"409 115 OFFCURVE",
"407 196 CURVE",
"405 277 OFFCURVE",
"367 325 OFFCURVE",
"367 325 CURVE",
"341 357 OFFCURVE",
"304 373 OFFCURVE",
"255 373 CURVE"
);
},
{
closed = 1;
nodes = (
"156 484 LINE",
"243 484 LINE",
"347 643 LINE",
"260 643 LINE"
);
}
);
width = 527;
}
);
unicode = 0123;
},
{
glyphname = h;
lastChange = "2018-03-15 22:11:03 +0000";
layers = (
{
layerId = "88C65AEA-4CF7-410E-9BC9-3A05E177EFEE";
paths = (
{
closed = 1;
nodes = (
"115 691 OFFCURVE",
"104 474 OFFCURVE",
"118 457 CURVE",
"132 439 OFFCURVE",
"206 445 OFFCURVE",
"269 445 CURVE SMOOTH",
"341 445 OFFCURVE",
"397 419 OFFCURVE",
"440 373 CURVE SMOOTH",
"482 329 OFFCURVE",
"491 268 OFFCURVE",
"495 210 CURVE",
"498 210 OFFCURVE",
"504 17 OFFCURVE",
"490 11 CURVE",
"475 -4 OFFCURVE",
"460 -3 OFFCURVE",
"440 11 CURVE",
"420 19 OFFCURVE",
"425 131 OFFCURVE",
"425 179 CURVE SMOOTH",
"425 294 OFFCURVE",
"400 312 OFFCURVE",
"385 330 CURVE SMOOTH",
"359 361 OFFCURVE",
"316 372 OFFCURVE",
"267 372 CURVE",
"267 372 OFFCURVE",
"135 375 OFFCURVE",
"120 355 CURVE",
"111 340 OFFCURVE",
"110 320 OFFCURVE",
"109 303 CURVE",
"109 124 OFFCURVE",
"118 14 OFFCURVE",
"101 6 CURVE",
"85 -2 OFFCURVE",
"70 -2 OFFCURVE",
"49 10 CURVE",
"44 14 OFFCURVE",
"43 29 OFFCURVE",
"42 35 CURVE",
"40 47 OFFCURVE",
"39 59 OFFCURVE",
"38 71 CURVE",
"36 100 OFFCURVE",
"36 177 OFFCURVE",
"36 279 CURVE SMOOTH",
"36 433 OFFCURVE",
"32 700 OFFCURVE",
"40 709 CURVE",
"54 724 OFFCURVE",
"91 723 OFFCURVE",
"103 707 CURVE"
);
}
);
width = 534;
}
);
unicode = 0068;
},
{
glyphname = i;
lastChange = "2018-03-16 10:51:05 +0000";
layers = (
{
layerId = "88C65AEA-4CF7-410E-9BC9-3A05E177EFEE";
paths = (
{
closed = 1;
nodes = (
"106 612 OFFCURVE",
"114 606 OFFCURVE",
"118 594 CURVE",
"127 580 OFFCURVE",
"130 545 OFFCURVE",
"117 529 CURVE",
"104 513 OFFCURVE",
"57 517 OFFCURVE",
"51 528 CURVE",
"45 539 OFFCURVE",
"44 583 OFFCURVE",
"50 596 CURVE",
"56 609 OFFCURVE",
"71 612 OFFCURVE",
"93 612 CURVE"
);
},
{
closed = 1;
nodes = (
"47 230 OFFCURVE",
"40 426 OFFCURVE",
"55 437 CURVE",
"76 450 OFFCURVE",
"92 448 OFFCURVE",
"111 435 CURVE",
"123 423 OFFCURVE",
"107 93 OFFCURVE",
"119 76 CURVE SMOOTH",
"130 60 OFFCURVE",
"148 61 OFFCURVE",
"160 54 CURVE SMOOTH",
"182 41 OFFCURVE",
"180 8 OFFCURVE",
"163 4 CURVE SMOOTH",
"133 -3 OFFCURVE",
"101 -5 OFFCURVE",
"71 21 CURVE SMOOTH",
"45 43 OFFCURVE",
"47 76 OFFCURVE",
"47 88 CURVE SMOOTH"
);
}
);
width = 201;
}
);
unicode = 0069;
},
{
glyphname = iacute;
lastChange = "2018-03-13 17:56:28 +0000";
layers = (
{
layerId = "88C65AEA-4CF7-410E-9BC9-3A05E177EFEE";
paths = (
{
closed = 1;
nodes = (
"190 420 OFFCURVE",
"181 202 OFFCURVE",
"181 93 CURVE",
"181 48 OFFCURVE",
"185 24 OFFCURVE",
"179 12 CURVE",
"163 -1 OFFCURVE",
"117 1 OFFCURVE",
"105 9 CURVE",
"94 18 OFFCURVE",
"99 63 OFFCURVE",
"99 75 CURVE",
"98 106 OFFCURVE",
"99 178 OFFCURVE",
"99 209 CURVE",
"98 293 OFFCURVE",
"95 424 OFFCURVE",
"112 436 CURVE",
"133 449 OFFCURVE",
"154 447 OFFCURVE",
"173 434 CURVE"
);
},
{
closed = 1;
nodes = (
"187 666 OFFCURVE",
"246 662 OFFCURVE",
"254 652 CURVE",
"262 642 OFFCURVE",
"116 513 OFFCURVE",
"101 504 CURVE",
"85 495 OFFCURVE",
"38 494 OFFCURVE",
"21 502 CURVE",
"5 510 OFFCURVE",
"168 640 OFFCURVE",
"177 653 CURVE"
);
}
);
width = 274;
}
);
unicode = 00ED;
},
{
glyphname = icircumflex;
lastChange = "2018-03-14 10:59:40 +0000";
layers = (
{
layerId = "88C65AEA-4CF7-410E-9BC9-3A05E177EFEE";
paths = (
{
closed = 1;
nodes = (
"203 420 OFFCURVE",
"194 202 OFFCURVE",
"194 93 CURVE",
"194 48 OFFCURVE",
"198 24 OFFCURVE",
"192 12 CURVE",
"176 -1 OFFCURVE",
"130 1 OFFCURVE",
"118 9 CURVE",
"107 18 OFFCURVE",
"112 63 OFFCURVE",
"112 75 CURVE",
"111 106 OFFCURVE",
"112 178 OFFCURVE",
"112 209 CURVE",
"111 293 OFFCURVE",
"108 424 OFFCURVE",
"125 436 CURVE",
"146 449 OFFCURVE",
"167 447 OFFCURVE",
"186 434 CURVE"
);
},
{
closed = 1;
nodes = (
"226 490 OFFCURVE",
"211 499 CURVE",
"182 508 OFFCURVE",
"170 547 OFFCURVE",
"150 547 CURVE",
"130 547 OFFCURVE",
"125 513 OFFCURVE",
"92 501 CURVE",
"73 489 OFFCURVE",
"10 492 OFFCURVE",
"22 514 CURVE",
"34 533 OFFCURVE",
"108 625 OFFCURVE",
"149 625 CURVE",
"187 622 OFFCURVE",
"265 527 OFFCURVE",
"280 514 CURVE",
"295 490 OFFCURVE"
);
}
);
width = 302;
}
);
unicode = 00EE;
},
{
glyphname = idieresis;
lastChange = "2018-03-13 08:41:07 +0000";
layers = (
{
layerId = "88C65AEA-4CF7-410E-9BC9-3A05E177EFEE";
paths = (
{
closed = 1;
nodes = (
"193 420 OFFCURVE",
"184 202 OFFCURVE",
"184 93 CURVE",
"184 48 OFFCURVE",
"188 24 OFFCURVE",
"182 12 CURVE",
"166 -1 OFFCURVE",
"120 1 OFFCURVE",
"108 9 CURVE",
"97 18 OFFCURVE",
"102 63 OFFCURVE",
"102 75 CURVE",
"101 106 OFFCURVE",
"102 178 OFFCURVE",
"102 209 CURVE",
"101 293 OFFCURVE",
"98 424 OFFCURVE",
"115 436 CURVE",
"136 449 OFFCURVE",
"157 447 OFFCURVE",
"176 434 CURVE"
);
},
{
closed = 1;
nodes = (
"193 420 OFFCURVE",
"184 202 OFFCURVE",
"184 93 CURVE",
"184 48 OFFCURVE",
"188 24 OFFCURVE",
"182 12 CURVE",
"166 -1 OFFCURVE",
"120 1 OFFCURVE",
"108 9 CURVE",
"97 18 OFFCURVE",
"102 63 OFFCURVE",
"102 75 CURVE",
"101 106 OFFCURVE",
"102 178 OFFCURVE",
"102 209 CURVE",
"101 293 OFFCURVE",
"98 424 OFFCURVE",
"115 436 CURVE",
"136 449 OFFCURVE",
"157 447 OFFCURVE",
"176 434 CURVE"
);
},
{
closed = 1;
nodes = (
"26 566 OFFCURVE",
"30 506 OFFCURVE",
"38 499 CURVE SMOOTH",
"44 492 OFFCURVE",
"106 493 OFFCURVE",
"113 499 CURVE SMOOTH",
"121 506 OFFCURVE",
"122 566 OFFCURVE",
"113 575 CURVE SMOOTH",
"106 582 OFFCURVE",
"47 583 OFFCURVE",
"38 575 CURVE SMOOTH"
);
},
{
closed = 1;
nodes = (
"172 565 OFFCURVE",
"176 505 OFFCURVE",
"183 498 CURVE SMOOTH",
"190 491 OFFCURVE",
"251 492 OFFCURVE",
"258 498 CURVE SMOOTH",
"266 505 OFFCURVE",
"267 565 OFFCURVE",
"258 574 CURVE SMOOTH",
"251 581 OFFCURVE",
"193 582 OFFCURVE",
"183 574 CURVE SMOOTH"
);
}
);
width = 294;
}
);
unicode = 00EF;
},
{
glyphname = igrave;
lastChange = "2018-03-13 17:56:19 +0000";
layers = (
{
layerId = "88C65AEA-4CF7-410E-9BC9-3A05E177EFEE";
paths = (
{
closed = 1;
nodes = (
"186 420 OFFCURVE",
"177 202 OFFCURVE",
"177 93 CURVE",
"177 48 OFFCURVE",
"181 24 OFFCURVE",
"175 12 CURVE",
"159 -1 OFFCURVE",
"113 1 OFFCURVE",
"101 9 CURVE",
"90 18 OFFCURVE",
"95 63 OFFCURVE",
"95 75 CURVE",
"94 106 OFFCURVE",
"95 178 OFFCURVE",
"95 209 CURVE",
"94 293 OFFCURVE",
"91 424 OFFCURVE",
"108 436 CURVE",
"129 449 OFFCURVE",
"150 447 OFFCURVE",
"169 434 CURVE"
);
},
{
closed = 1;
nodes = (
"106 640 OFFCURVE",
"269 510 OFFCURVE",
"253 502 CURVE",
"236 494 OFFCURVE",
"189 495 OFFCURVE",
"173 504 CURVE",
"158 513 OFFCURVE",
"12 642 OFFCURVE",
"20 652 CURVE",
"28 662 OFFCURVE",
"87 666 OFFCURVE",
"97 653 CURVE"
);
}
);
width = 274;
}
);
unicode = 00EC;
},
{
glyphname = imacron;
lastChange = "2018-03-14 15:30:09 +0000";
layers = (
{
layerId = "88C65AEA-4CF7-410E-9BC9-3A05E177EFEE";
paths = (
{
closed = 1;
nodes = (
"183 420 OFFCURVE",
"174 202 OFFCURVE",
"174 93 CURVE",
"174 48 OFFCURVE",
"178 24 OFFCURVE",
"172 12 CURVE",
"156 -1 OFFCURVE",
"110 1 OFFCURVE",
"98 9 CURVE",
"87 18 OFFCURVE",
"92 63 OFFCURVE",
"92 75 CURVE",
"91 106 OFFCURVE",
"92 178 OFFCURVE",
"92 209 CURVE",
"91 293 OFFCURVE",
"88 424 OFFCURVE",
"105 436 CURVE",
"126 449 OFFCURVE",
"147 447 OFFCURVE",
"166 434 CURVE"
);
},
{
closed = 1;
nodes = (
"153 589 OFFCURVE",
"254 590 OFFCURVE",
"258 578 CURVE",
"267 564 OFFCURVE",
"268 527 OFFCURVE",
"255 511 CURVE",
"242 495 OFFCURVE",
"31 498 OFFCURVE",
"25 509 CURVE",
"19 520 OFFCURVE",
"18 566 OFFCURVE",
"24 579 CURVE",
"30 592 OFFCURVE",
"118 589 OFFCURVE",
"140 589 CURVE"
);
}
);
width = 285;
}
);
unicode = 012B;
},
{
glyphname = iogonek;
lastChange = "2018-03-14 15:31:09 +0000";
layers = (
{
layerId = "88C65AEA-4CF7-410E-9BC9-3A05E177EFEE";
paths = (
{
closed = 1;
nodes = (
"177 420 OFFCURVE",
"168 202 OFFCURVE",
"168 93 CURVE",
"168 48 OFFCURVE",
"172 24 OFFCURVE",
"166 12 CURVE",
"150 3 OFFCURVE",
"104 5 OFFCURVE",
"92 9 CURVE",
"81 18 OFFCURVE",
"86 63 OFFCURVE",
"86 75 CURVE",
"85 106 OFFCURVE",
"86 178 OFFCURVE",
"86 209 CURVE",
"85 293 OFFCURVE",
"82 424 OFFCURVE",
"99 436 CURVE",
"120 449 OFFCURVE",
"141 447 OFFCURVE",
"160 434 CURVE"
);
},
{
closed = 1;
nodes = (
"147 589 OFFCURVE",
"159 583 OFFCURVE",
"163 571 CURVE",
"172 557 OFFCURVE",
"173 520 OFFCURVE",
"160 504 CURVE",
"147 488 OFFCURVE",
"98 492 OFFCURVE",
"92 503 CURVE",
"86 514 OFFCURVE",
"85 560 OFFCURVE",
"91 573 CURVE",
"97 586 OFFCURVE",
"112 589 OFFCURVE",
"134 589 CURVE"
);
},
{
closed = 1;
nodes = (
"175 -9 OFFCURVE",
"103 -71 OFFCURVE",
"102 -95 CURVE SMOOTH",
"101 -116 OFFCURVE",
"109 -136 OFFCURVE",
"118 -143 CURVE SMOOTH",
"127 -150 OFFCURVE",
"199 -147 OFFCURVE",
"206 -154 CURVE SMOOTH",
"208 -156 OFFCURVE",
"207 -214 OFFCURVE",
"205 -222 CURVE SMOOTH",
"203 -229 OFFCURVE",
"105 -222 OFFCURVE",
"88 -214 CURVE SMOOTH",
"71 -206 OFFCURVE",
"60 -200 OFFCURVE",
"51 -184 CURVE SMOOTH",
"42 -168 OFFCURVE",
"36 -104 OFFCURVE",
"44 -84 CURVE SMOOTH",
"48 -74 OFFCURVE",
"63 -47 OFFCURVE",
"69 -39 CURVE SMOOTH",
"87 -14 OFFCURVE",
"89 14 OFFCURVE",
"123 14 CURVE SMOOTH",
"131 14 OFFCURVE",
"151 5 OFFCURVE",
"163 1 CURVE"
);
}
);
width = 237;
}
);
unicode = 012F;
},
{
glyphname = j;
lastChange = "2018-03-15 22:18:17 +0000";
layers = (
{
layerId = "88C65AEA-4CF7-410E-9BC9-3A05E177EFEE";
paths = (
{
closed = 1;
nodes = (
"45 445 OFFCURVE",
"103 453 OFFCURVE",
"112 425 CURVE",
"113 205 OFFCURVE",
"113 105 OFFCURVE",
"112 64 CURVE",
"112 47 OFFCURVE",
"111 30 OFFCURVE",
"111 14 CURVE",
"110 -92 OFFCURVE",
"70 -149 OFFCURVE",
"59 -164 CURVE",
"47 -180 OFFCURVE",
"-11 -222 OFFCURVE",
"-56 -222 CURVE SMOOTH",
"-84 -222 OFFCURVE",
"-86 -154 OFFCURVE",
"-58 -153 CURVE SMOOTH",
"-27 -152 OFFCURVE",
"-8 -126 OFFCURVE",
"6 -109 CURVE SMOOTH",
"20 -92 OFFCURVE",
"33 -46 OFFCURVE",
"36 18 CURVE",
"38 38 OFFCURVE",
"33 407 OFFCURVE",
"39 426 CURVE"
);
},
{
closed = 1;
nodes = (
"97 612 OFFCURVE",
"105 606 OFFCURVE",
"109 594 CURVE",
"118 580 OFFCURVE",
"119 543 OFFCURVE",
"106 527 CURVE",
"93 511 OFFCURVE",
"48 515 OFFCURVE",
"42 526 CURVE",
"36 537 OFFCURVE",
"35 583 OFFCURVE",
"41 596 CURVE",
"47 609 OFFCURVE",
"62 612 OFFCURVE",
"84 612 CURVE"
);
}
);
width = 151;
}
);
unicode = 006A;
},
{
glyphname = k;
lastChange = "2018-03-16 10:53:42 +0000";
layers = (
{
layerId = "88C65AEA-4CF7-410E-9BC9-3A05E177EFEE";
paths = (
{
closed = 1;
nodes = (
"135 690 OFFCURVE",
"112 346 OFFCURVE",
"130 331 CURVE",
"148 316 OFFCURVE",
"371 452 OFFCURVE",
"399 447 CURVE",
"428 441 OFFCURVE",
"434 436 OFFCURVE",
"426 399 CURVE",
"418 362 OFFCURVE",
"197 295 OFFCURVE",
"196 273 CURVE",
"195 251 OFFCURVE",
"429 63 OFFCURVE",
"429 31 CURVE SMOOTH",
"429 -1 OFFCURVE",
"412 0 OFFCURVE",
"375 0 CURVE",
"338 0 OFFCURVE",
"150 237 OFFCURVE",
"130 223 CURVE",
"110 210 OFFCURVE",
"140 21 OFFCURVE",
"124 9 CURVE",
"108 -3 OFFCURVE",
"78 -2 OFFCURVE",
"57 9 CURVE",
"45 76 OFFCURVE",
"36 589 OFFCURVE",
"58 705 CURVE",
"80 729 OFFCURVE",
"91 720 OFFCURVE",
"113 705 CURVE"
);
}
);
width = 454;
}
);
unicode = 006B;
},
{
glyphname = l;
lastChange = "2018-03-16 10:51:26 +0000";
layers = (
{
layerId = "88C65AEA-4CF7-410E-9BC9-3A05E177EFEE";
paths = (
{
closed = 1;
nodes = (
"116 692 OFFCURVE",
"115 273 OFFCURVE",
"116 189 CURVE",
"119 113 OFFCURVE",
"126 93 OFFCURVE",
"149 79 CURVE SMOOTH",
"185 58 OFFCURVE",
"220 77 OFFCURVE",
"236 66 CURVE",
"247 58 OFFCURVE",
"240 15 OFFCURVE",
"233 3 CURVE",
"197 0 OFFCURVE",
"162 -5 OFFCURVE",
"106 8 CURVE",
"41 32 OFFCURVE",
"46 131 OFFCURVE",
"46 185 CURVE SMOOTH",
"46 313 OFFCURVE",
"40 667 OFFCURVE",
"57 707 CURVE",
"70 721 OFFCURVE",
"93 733 OFFCURVE",
"107 708 CURVE SMOOTH"
);
}
);
width = 267;
}
);
unicode = 006C;
},
{
glyphname = lcaron;
lastChange = "2018-03-14 15:14:20 +0000";
layers = (
{
layerId = "88C65AEA-4CF7-410E-9BC9-3A05E177EFEE";
paths = (
{
closed = 1;
nodes = (
"124 666 OFFCURVE",
"116 199 OFFCURVE",
"117 190 CURVE",
"120 114 OFFCURVE",
"132 94 OFFCURVE",
"151 77 CURVE",
"211 57 OFFCURVE",
"224 74 OFFCURVE",
"240 63 CURVE",
"241 45 OFFCURVE",
"246 23 OFFCURVE",
"239 11 CURVE",
"203 -2 OFFCURVE",
"156 -5 OFFCURVE",
"100 8 CURVE",
"35 32 OFFCURVE",
"42 188 OFFCURVE",
"42 188 CURVE",
"42 188 OFFCURVE",
"34 666 OFFCURVE",
"51 706 CURVE",
"64 720 OFFCURVE",
"88 727 OFFCURVE",
"108 708 CURVE"
);
},
{
closed = 1;
nodes = (
"171 572 LINE",
"240 572 LINE",
"240 721 LINE",
"171 721 LINE"
);
}
);
width = 265;
}
);
unicode = 013E;
},
{
glyphname = lslash;
lastChange = "2018-03-16 09:27:57 +0000";
layers = (
{
layerId = "88C65AEA-4CF7-410E-9BC9-3A05E177EFEE";
paths = (
{
closed = 1;
nodes = (
"151 692 OFFCURVE",
"150 273 OFFCURVE",
"151 189 CURVE",
"154 113 OFFCURVE",
"161 93 OFFCURVE",
"184 79 CURVE SMOOTH",
"220 58 OFFCURVE",
"255 77 OFFCURVE",
"271 66 CURVE",
"282 58 OFFCURVE",
"275 15 OFFCURVE",
"268 3 CURVE",
"232 0 OFFCURVE",
"197 -5 OFFCURVE",
"141 8 CURVE",
"76 32 OFFCURVE",
"81 131 OFFCURVE",
"81 185 CURVE SMOOTH",
"81 313 OFFCURVE",
"75 667 OFFCURVE",
"92 707 CURVE",
"105 721 OFFCURVE",
"128 733 OFFCURVE",
"142 708 CURVE SMOOTH"
);
},
{
closed = 1;
nodes = (
"232 433 LINE",
"232 365 LINE",
"35 296 LINE",
"35 364 LINE"
);
}
);
width = 312;
}
);
unicode = 0142;
},
{
glyphname = m;
lastChange = "2018-03-16 10:51:42 +0000";
layers = (
{
layerId = "88C65AEA-4CF7-410E-9BC9-3A05E177EFEE";
paths = (
{
closed = 1;
nodes = (
"862 331 OFFCURVE",
"885 285 OFFCURVE",
"886 178 CURVE",
"887 72 OFFCURVE",
"886 16 OFFCURVE",
"874 8 CURVE",
"862 0 OFFCURVE",
"825 -3 OFFCURVE",
"816 3 CURVE",
"807 8 OFFCURVE",
"810 192 OFFCURVE",
"810 196 CURVE",
"808 277 OFFCURVE",
"771 325 OFFCURVE",
"771 325 CURVE",
"745 357 OFFCURVE",
"707 374 OFFCURVE",
"658 374 CURVE",
"609 374 OFFCURVE",
"572 357 OFFCURVE",
"545 325 CURVE",
"545 325 OFFCURVE",
"502 271 OFFCURVE",
"506 196 CURVE",
"503 81 OFFCURVE",
"510 27 OFFCURVE",
"498 12 CURVE",
"486 -3 OFFCURVE",
"457 -1 OFFCURVE",
"437 12 CURVE",
"430 18 OFFCURVE",
"428 20 OFFCURVE",
"425 44 CURVE",
"423 69 OFFCURVE",
"426 171 OFFCURVE",
"425 194 CURVE",
"424 248 OFFCURVE",
"406 295 OFFCURVE",
"386 323 CURVE",
"358 356 OFFCURVE",
"320 375 OFFCURVE",
"271 375 CURVE",
"271 375 OFFCURVE",
"143 378 OFFCURVE",
"128 358 CURVE",
"113 338 OFFCURVE",
"118 285 OFFCURVE",
"118 195 CURVE SMOOTH",
"118 15 OFFCURVE",
"124 15 OFFCURVE",
"107 7 CURVE",
"91 -1 OFFCURVE",
"76 -1 OFFCURVE",
"55 11 CURVE",
"34 23 OFFCURVE",
"35 415 OFFCURVE",
"56 430 CURVE",
"78 445 OFFCURVE",
"217 444 OFFCURVE",
"273 445 CURVE",
"273 445 OFFCURVE",
"386 445 OFFCURVE",
"437 377 CURVE SMOOTH",
"463 342 OFFCURVE",
"475 354 OFFCURVE",
"503 386 CURVE SMOOTH",
"527 413 OFFCURVE",
"592 444 OFFCURVE",
"668 444 CURVE SMOOTH",
"731 444 OFFCURVE",
"790 419 OFFCURVE",
"826 375 CURVE"
);
}
);
width = 916;
}
);
unicode = 006D;
},
{
glyphname = n;
lastChange = "2018-03-16 10:51:51 +0000";
layers = (
{
layerId = "88C65AEA-4CF7-410E-9BC9-3A05E177EFEE";
paths = (
{
closed = 1;
nodes = (
"339 444 OFFCURVE",
"396 418 OFFCURVE",
"438 373 CURVE",
"473 326 OFFCURVE",
"498 265 OFFCURVE",
"497 210 CURVE SMOOTH",
"495 115 OFFCURVE",
"504 19 OFFCURVE",
"489 5 CURVE",
"471 0 OFFCURVE",
"460 0 OFFCURVE",
"444 5 CURVE",
"424 18 OFFCURVE",
"426 115 OFFCURVE",
"426 207 CURVE SMOOTH",
"426 244 OFFCURVE",
"406 296 OFFCURVE",
"383 326 CURVE",
"357 358 OFFCURVE",
"299 375 OFFCURVE",
"252 375 CURVE SMOOTH",
"215 375 OFFCURVE",
"138 382 OFFCURVE",
"123 362 CURVE",
"108 342 OFFCURVE",
"108 269 OFFCURVE",
"111 194 CURVE",
"109 115 OFFCURVE",
"121 14 OFFCURVE",
"104 6 CURVE",
"88 -2 OFFCURVE",
"70 -2 OFFCURVE",
"49 10 CURVE",
"36 86 OFFCURVE",
"38 366 OFFCURVE",
"50 433 CURVE",
"72 448 OFFCURVE",
"211 443 OFFCURVE",
"267 444 CURVE"
);
}
);
width = 528;
}
);
unicode = 006E;
},
{
glyphname = eng;
lastChange = "2018-03-16 09:40:18 +0000";
layers = (
{
layerId = "88C65AEA-4CF7-410E-9BC9-3A05E177EFEE";
paths = (
{
closed = 1;
nodes = (
"31 86 OFFCURVE",
"33 366 OFFCURVE",
"45 433 CURVE",
"67 448 OFFCURVE",
"206 443 OFFCURVE",
"262 444 CURVE SMOOTH",
"334 444 OFFCURVE",
"391 418 OFFCURVE",
"433 373 CURVE",
"468 326 OFFCURVE",
"492 265 OFFCURVE",
"492 210 CURVE SMOOTH",
"492 -82 OFFCURVE",
"491 -138 OFFCURVE",
"486 -158 CURVE",
"463 -172 OFFCURVE",
"447 -174 OFFCURVE",
"416 -179 CURVE",
"379 -185 OFFCURVE",
"356 -185 OFFCURVE",
"341 -174 CURVE",
"326 -151 OFFCURVE",
"320 -144 OFFCURVE",
"341 -121 CURVE",
"378 -107 OFFCURVE",
"394 -112 OFFCURVE",
"415 -99 CURVE",
"433 -72 OFFCURVE",
"421 132 OFFCURVE",
"421 207 CURVE SMOOTH",
"421 244 OFFCURVE",
"401 296 OFFCURVE",
"378 326 CURVE SMOOTH",
"352 358 OFFCURVE",
"294 375 OFFCURVE",
"247 375 CURVE SMOOTH",
"210 375 OFFCURVE",
"133 382 OFFCURVE",
"118 362 CURVE SMOOTH",
"103 342 OFFCURVE",
"103 269 OFFCURVE",
"106 194 CURVE",
"104 115 OFFCURVE",
"116 14 OFFCURVE",
"99 6 CURVE SMOOTH",
"83 -2 OFFCURVE",
"65 -2 OFFCURVE",
"44 10 CURVE"
);
}
);
width = 527;
}
);
unicode = 014B;
},
{
glyphname = o;
lastChange = "2018-03-16 08:52:38 +0000";
layers = (
{
layerId = "88C65AEA-4CF7-410E-9BC9-3A05E177EFEE";
paths = (
{
closed = 1;
nodes = (
"224 69 OFFCURVE",
"173 69 OFFCURVE",
"154 86 CURVE",
"135 103 OFFCURVE",
"121 121 OFFCURVE",
"117 197 CURVE",
"114 272 OFFCURVE",
"157 328 OFFCURVE",
"157 328 CURVE",
"183 360 OFFCURVE",
"221 376 OFFCURVE",
"270 376 CURVE",
"319 376 OFFCURVE",
"356 360 OFFCURVE",
"382 328 CURVE",
"382 328 OFFCURVE",
"420 277 OFFCURVE",
"422 197 CURVE",
"424 116 OFFCURVE",
"418 108 OFFCURVE",
"395 87 CURVE",
"372 66 OFFCURVE",
"318 69 OFFCURVE",
"271 69 CURVE"
);
},
{
closed = 1;
nodes = (
"352 1 OFFCURVE",
"412 -3 OFFCURVE",
"454 31 CURVE",
"493 71 OFFCURVE",
"501 90 OFFCURVE",
"501 196 CURVE",
"500 303 OFFCURVE",
"442 376 OFFCURVE",
"442 376 CURVE",
"400 421 OFFCURVE",
"343 444 OFFCURVE",
"271 444 CURVE",
"196 444 OFFCURVE",
"137 422 OFFCURVE",
"94 376 CURVE",
"51 331 OFFCURVE",
"31 272 OFFCURVE",
"36 201 CURVE",
"36 201 OFFCURVE",
"46 67 OFFCURVE",
"92 30 CURVE",
"140 -2 OFFCURVE",
"187 0 OFFCURVE",
"270 1 CURVE"
);
}
);
width = 536;
}
);
unicode = 006F;
},
{
glyphname = odieresis;
lastChange = "2018-03-13 08:37:30 +0000";
layers = (
{
layerId = "88C65AEA-4CF7-410E-9BC9-3A05E177EFEE";
paths = (
{
closed = 1;
nodes = (
"219 69 OFFCURVE",
"168 69 OFFCURVE",
"149 86 CURVE",
"130 103 OFFCURVE",
"116 121 OFFCURVE",
"112 197 CURVE",
"109 272 OFFCURVE",
"152 326 OFFCURVE",
"152 326 CURVE",
"178 358 OFFCURVE",
"216 374 OFFCURVE",
"265 374 CURVE",
"314 374 OFFCURVE",
"351 358 OFFCURVE",
"377 326 CURVE",
"377 326 OFFCURVE",
"415 277 OFFCURVE",
"417 197 CURVE",
"419 116 OFFCURVE",
"413 108 OFFCURVE",
"390 87 CURVE",
"367 66 OFFCURVE",
"313 69 OFFCURVE",
"266 69 CURVE"
);
},
{
closed = 1;
nodes = (
"347 1 OFFCURVE",
"407 -3 OFFCURVE",
"449 31 CURVE",
"488 71 OFFCURVE",
"496 90 OFFCURVE",
"496 196 CURVE",
"495 303 OFFCURVE",
"437 374 OFFCURVE",
"437 374 CURVE",
"395 419 OFFCURVE",
"338 442 OFFCURVE",
"266 442 CURVE",
"191 442 OFFCURVE",
"132 420 OFFCURVE",
"89 374 CURVE",
"46 329 OFFCURVE",
"26 272 OFFCURVE",
"31 201 CURVE",
"31 201 OFFCURVE",
"41 67 OFFCURVE",
"87 30 CURVE",
"135 -2 OFFCURVE",
"182 0 OFFCURVE",
"265 1 CURVE"
);
},
{
closed = 1;
nodes = (
"144 577 OFFCURVE",
"148 517 OFFCURVE",
"155 510 CURVE SMOOTH",
"162 503 OFFCURVE",
"223 504 OFFCURVE",
"230 510 CURVE SMOOTH",
"238 517 OFFCURVE",
"239 577 OFFCURVE",
"230 586 CURVE SMOOTH",
"223 593 OFFCURVE",
"165 594 OFFCURVE",
"155 586 CURVE SMOOTH"
);
},
{
closed = 1;
nodes = (
"289 576 OFFCURVE",
"293 516 OFFCURVE",
"300 509 CURVE SMOOTH",
"307 502 OFFCURVE",
"368 503 OFFCURVE",
"375 509 CURVE SMOOTH",
"383 516 OFFCURVE",
"384 576 OFFCURVE",
"375 585 CURVE SMOOTH",
"368 592 OFFCURVE",
"310 593 OFFCURVE",
"300 585 CURVE SMOOTH"
);
}
);
width = 526;
}
);
unicode = 00F6;
},
{
glyphname = oe;
lastChange = "2018-03-14 11:52:28 +0000";
layers = (
{
layerId = "88C65AEA-4CF7-410E-9BC9-3A05E177EFEE";
paths = (
{
closed = 1;
nodes = (
"718 441 OFFCURVE",
"775 418 OFFCURVE",
"817 373 CURVE",
"830 356 OFFCURVE",
"843 346 OFFCURVE",
"849 316 CURVE",
"856 286 OFFCURVE",
"845 254 OFFCURVE",
"845 254 CURVE",
"838 241 OFFCURVE",
"827 231 OFFCURVE",
"817 220 CURVE",
"775 186 OFFCURVE",
"715 190 OFFCURVE",
"633 190 CURVE",
"588 190 OFFCURVE",
"533 185 OFFCURVE",
"490 199 CURVE",
"490 182 OFFCURVE",
"487 168 OFFCURVE",
"490 156 CURVE",
"493 136 OFFCURVE",
"502 118 OFFCURVE",
"514 101 CURVE",
"518 95 OFFCURVE",
"523 90 OFFCURVE",
"529 85 CURVE",
"548 68 OFFCURVE",
"599 68 OFFCURVE",
"646 68 CURVE",
"693 68 OFFCURVE",
"747 65 OFFCURVE",
"770 86 CURVE",
"780 95 OFFCURVE",
"781 103 OFFCURVE",
"798 119 CURVE",
"815 135 OFFCURVE",
"862 135 OFFCURVE",
"870 116 CURVE",
"877 97 OFFCURVE",
"856 58 OFFCURVE",
"829 30 CURVE",
"787 -4 OFFCURVE",
"727 0 OFFCURVE",
"645 0 CURVE",
"562 -1 OFFCURVE",
"515 -3 OFFCURVE",
"467 29 CURVE",
"463 32 OFFCURVE",
"460 36 OFFCURVE",
"457 39 CURVE",
"451 33 OFFCURVE",
"454 36 OFFCURVE",
"449 30 CURVE",
"407 -4 OFFCURVE",
"347 0 OFFCURVE",
"265 0 CURVE",
"182 -1 OFFCURVE",
"135 -3 OFFCURVE",
"87 29 CURVE",
"41 66 OFFCURVE",
"31 200 OFFCURVE",
"31 200 CURVE",
"26 271 OFFCURVE",
"46 328 OFFCURVE",
"89 373 CURVE",
"89 373 OFFCURVE",
"158 441 OFFCURVE",
"266 441 CURVE",
"375 441 OFFCURVE",
"398 405 OFFCURVE",
"417 386 CURVE SMOOTH",
"426 377 OFFCURVE",
"447 347 OFFCURVE",
"461 346 CURVE",
"475 345 OFFCURVE",
"479 364 OFFCURVE",
"493 382 CURVE SMOOTH",
"525 421 OFFCURVE",
"599 441 OFFCURVE",
"646 441 CURVE",
"694 441 OFFCURVE",
"646 441 OFFCURVE",
"646 441 CURVE"
);
},
{
closed = 1;
nodes = (
"216 373 OFFCURVE",
"178 357 OFFCURVE",
"152 325 CURVE",
"152 325 OFFCURVE",
"109 271 OFFCURVE",
"112 196 CURVE",
"116 120 OFFCURVE",
"130 102 OFFCURVE",
"149 85 CURVE",
"168 68 OFFCURVE",
"219 68 OFFCURVE",
"266 68 CURVE",
"313 68 OFFCURVE",
"370 65 OFFCURVE",
"393 86 CURVE",
"401 94 OFFCURVE",
"409 101 OFFCURVE",
"413 111 CURVE",
"429 150 OFFCURVE",
"431 173 OFFCURVE",
"430 213 CURVE",
"429 248 OFFCURVE",
"416 290 OFFCURVE",
"399 313 CURVE",
"360 353 OFFCURVE",
"314 373 OFFCURVE",
"265 373 CURVE"
);
},
{
closed = 1;
nodes = (
"607 373 OFFCURVE",
"575 361 OFFCURVE",
"548 340 CURVE",
"527 324 OFFCURVE",
"499 299 OFFCURVE",
"506 276 CURVE",
"513 264 OFFCURVE",
"587 258 OFFCURVE",
"634 258 CURVE",
"681 258 OFFCURVE",
"738 252 OFFCURVE",
"758 276 CURVE",
"778 299 OFFCURVE",
"764 315 OFFCURVE",
"758 325 CURVE",
"732 356 OFFCURVE",
"698 368 OFFCURVE",
"659 372 CURVE",
"659 372 LINE",
"656 373 LINE",
"650 373 OFFCURVE",
"653 373 OFFCURVE",
"645 373 CURVE",
"645 373 LINE",
"653 373 OFFCURVE",
"650 373 OFFCURVE",
"656 373 CURVE",
"659 372 LINE",
"659 372 LINE",
"659 372 LINE",
"659 372 LINE",
"650 373 OFFCURVE",
"654 373 OFFCURVE",
"645 373 CURVE",
"645 373 LINE",
"641 373 LINE"
);
}
);
width = 901;
}
);
unicode = 0153;
},
{
glyphname = p;
lastChange = "2018-03-16 10:52:06 +0000";
layers = (
{
layerId = "88C65AEA-4CF7-410E-9BC9-3A05E177EFEE";
paths = (
{
closed = 1;
nodes = (
"352 445 OFFCURVE",
"406 423 OFFCURVE",
"449 378 CURVE",
"491 320 OFFCURVE",
"512 256 OFFCURVE",
"512 186 CURVE",
"512 186 OFFCURVE",
"517 72 OFFCURVE",
"471 35 CURVE",
"423 3 OFFCURVE",
"369 -1 OFFCURVE",
"286 0 CURVE",
"171 1 OFFCURVE",
"145 3 OFFCURVE",
"133 -10 CURVE",
"121 -23 OFFCURVE",
"131 -225 OFFCURVE",
"118 -239 CURVE",
"105 -253 OFFCURVE",
"63 -250 OFFCURVE",
"51 -239 CURVE",
"38 -228 OFFCURVE",
"47 416 OFFCURVE",
"65 432 CURVE",
"83 448 OFFCURVE",
"288 442 OFFCURVE",
"288 442 CURVE"
);
},
{
closed = 1;
nodes = (
"289 374 OFFCURVE",
"163 377 OFFCURVE",
"143 353 CURVE",
"123 329 OFFCURVE",
"131 289 OFFCURVE",
"129 208 CURVE",
"126 127 OFFCURVE",
"132 105 OFFCURVE",
"156 84 CURVE",
"169 73 OFFCURVE",
"242 69 OFFCURVE",
"289 69 CURVE",
"336 69 OFFCURVE",
"389 69 OFFCURVE",
"408 86 CURVE",
"427 103 OFFCURVE",
"433 130 OFFCURVE",
"434 197 CURVE",
"435 272 OFFCURVE",
"400 320 OFFCURVE",
"400 320 CURVE",
"375 356 OFFCURVE",
"339 374 OFFCURVE",
"289 374 CURVE"
);
}
);
width = 537;
}
);
unicode = 0070;
},
{
glyphname = thorn;
lastChange = "2018-03-14 11:59:11 +0000";
layers = (
{
layerId = "88C65AEA-4CF7-410E-9BC9-3A05E177EFEE";
paths = (
{
closed = 1;
nodes = (
"277 373 OFFCURVE",
"151 376 OFFCURVE",
"131 352 CURVE",
"111 328 OFFCURVE",
"119 288 OFFCURVE",
"117 207 CURVE",
"114 126 OFFCURVE",
"120 104 OFFCURVE",
"144 83 CURVE",
"157 72 OFFCURVE",
"230 68 OFFCURVE",
"277 68 CURVE",
"324 68 OFFCURVE",
"377 68 OFFCURVE",
"396 85 CURVE",
"415 102 OFFCURVE",
"421 129 OFFCURVE",
"422 196 CURVE",
"423 271 OFFCURVE",
"388 319 OFFCURVE",
"388 319 CURVE",
"363 355 OFFCURVE",
"327 373 OFFCURVE",
"277 373 CURVE"
);
},
{
closed = 1;
nodes = (
"32 -92 OFFCURVE",
"47 578 OFFCURVE",
"56 613 CURVE",
"85 623 OFFCURVE",
"104 623 OFFCURVE",
"124 613 CURVE",
"139 594 OFFCURVE",
"122 468 OFFCURVE",
"134 445 CURVE",
"145 425 OFFCURVE",
"278 442 OFFCURVE",
"278 442 CURVE",
"342 445 OFFCURVE",
"396 423 OFFCURVE",
"439 378 CURVE",
"481 320 OFFCURVE",
"502 256 OFFCURVE",
"502 186 CURVE",
"502 186 OFFCURVE",
"507 72 OFFCURVE",
"461 35 CURVE",
"413 3 OFFCURVE",
"359 -1 OFFCURVE",
"276 0 CURVE SMOOTH",
"161 1 OFFCURVE",
"135 3 OFFCURVE",
"123 -10 CURVE SMOOTH",
"111 -23 OFFCURVE",
"121 -198 OFFCURVE",
"108 -212 CURVE SMOOTH",
"95 -226 OFFCURVE",
"54 -232 OFFCURVE",
"45 -209 CURVE"
);
}
);
width = 532;
}
);
unicode = 00FE;
},
{
glyphname = q;
lastChange = "2018-03-16 10:52:28 +0000";
layers = (
{
layerId = "88C65AEA-4CF7-410E-9BC9-3A05E177EFEE";
paths = (
{
closed = 1;
nodes = (
"309 443 OFFCURVE",
"461 452 OFFCURVE",
"479 436 CURVE",
"489 382 OFFCURVE",
"499 -167 OFFCURVE",
"486 -244 CURVE",
"459 -254 OFFCURVE",
"440 -254 OFFCURVE",
"427 -240 CURVE",
"414 -226 OFFCURVE",
"424 -19 OFFCURVE",
"412 -6 CURVE",
"400 7 OFFCURVE",
"364 1 OFFCURVE",
"249 0 CURVE",
"166 -1 OFFCURVE",
"116 2 OFFCURVE",
"68 34 CURVE",
"22 71 OFFCURVE",
"25 160 OFFCURVE",
"25 195 CURVE SMOOTH",
"25 259 OFFCURVE",
"47 316 OFFCURVE",
"89 374 CURVE",
"132 419 OFFCURVE",
"183 443 OFFCURVE",
"247 443 CURVE SMOOTH"
);
},
{
closed = 1;
nodes = (
"203 379 OFFCURVE",
"160 355 OFFCURVE",
"135 319 CURVE",
"135 319 OFFCURVE",
"100 271 OFFCURVE",
"101 196 CURVE",
"102 129 OFFCURVE",
"111 102 OFFCURVE",
"130 85 CURVE",
"149 68 OFFCURVE",
"199 68 OFFCURVE",
"246 68 CURVE",
"293 68 OFFCURVE",
"378 72 OFFCURVE",
"391 83 CURVE",
"415 104 OFFCURVE",
"421 126 OFFCURVE",
"418 207 CURVE",
"416 301 OFFCURVE",
"425 341 OFFCURVE",
"405 365 CURVE",
"385 389 OFFCURVE",
"303 379 OFFCURVE",
"253 379 CURVE SMOOTH"
);
}
);
width = 537;
}
);
unicode = 0071;
},
{
glyphname = r;
lastChange = "2018-03-16 10:52:19 +0000";
layers = (
{
layerId = "88C65AEA-4CF7-410E-9BC9-3A05E177EFEE";
paths = (
{
closed = 1;
nodes = (
"359 444 OFFCURVE",
"449 420 OFFCURVE",
"460 401 CURVE",
"471 389 OFFCURVE",
"459 362 OFFCURVE",
"440 349 CURVE",
"421 336 OFFCURVE",
"369 374 OFFCURVE",
"279 374 CURVE SMOOTH",
"189 374 OFFCURVE",
"131 356 OFFCURVE",
"121 336 CURVE",
"111 316 OFFCURVE",
"121 29 OFFCURVE",
"110 4 CURVE",
"98 -1 OFFCURVE",
"78 -1 OFFCURVE",
"58 4 CURVE",
"38 49 OFFCURVE",
"43 360 OFFCURVE",
"61 404 CURVE",
"79 424 OFFCURVE",
"202 446 OFFCURVE",
"280 445 CURVE"
);
}
);
width = 489;
}
);
unicode = 0072;
},
{
glyphname = s;
lastChange = "2018-03-16 10:59:35 +0000";
layers = (
{
layerId = "88C65AEA-4CF7-410E-9BC9-3A05E177EFEE";
paths = (
{
closed = 1;
nodes = (
"76 113 OFFCURVE",
"69 130 OFFCURVE",
"36 109 CURVE",
"19 96 OFFCURVE",
"40 65 OFFCURVE",
"51 48 CURVE",
"62 31 OFFCURVE",
"76 14 OFFCURVE",
"107 8 CURVE",
"138 2 OFFCURVE",
"234 1 OFFCURVE",
"234 1 CURVE",
"234 1 OFFCURVE",
"341 -1 OFFCURVE",
"373 15 CURVE",
"405 31 OFFCURVE",
"424 71 OFFCURVE",
"429 98 CURVE",
"434 124 OFFCURVE",
"418 160 OFFCURVE",
"418 160 CURVE",
"410 175 OFFCURVE",
"398 188 OFFCURVE",
"384 198 CURVE",
"355 217 OFFCURVE",
"322 226 OFFCURVE",
"280 237 CURVE",
"232 248 OFFCURVE",
"195 256 OFFCURVE",
"177 263 CURVE",
"177 263 OFFCURVE",
"120 281 OFFCURVE",
"122 318 CURVE",
"124 379 OFFCURVE",
"207 376 OFFCURVE",
"227 377 CURVE",
"251 377 OFFCURVE",
"289 374 OFFCURVE",
"316 360 CURVE",
"343 346 OFFCURVE",
"363 318 OFFCURVE",
"382 312 CURVE",
"401 306 OFFCURVE",
"418 308 OFFCURVE",
"435 319 CURVE",
"451 336 OFFCURVE",
"399 394 OFFCURVE",
"344 422 CURVE",
"310 439 OFFCURVE",
"262 445 OFFCURVE",
"220 444 CURVE",
"178 443 OFFCURVE",
"134 432 OFFCURVE",
"103 413 CURVE",
"72 394 OFFCURVE",
"48 357 OFFCURVE",
"47 312 CURVE",
"46 267 OFFCURVE",
"80 229 OFFCURVE",
"126 208 CURVE",
"183 181 OFFCURVE",
"298 168 OFFCURVE",
"327 147 CURVE",
"344 135 OFFCURVE",
"364 121 OFFCURVE",
"352 93 CURVE SMOOTH",
"333 48 OFFCURVE",
"241 65 OFFCURVE",
"171 65 CURVE SMOOTH",
"123 65 OFFCURVE",
"112 84 OFFCURVE",
"94 98 CURVE"
);
}
);
width = 468;
}
);
unicode = 0073;
},
{
glyphname = germandbls;
lastChange = "2018-03-14 09:26:13 +0000";
layers = (
{
layerId = "88C65AEA-4CF7-410E-9BC9-3A05E177EFEE";
paths = (
{
closed = 1;
nodes = (
"44 16 OFFCURVE",
"22 453 OFFCURVE",
"81 525 CURVE SMOOTH",
"126 580 OFFCURVE",
"185 618 OFFCURVE",
"288 614 CURVE SMOOTH",
"391 610 OFFCURVE",
"439 531 OFFCURVE",
"439 449 CURVE SMOOTH",
"439 367 OFFCURVE",
"376 328 OFFCURVE",
"375 314 CURVE SMOOTH",
"374 301 OFFCURVE",
"466 265 OFFCURVE",
"464 171 CURVE SMOOTH",
"462 77 OFFCURVE",
"379 2 OFFCURVE",
"283 2 CURVE SMOOTH",
"283 2 OFFCURVE",
"219 1 OFFCURVE",
"178 1 CURVE",
"178 70 LINE",
"216 70 OFFCURVE",
"281 72 OFFCURVE",
"281 72 CURVE",
"336 76 OFFCURVE",
"388 114 OFFCURVE",
"389 170 CURVE SMOOTH",
"390 225 OFFCURVE",
"342 272 OFFCURVE",
"266 272 CURVE SMOOTH",
"244 272 OFFCURVE",
"196 272 OFFCURVE",
"176 273 CURVE",
"178 340 LINE",
"200 340 OFFCURVE",
"249 340 OFFCURVE",
"265 341 CURVE",
"316 342 OFFCURVE",
"365 373 OFFCURVE",
"368 436 CURVE SMOOTH",
"373 537 OFFCURVE",
"318 541 OFFCURVE",
"286 547 CURVE SMOOTH",
"254 553 OFFCURVE",
"207 544 OFFCURVE",
"154 503 CURVE SMOOTH",
"79 445 OFFCURVE",
"131 -11 OFFCURVE",
"107 -33 CURVE SMOOTH",
"66 -71 OFFCURVE",
"44 -42 OFFCURVE",
"44 -18 CURVE SMOOTH"
);
}
);
width = 494;
}
);
unicode = 00DF;
},
{
glyphname = t;
lastChange = "2018-03-16 08:45:16 +0000";
layers = (
{
layerId = "88C65AEA-4CF7-410E-9BC9-3A05E177EFEE";
paths = (
{
closed = 1;
nodes = (
"209 594 OFFCURVE",
"197 464 OFFCURVE",
"207 450 CURVE",
"216 437 OFFCURVE",
"298 454 OFFCURVE",
"313 436 CURVE",
"328 419 OFFCURVE",
"318 388 OFFCURVE",
"307 377 CURVE",
"296 366 OFFCURVE",
"224 380 OFFCURVE",
"210 368 CURVE",
"196 356 OFFCURVE",
"202 281 OFFCURVE",
"202 218 CURVE SMOOTH",
"202 142 OFFCURVE",
"219 107 OFFCURVE",
"238 90 CURVE",
"257 73 OFFCURVE",
"314 73 OFFCURVE",
"361 73 CURVE",
"408 73 OFFCURVE",
"408 69 OFFCURVE",
"413 65 CURVE",
"426 56 OFFCURVE",
"424 17 OFFCURVE",
"415 8 CURVE",
"406 0 OFFCURVE",
"378 1 OFFCURVE",
"360 1 CURVE",
"277 0 OFFCURVE",
"230 -2 OFFCURVE",
"182 30 CURVE",
"160 50 OFFCURVE",
"147 68 OFFCURVE",
"139 96 CURVE",
"133 122 OFFCURVE",
"129 159 OFFCURVE",
"128 182 CURVE",
"128 182 OFFCURVE",
"132 360 OFFCURVE",
"123 368 CURVE",
"113 376 OFFCURVE",
"58 364 OFFCURVE",
"46 375 CURVE",
"34 386 OFFCURVE",
"31 428 OFFCURVE",
"43 441 CURVE",
"55 455 OFFCURVE",
"112 436 OFFCURVE",
"126 454 CURVE",
"139 473 OFFCURVE",
"122 595 OFFCURVE",
"134 607 CURVE",
"145 619 OFFCURVE",
"186 614 OFFCURVE",
"198 604 CURVE"
);
}
);
width = 457;
}
);
unicode = 0074;
},
{
glyphname = tcaron;
lastChange = "2018-03-14 15:32:13 +0000";
layers = (
{
layerId = "88C65AEA-4CF7-410E-9BC9-3A05E177EFEE";
paths = (
{
closed = 1;
nodes = (
"197 593 OFFCURVE",
"185 464 OFFCURVE",
"195 450 CURVE",
"204 437 OFFCURVE",
"283 455 OFFCURVE",
"298 437 CURVE",
"313 420 OFFCURVE",
"303 398 OFFCURVE",
"292 387 CURVE",
"281 376 OFFCURVE",
"209 390 OFFCURVE",
"195 378 CURVE",
"181 366 OFFCURVE",
"193 196 OFFCURVE",
"193 196 CURVE",
"196 120 OFFCURVE",
"204 102 OFFCURVE",
"223 85 CURVE",
"242 68 OFFCURVE",
"299 68 OFFCURVE",
"346 68 CURVE",
"393 68 OFFCURVE",
"393 64 OFFCURVE",
"398 60 CURVE",
"411 51 OFFCURVE",
"409 16 OFFCURVE",
"400 7 CURVE",
"391 -1 OFFCURVE",
"363 0 OFFCURVE",
"345 0 CURVE",
"262 -1 OFFCURVE",
"215 -3 OFFCURVE",
"167 29 CURVE",
"145 49 OFFCURVE",
"132 67 OFFCURVE",
"124 95 CURVE",
"118 121 OFFCURVE",
"118 157 OFFCURVE",
"117 180 CURVE",
"117 180 OFFCURVE",
"117 370 OFFCURVE",
"108 378 CURVE",
"98 386 OFFCURVE",
"43 376 OFFCURVE",
"31 387 CURVE",
"19 398 OFFCURVE",
"16 427 OFFCURVE",
"28 440 CURVE",
"40 454 OFFCURVE",
"97 435 OFFCURVE",
"111 453 CURVE",
"124 472 OFFCURVE",
"107 594 OFFCURVE",
"119 606 CURVE",
"130 618 OFFCURVE",
"174 613 OFFCURVE",
"186 603 CURVE"
);
},
{
closed = 1;
nodes = (
"224 529 LINE",
"295 529 LINE",
"295 664 LINE",
"224 664 LINE"
);
}
);
width = 427;
}
);
unicode = 0165;
},
{
glyphname = u;
lastChange = "2018-03-16 10:59:04 +0000";
layers = (
{
layerId = "88C65AEA-4CF7-410E-9BC9-3A05E177EFEE";
paths = (
{
closed = 1;
nodes = (
"126 422 OFFCURVE",
"122 215 OFFCURVE",
"122 207 CURVE",
"125 132 OFFCURVE",
"135 106 OFFCURVE",
"154 89 CURVE",
"173 72 OFFCURVE",
"229 70 OFFCURVE",
"276 70 CURVE",
"323 70 OFFCURVE",
"403 65 OFFCURVE",
"418 80 CURVE",
"433 95 OFFCURVE",
"430 142 OFFCURVE",
"428 222 CURVE",
"428 222 OFFCURVE",
"422 427 OFFCURVE",
"431 436 CURVE",
"440 445 OFFCURVE",
"495 449 OFFCURVE",
"502 437 CURVE",
"510 424 OFFCURVE",
"511 24 OFFCURVE",
"499 11 CURVE",
"487 -2 OFFCURVE",
"259 0 OFFCURVE",
"238 0 CURVE",
"155 -1 OFFCURVE",
"139 5 OFFCURVE",
"91 37 CURVE",
"45 74 OFFCURVE",
"40 206 OFFCURVE",
"40 206 CURVE",
"40 206 OFFCURVE",
"38 420 OFFCURVE",
"50 435 CURVE",
"62 451 OFFCURVE",
"108 449 OFFCURVE",
"117 435 CURVE"
);
}
);
width = 548;
}
);
unicode = 0075;
},
{
glyphname = uacute;
lastChange = "2018-03-13 17:52:20 +0000";
layers = (
{
layerId = "88C65AEA-4CF7-410E-9BC9-3A05E177EFEE";
paths = (
{
closed = 1;
nodes = (
"319 656 OFFCURVE",
"378 652 OFFCURVE",
"386 642 CURVE",
"394 632 OFFCURVE",
"248 503 OFFCURVE",
"233 494 CURVE",
"217 485 OFFCURVE",
"170 484 OFFCURVE",
"153 492 CURVE",
"137 500 OFFCURVE",
"300 630 OFFCURVE",
"309 643 CURVE"
);
},
{
closed = 1;
nodes = (
"126 422 OFFCURVE",
"122 215 OFFCURVE",
"122 207 CURVE",
"125 132 OFFCURVE",
"135 106 OFFCURVE",
"154 89 CURVE",
"173 72 OFFCURVE",
"229 70 OFFCURVE",
"276 70 CURVE",
"323 70 OFFCURVE",
"403 65 OFFCURVE",
"418 80 CURVE",
"433 95 OFFCURVE",
"430 142 OFFCURVE",
"428 222 CURVE",
"428 222 OFFCURVE",
"422 427 OFFCURVE",
"431 436 CURVE",
"440 445 OFFCURVE",
"495 449 OFFCURVE",
"502 437 CURVE",
"510 424 OFFCURVE",
"511 24 OFFCURVE",
"499 11 CURVE",
"487 -2 OFFCURVE",
"259 0 OFFCURVE",
"238 0 CURVE",
"155 -1 OFFCURVE",
"139 5 OFFCURVE",
"91 37 CURVE",
"45 74 OFFCURVE",
"40 206 OFFCURVE",
"40 206 CURVE",
"40 206 OFFCURVE",
"38 420 OFFCURVE",
"50 435 CURVE",
"62 451 OFFCURVE",
"108 449 OFFCURVE",
"117 435 CURVE"
);
}
);
width = 548;
}
);
unicode = 00FA;
},
{
glyphname = v;
lastChange = "2018-03-16 10:59:44 +0000";
layers = (
{
layerId = "88C65AEA-4CF7-410E-9BC9-3A05E177EFEE";
paths = (
{
closed = 1;
nodes = (
"209 20 OFFCURVE",
"27 402 OFFCURVE",
"30 417 CURVE",
"32 432 OFFCURVE",
"62 449 OFFCURVE",
"82 442 CURVE",
"101 434 OFFCURVE",
"245 91 OFFCURVE",
"268 91 CURVE",
"291 91 OFFCURVE",
"420 437 OFFCURVE",
"444 443 CURVE",
"467 448 OFFCURVE",
"495 437 OFFCURVE",
"497 420 CURVE",
"498 402 OFFCURVE",
"326 24 OFFCURVE",
"303 10 CURVE",
"279 -5 OFFCURVE",
"245 0 OFFCURVE",
"227 10 CURVE"
);
}
);
width = 527;
}
);
unicode = 0076;
},
{
glyphname = w;
lastChange = "2018-03-16 08:42:12 +0000";
layers = (
{
layerId = "88C65AEA-4CF7-410E-9BC9-3A05E177EFEE";
paths = (
{
closed = 1;
nodes = (
"35 206 OFFCURVE",
"33 420 OFFCURVE",
"45 435 CURVE SMOOTH",
"57 451 OFFCURVE",
"103 449 OFFCURVE",
"112 435 CURVE SMOOTH",
"121 422 OFFCURVE",
"117 215 OFFCURVE",
"117 207 CURVE",
"120 132 OFFCURVE",
"130 106 OFFCURVE",
"149 89 CURVE SMOOTH",
"168 72 OFFCURVE",
"224 70 OFFCURVE",
"271 70 CURVE SMOOTH",
"318 70 OFFCURVE",
"368 65 OFFCURVE",
"383 80 CURVE SMOOTH",
"387 84 OFFCURVE",
"390 91 OFFCURVE",
"392 100 CURVE",
"390 174 OFFCURVE",
"389 278 OFFCURVE",
"391 351 CURVE SMOOTH",
"391 392 OFFCURVE",
"392 427 OFFCURVE",
"395 435 CURVE",
"396 437 LINE",
"400 443 OFFCURVE",
"415 445 OFFCURVE",
"432 444 CURVE",
"448 445 OFFCURVE",
"463 443 OFFCURVE",
"467 437 CURVE",
"468 435 LINE",
"471 427 OFFCURVE",
"472 392 OFFCURVE",
"472 351 CURVE SMOOTH",
"474 278 OFFCURVE",
"473 174 OFFCURVE",
"471 100 CURVE",
"473 91 OFFCURVE",
"476 84 OFFCURVE",
"480 80 CURVE SMOOTH",
"495 65 OFFCURVE",
"559 70 OFFCURVE",
"606 70 CURVE SMOOTH",
"639 70 OFFCURVE",
"695 72 OFFCURVE",
"714 89 CURVE SMOOTH",
"733 106 OFFCURVE",
"743 132 OFFCURVE",
"746 207 CURVE",
"746 215 OFFCURVE",
"742 422 OFFCURVE",
"751 435 CURVE SMOOTH",
"760 449 OFFCURVE",
"806 451 OFFCURVE",
"818 435 CURVE SMOOTH",
"830 420 OFFCURVE",
"828 206 OFFCURVE",
"828 206 CURVE SMOOTH",
"828 206 OFFCURVE",
"823 74 OFFCURVE",
"777 37 CURVE",
"729 5 OFFCURVE",
"713 0 OFFCURVE",
"630 0 CURVE SMOOTH",
"613 0 OFFCURVE",
"498 -1 OFFCURVE",
"432 5 CURVE",
"365 -1 OFFCURVE",
"250 0 OFFCURVE",
"233 0 CURVE SMOOTH",
"150 0 OFFCURVE",
"134 5 OFFCURVE",
"86 37 CURVE",
"40 74 OFFCURVE",
"35 206 OFFCURVE",
"35 206 CURVE SMOOTH"
);
}
);
width = 863;
}
);
unicode = 0077;
},
{
glyphname = x;
lastChange = "2018-03-16 08:42:01 +0000";
layers = (
{
layerId = "88C65AEA-4CF7-410E-9BC9-3A05E177EFEE";
paths = (
{
closed = 1;
nodes = (
"99 444 OFFCURVE",
"223 277 OFFCURVE",
"256 277 CURVE",
"288 276 OFFCURVE",
"413 443 OFFCURVE",
"435 444 CURVE",
"456 444 OFFCURVE",
"477 411 OFFCURVE",
"479 398 CURVE",
"480 384 OFFCURVE",
"313 238 OFFCURVE",
"313 216 CURVE",
"312 193 OFFCURVE",
"461 65 OFFCURVE",
"461 48 CURVE",
"460 30 OFFCURVE",
"428 0 OFFCURVE",
"412 1 CURVE",
"395 1 OFFCURVE",
"276 158 OFFCURVE",
"253 159 CURVE",
"229 161 OFFCURVE",
"113 -5 OFFCURVE",
"94 2 CURVE",
"74 8 OFFCURVE",
"50 29 OFFCURVE",
"50 46 CURVE",
"49 62 OFFCURVE",
"197 195 OFFCURVE",
"199 219 CURVE",
"200 242 OFFCURVE",
"34 376 OFFCURVE",
"35 398 CURVE",
"35 419 OFFCURVE",
"62 443 OFFCURVE",
"81 444 CURVE"
);
}
);
width = 514;
}
);
unicode = 0078;
},
{
glyphname = y;
lastChange = "2018-03-15 22:25:21 +0000";
layers = (
{
layerId = "88C65AEA-4CF7-410E-9BC9-3A05E177EFEE";
paths = (
{
closed = 1;
nodes = (
"135 416 OFFCURVE",
"114 236 OFFCURVE",
"112 194 CURVE",
"110 152 OFFCURVE",
"129 101 OFFCURVE",
"148 84 CURVE",
"167 67 OFFCURVE",
"218 67 OFFCURVE",
"265 67 CURVE",
"312 67 OFFCURVE",
"366 64 OFFCURVE",
"389 85 CURVE",
"397 92 OFFCURVE",
"405 100 OFFCURVE",
"410 110 CURVE",
"418 127 OFFCURVE",
"417 151 OFFCURVE",
"417 170 CURVE",
"417 170 OFFCURVE",
"401 416 OFFCURVE",
"422 432 CURVE",
"443 448 OFFCURVE",
"473 447 OFFCURVE",
"489 431 CURVE",
"506 415 OFFCURVE",
"497 170 OFFCURVE",
"497 170 CURVE",
"496 170 LINE",
"496 29 OFFCURVE",
"495 12 OFFCURVE",
"495 -4 CURVE",
"494 -111 OFFCURVE",
"436 -182 OFFCURVE",
"436 -182 CURVE",
"394 -227 OFFCURVE",
"337 -250 OFFCURVE",
"266 -250 CURVE",
"190 -250 OFFCURVE",
"131 -227 OFFCURVE",
"88 -182 CURVE",
"53 -145 OFFCURVE",
"46 -79 OFFCURVE",
"56 -62 CURVE",
"66 -45 OFFCURVE",
"103 -49 OFFCURVE",
"118 -61 CURVE",
"133 -73 OFFCURVE",
"133 -110 OFFCURVE",
"151 -133 CURVE",
"177 -166 OFFCURVE",
"215 -182 OFFCURVE",
"264 -182 CURVE",
"313 -182 OFFCURVE",
"350 -166 OFFCURVE",
"377 -133 CURVE",
"394 -110 OFFCURVE",
"403 -82 OFFCURVE",
"410 -54 CURVE",
"421 0 LINE",
"307 -2 OFFCURVE",
"286 -1 OFFCURVE",
"264 -1 CURVE",
"181 -2 OFFCURVE",
"134 -4 OFFCURVE",
"86 28 CURVE",
"40 65 OFFCURVE",
"37 136 OFFCURVE",
"35 196 CURVE",
"33 256 OFFCURVE",
"41 410 OFFCURVE",
"61 430 CURVE",
"81 450 OFFCURVE",
"105 444 OFFCURVE",
"120 430 CURVE"
);
}
);
width = 534;
}
);
unicode = 0079;
},
{
glyphname = z;
lastChange = "2018-03-16 08:40:11 +0000";
layers = (
{
layerId = "88C65AEA-4CF7-410E-9BC9-3A05E177EFEE";
paths = (
{
closed = 1;
nodes = (
"487 425 OFFCURVE",
"482 391 OFFCURVE",
"470 376 CURVE",
"444 331 OFFCURVE",
"156 123 OFFCURVE",
"181 84 CURVE",
"195 63 OFFCURVE",
"470 93 OFFCURVE",
"481 74 CURVE",
"491 56 OFFCURVE",
"500 31 OFFCURVE",
"480 13 CURVE",
"459 -5 OFFCURVE",
"63 -2 OFFCURVE",
"51 10 CURVE",
"38 23 OFFCURVE",
"43 61 OFFCURVE",
"54 81 CURVE",
"65 101 OFFCURVE",
"361 345 OFFCURVE",
"349 368 CURVE",
"337 390 OFFCURVE",
"56 358 OFFCURVE",
"45 373 CURVE",
"33 388 OFFCURVE",
"32 422 OFFCURVE",
"43 436 CURVE",
"55 450 OFFCURVE",
"466 447 OFFCURVE",
"477 435 CURVE"
);
},
{
closed = 0;
nodes = (
"464 362 LINE"
);
}
);
width = 527;
}
);
unicode = 007A;
},
{
glyphname = zero;
lastChange = "2018-03-08 18:54:55 +0000";
layers = (
{
layerId = "88C65AEA-4CF7-410E-9BC9-3A05E177EFEE";
paths = (
{
closed = 1;
nodes = (
"471 614 OFFCURVE",
"595 445 OFFCURVE",
"595 237 CURVE",
"595 28 OFFCURVE",
"523 0 OFFCURVE",
"370 0 CURVE",
"264 0 LINE",
"111 0 OFFCURVE",
"40 32 OFFCURVE",
"40 241 CURVE",
"40 449 OFFCURVE",
"164 614 OFFCURVE",
"318 614 CURVE"
);
},
{
closed = 1;
nodes = (
"174 539 OFFCURVE",
"116 347 OFFCURVE",
"115 240 CURVE",
"114 61 OFFCURVE",
"204 68 OFFCURVE",
"263 68 CURVE",
"364 68 LINE",
"461 69 OFFCURVE",
"520 68 OFFCURVE",
"519 240 CURVE",
"518 382 OFFCURVE",
"455 539 OFFCURVE",
"317 539 CURVE"
);
}
);
width = 635;
}
);
unicode = 0030;
},
{
glyphname = one;
lastChange = "2018-03-17 16:28:37 +0000";
layers = (
{
layerId = "88C65AEA-4CF7-410E-9BC9-3A05E177EFEE";
paths = (
{
closed = 1;
nodes = (
"241 593 OFFCURVE",
"228 89 OFFCURVE",
"238 76 CURVE",
"247 63 OFFCURVE",
"316 77 OFFCURVE",
"326 64 CURVE",
"336 51 OFFCURVE",
"337 19 OFFCURVE",
"325 8 CURVE",
"313 -3 OFFCURVE",
"78 -1 OFFCURVE",
"67 6 CURVE",
"56 13 OFFCURVE",
"57 55 OFFCURVE",
"67 65 CURVE",
"77 75 OFFCURVE",
"141 63 OFFCURVE",
"154 74 CURVE",
"166 85 OFFCURVE",
"164 510 OFFCURVE",
"153 521 CURVE",
"141 533 OFFCURVE",
"79 469 OFFCURVE",
"63 469 CURVE",
"46 470 OFFCURVE",
"30 498 OFFCURVE",
"30 515 CURVE",
"30 533 OFFCURVE",
"145 609 OFFCURVE",
"161 612 CURVE",
"178 615 OFFCURVE",
"220 617 OFFCURVE",
"231 605 CURVE"
);
}
);
width = 364;
}
);
unicode = 0031;
},
{
glyphname = two;
lastChange = "2018-03-16 21:40:10 +0000";
layers = (
{
layerId = "88C65AEA-4CF7-410E-9BC9-3A05E177EFEE";
paths = (
{
closed = 1;
nodes = (
"39 391 OFFCURVE",
"83 386 OFFCURVE",
"98 392 CURVE",
"98 392 OFFCURVE",
"135 463 OFFCURVE",
"162 490 CURVE",
"189 517 OFFCURVE",
"241 541 OFFCURVE",
"274 541 CURVE",
"307 541 OFFCURVE",
"342 533 OFFCURVE",
"367 507 CURVE",
"393 481 OFFCURVE",
"414 445 OFFCURVE",
"412 415 CURVE",
"410 385 OFFCURVE",
"397 357 OFFCURVE",
"360 324 CURVE",
"323 291 OFFCURVE",
"142 186 OFFCURVE",
"142 186 CURVE",
"99 161 OFFCURVE",
"72 134 OFFCURVE",
"60 105 CURVE",
"60 105 OFFCURVE",
"25 49 OFFCURVE",
"45 20 CURVE",
"64 -8 OFFCURVE",
"473 -1 OFFCURVE",
"487 10 CURVE",
"501 21 OFFCURVE",
"510 49 OFFCURVE",
"492 66 CURVE",
"474 84 OFFCURVE",
"153 51 OFFCURVE",
"141 79 CURVE",
"130 106 OFFCURVE",
"389 241 OFFCURVE",
"389 241 CURVE",
"389 241 OFFCURVE",
"424 260 OFFCURVE",
"447 290 CURVE",
"469 320 OFFCURVE",
"495 366 OFFCURVE",
"494 416 CURVE",
"493 466 OFFCURVE",
"463 516 OFFCURVE",
"433 545 CURVE",
"403 574 OFFCURVE",
"346 613 OFFCURVE",
"279 614 CURVE",
"212 614 OFFCURVE",
"152 584 OFFCURVE",
"111 544 CURVE",
"69 505 OFFCURVE",
"23 425 OFFCURVE",
"31 408 CURVE"
);
}
);
width = 532;
}
);
unicode = 0032;
},
{
glyphname = three;
lastChange = "2018-03-16 21:40:17 +0000";
layers = (
{
layerId = "88C65AEA-4CF7-410E-9BC9-3A05E177EFEE";
paths = (
{
closed = 1;
nodes = (
"49 497 OFFCURVE",
"88 477 OFFCURVE",
"112 487 CURVE",
"127 498 OFFCURVE",
"165 541 OFFCURVE",
"265 540 CURVE SMOOTH",
"333 539 OFFCURVE",
"380 487 OFFCURVE",
"396 428 CURVE SMOOTH",
"408 385 OFFCURVE",
"382 335 OFFCURVE",
"344 327 CURVE",
"330 326 OFFCURVE",
"304 325 OFFCURVE",
"253 325 CURVE",
"203 324 OFFCURVE",
"185 334 OFFCURVE",
"173 322 CURVE",
"155 301 OFFCURVE",
"155 281 OFFCURVE",
"173 256 CURVE",
"190 245 OFFCURVE",
"230 251 OFFCURVE",
"278 251 CURVE",
"423 257 OFFCURVE",
"434 212 OFFCURVE",
"434 163 CURVE SMOOTH",
"434 115 OFFCURVE",
"434 66 OFFCURVE",
"242 66 CURVE SMOOTH",
"97 66 OFFCURVE",
"82 96 OFFCURVE",
"63 90 CURVE",
"42 81 OFFCURVE",
"25 49 OFFCURVE",
"31 29 CURVE",
"62 3 OFFCURVE",
"124 0 OFFCURVE",
"266 0 CURVE SMOOTH",
"506 0 OFFCURVE",
"504 111 OFFCURVE",
"504 176 CURVE SMOOTH",
"504 221 OFFCURVE",
"466 262 OFFCURVE",
"447 295 CURVE",
"447 324 OFFCURVE",
"472 344 OFFCURVE",
"472 397 CURVE SMOOTH",
"472 515 OFFCURVE",
"371 613 OFFCURVE",
"242 613 CURVE SMOOTH",
"157 613 OFFCURVE",
"49 545 OFFCURVE",
"49 515 CURVE"
);
}
);
width = 534;
}
);
unicode = 0033;
},
{
glyphname = four;
lastChange = "2018-03-16 21:40:25 +0000";
layers = (
{
layerId = "88C65AEA-4CF7-410E-9BC9-3A05E177EFEE";
paths = (
{
closed = 1;
nodes = (
"326 227 OFFCURVE",
"141 224 OFFCURVE",
"132 240 CURVE",
"123 256 OFFCURVE",
"323 479 OFFCURVE",
"343 474 CURVE",
"363 469 OFFCURVE",
"348 253 OFFCURVE",
"337 240 CURVE"
);
},
{
closed = 1;
nodes = (
"418 258 OFFCURVE",
"436 588 OFFCURVE",
"425 602 CURVE",
"414 615 OFFCURVE",
"371 613 OFFCURVE",
"354 605 CURVE",
"337 596 OFFCURVE",
"45 261 OFFCURVE",
"38 241 CURVE",
"31 221 OFFCURVE",
"24 182 OFFCURVE",
"38 166 CURVE",
"52 150 OFFCURVE",
"323 170 OFFCURVE",
"335 155 CURVE",
"347 140 OFFCURVE",
"334 19 OFFCURVE",
"346 8 CURVE",
"358 -2 OFFCURVE",
"412 -3 OFFCURVE",
"422 8 CURVE",
"433 20 OFFCURVE",
"410 148 OFFCURVE",
"429 158 CURVE",
"448 168 OFFCURVE",
"506 153 OFFCURVE",
"520 166 CURVE",
"534 179 OFFCURVE",
"523 217 OFFCURVE",
"516 231 CURVE",
"509 245 OFFCURVE",
"446 228 OFFCURVE",
"432 243 CURVE"
);
}
);
width = 557;
}
);
unicode = 0034;
},
{
glyphname = five;
lastChange = "2018-03-16 21:40:34 +0000";
layers = (
{
layerId = "88C65AEA-4CF7-410E-9BC9-3A05E177EFEE";
paths = (
{
closed = 1;
nodes = (
"486 589 OFFCURVE",
"486 544 OFFCURVE",
"471 532 CURVE",
"456 520 OFFCURVE",
"203 541 OFFCURVE",
"184 526 CURVE",
"165 511 OFFCURVE",
"129 377 OFFCURVE",
"141 358 CURVE",
"152 339 OFFCURVE",
"248 366 OFFCURVE",
"312 363 CURVE",
"384 360 OFFCURVE",
"442 349 OFFCURVE",
"497 294 CURVE",
"539 251 OFFCURVE",
"541 155 OFFCURVE",
"523 103 CURVE",
"507 57 OFFCURVE",
"472 0 OFFCURVE",
"319 0 CURVE",
"192 0 LINE",
"117 0 OFFCURVE",
"37 27 OFFCURVE",
"32 55 CURVE",
"27 83 OFFCURVE",
"32 91 OFFCURVE",
"64 103 CURVE",
"96 115 OFFCURVE",
"108 74 OFFCURVE",
"176 71 CURVE",
"313 70 LINE",
"410 71 OFFCURVE",
"455 102 OFFCURVE",
"458 166 CURVE",
"462 279 OFFCURVE",
"362 282 OFFCURVE",
"283 285 CURVE",
"203 288 OFFCURVE",
"79 246 OFFCURVE",
"55 267 CURVE",
"32 288 OFFCURVE",
"95 582 OFFCURVE",
"113 600 CURVE",
"132 618 OFFCURVE",
"461 611 OFFCURVE",
"474 600 CURVE"
);
}
);
width = 564;
}
);
unicode = 0035;
},
{
glyphname = six;
lastChange = "2018-03-16 21:40:42 +0000";
layers = (
{
layerId = "88C65AEA-4CF7-410E-9BC9-3A05E177EFEE";
paths = (
{
closed = 1;
nodes = (
"197 1 OFFCURVE",
"129 1 OFFCURVE",
"85 42 CURVE",
"69 53 OFFCURVE",
"59 69 OFFCURVE",
"54 86 CURVE",
"33 134 OFFCURVE",
"30 189 OFFCURVE",
"30 241 CURVE",
"30 449 OFFCURVE",
"154 614 OFFCURVE",
"308 614 CURVE",
"308 614 LINE",
"419 614 OFFCURVE",
"517 506 OFFCURVE",
"512 488 CURVE",
"507 470 OFFCURVE",
"483 464 OFFCURVE",
"460 464 CURVE",
"437 464 OFFCURVE",
"405 538 OFFCURVE",
"307 539 CURVE",
"163 541 OFFCURVE",
"99 318 OFFCURVE",
"115 299 CURVE",
"131 280 OFFCURVE",
"188 342 OFFCURVE",
"305 347 CURVE",
"497 344 OFFCURVE",
"582 192 OFFCURVE",
"576 137 CURVE",
"570 81 OFFCURVE",
"547 44 OFFCURVE",
"503 22 CURVE",
"459 0 OFFCURVE",
"407 0 OFFCURVE",
"360 0 CURVE",
"254 0 LINE"
);
},
{
closed = 1;
nodes = (
"223 278 OFFCURVE",
"117 245 OFFCURVE",
"117 153 CURVE",
"117 108 OFFCURVE",
"158 76 OFFCURVE",
"204 70 CURVE",
"395 69 OFFCURVE",
"401 67 OFFCURVE",
"438 75 CURVE",
"475 83 OFFCURVE",
"503 110 OFFCURVE",
"503 152 CURVE",
"503 194 OFFCURVE",
"433 254 OFFCURVE",
"376 268 CURVE",
"352 274 OFFCURVE",
"328 277 OFFCURVE",
"303 277 CURVE"
);
}
);
width = 606;
}
);
unicode = 0036;
},
{
glyphname = seven;
lastChange = "2018-03-16 21:40:48 +0000";
layers = (
{
layerId = "88C65AEA-4CF7-410E-9BC9-3A05E177EFEE";
paths = (
{
closed = 1;
nodes = (
"502 591 OFFCURVE",
"507 551 OFFCURVE",
"501 540 CURVE",
"496 529 OFFCURVE",
"160 10 OFFCURVE",
"141 5 CURVE",
"122 -1 OFFCURVE",
"67 -5 OFFCURVE",
"60 13 CURVE",
"54 31 OFFCURVE",
"409 514 OFFCURVE",
"393 530 CURVE",
"378 546 OFFCURVE",
"43 530 OFFCURVE",
"34 539 CURVE",
"26 548 OFFCURVE",
"30 591 OFFCURVE",
"41 604 CURVE",
"51 617 OFFCURVE",
"477 617 OFFCURVE",
"489 604 CURVE"
);
}
);
width = 534;
}
);
unicode = 0037;
},
{
glyphname = eight;
lastChange = "2018-03-16 21:40:56 +0000";
layers = (
{
layerId = "88C65AEA-4CF7-410E-9BC9-3A05E177EFEE";
paths = (
{
closed = 1;
nodes = (
"404 614 OFFCURVE",
"499 530 OFFCURVE",
"499 425 CURVE",
"499 370 OFFCURVE",
"427 323 OFFCURVE",
"447 305 CURVE",
"482 272 OFFCURVE",
"542 199 OFFCURVE",
"544 127 CURVE",
"544 22 OFFCURVE",
"458 0 OFFCURVE",
"285 0 CURVE",
"115 0 OFFCURVE",
"30 21 OFFCURVE",
"30 126 CURVE",
"31 199 OFFCURVE",
"94 277 OFFCURVE",
"133 307 CURVE",
"156 325 OFFCURVE",
"83 368 OFFCURVE",
"82 422 CURVE",
"82 527 OFFCURVE",
"172 614 OFFCURVE",
"288 614 CURVE",
"288 614 LINE"
);
},
{
closed = 1;
nodes = (
"185 277 OFFCURVE",
"101 204 OFFCURVE",
"101 138 CURVE",
"101 72 OFFCURVE",
"184 67 OFFCURVE",
"287 67 CURVE",
"390 67 OFFCURVE",
"473 72 OFFCURVE",
"473 138 CURVE",
"473 204 OFFCURVE",
"392 277 OFFCURVE",
"288 277 CURVE"
);
},
{
closed = 1;
nodes = (
"207 544 OFFCURVE",
"151 490 OFFCURVE",
"151 432 CURVE",
"151 375 OFFCURVE",
"213 342 OFFCURVE",
"290 342 CURVE",
"367 342 OFFCURVE",
"429 374 OFFCURVE",
"430 432 CURVE",
"433 479 OFFCURVE",
"373 544 OFFCURVE",
"290 544 CURVE"
);
}
);
width = 574;
}
);
unicode = 0038;
},
{
glyphname = nine;
lastChange = "2018-03-16 21:39:47 +0000";
layers = (
{
layerId = "88C65AEA-4CF7-410E-9BC9-3A05E177EFEE";
paths = (
{
closed = 1;
nodes = (
"441 614 OFFCURVE",
"511 469 OFFCURVE",
"536 410 CURVE",
"561 351 OFFCURVE",
"566 283 OFFCURVE",
"566 237 CURVE",
"566 28 OFFCURVE",
"495 0 OFFCURVE",
"341 0 CURVE",
"248 0 LINE",
"193 1 OFFCURVE",
"133 0 OFFCURVE",
"88 26 CURVE",
"52 47 OFFCURVE",
"16 97 OFFCURVE",
"35 122 CURVE",
"55 147 OFFCURVE",
"79 143 OFFCURVE",
"95 132 CURVE",
"105 113 OFFCURVE",
"137 86 OFFCURVE",
"168 75 CURVE",
"192 67 OFFCURVE",
"243 67 OFFCURVE",
"335 68 CURVE SMOOTH",
"424 69 OFFCURVE",
"475 93 OFFCURVE",
"480 141 CURVE",
"484 173 OFFCURVE",
"487 190 OFFCURVE",
"473 210 CURVE",
"459 230 OFFCURVE",
"388 216 OFFCURVE",
"249 221 CURVE",
"110 226 OFFCURVE",
"39 293 OFFCURVE",
"47 386 CURVE",
"56 481 OFFCURVE",
"152 614 OFFCURVE",
"296 614 CURVE"
);
},
{
closed = 1;
nodes = (
"198 538 OFFCURVE",
"122 456 OFFCURVE",
"122 388 CURVE",
"122 320 OFFCURVE",
"198 290 OFFCURVE",
"285 290 CURVE",
"372 290 OFFCURVE",
"443 282 OFFCURVE",
"479 307 CURVE",
"494 341 OFFCURVE",
"458 423 OFFCURVE",
"442 447 CURVE SMOOTH",
"426 472 OFFCURVE",
"375 540 OFFCURVE",
"287 539 CURVE"
);
}
);
width = 596;
}
);
unicode = 0039;
},
{
glyphname = fraction;
lastChange = "2018-03-12 16:11:33 +0000";
layers = (
{
layerId = "88C65AEA-4CF7-410E-9BC9-3A05E177EFEE";
paths = (
{
closed = 1;
nodes = (
"444 691 OFFCURVE",
"3 27 OFFCURVE",
"10 11 CURVE",
"23 -4 OFFCURVE",
"73 -2 OFFCURVE",
"92 11 CURVE",
"110 25 OFFCURVE",
"559 691 OFFCURVE",
"549 710 CURVE",
"534 724 OFFCURVE",
"486 723 OFFCURVE",
"464 710 CURVE"
);
}
);
width = 559;
}
);
unicode = 2044;
},
{
glyphname = period;
lastChange = "2018-03-16 09:25:10 +0000";
layers = (
{
layerId = "88C65AEA-4CF7-410E-9BC9-3A05E177EFEE";
paths = (
{
closed = 1;
nodes = (
"55 88 OFFCURVE",
"114 84 OFFCURVE",
"122 74 CURVE",
"130 64 OFFCURVE",
"140 17 OFFCURVE",
"125 8 CURVE",
"109 -1 OFFCURVE",
"62 -2 OFFCURVE",
"45 6 CURVE",
"29 14 OFFCURVE",
"36 62 OFFCURVE",
"45 75 CURVE"
);
}
);
width = 168;
}
);
unicode = 002E;
},
{
glyphname = comma;
lastChange = "2018-03-16 09:23:25 +0000";
layers = (
{
layerId = "88C65AEA-4CF7-410E-9BC9-3A05E177EFEE";
paths = (
{
closed = 1;
nodes = (
"134 102 OFFCURVE",
"193 98 OFFCURVE",
"201 88 CURVE",
"209 78 OFFCURVE",
"132 -135 OFFCURVE",
"117 -144 CURVE",
"101 -153 OFFCURVE",
"54 -154 OFFCURVE",
"37 -146 CURVE",
"21 -138 OFFCURVE",
"115 76 OFFCURVE",
"124 89 CURVE"
);
}
);
width = 237;
}
);
unicode = 002C;
},
{
glyphname = colon;
lastChange = "2018-03-09 14:51:09 +0000";
layers = (
{
layerId = "88C65AEA-4CF7-410E-9BC9-3A05E177EFEE";
paths = (
{
closed = 1;
nodes = (
"62 88 OFFCURVE",
"121 84 OFFCURVE",
"129 74 CURVE",
"137 64 OFFCURVE",
"147 17 OFFCURVE",
"132 8 CURVE",
"116 -1 OFFCURVE",
"69 -2 OFFCURVE",
"52 6 CURVE",
"36 14 OFFCURVE",
"43 62 OFFCURVE",
"52 75 CURVE"
);
},
{
closed = 1;
nodes = (
"60 447 OFFCURVE",
"119 443 OFFCURVE",
"127 433 CURVE",
"135 423 OFFCURVE",
"145 376 OFFCURVE",
"130 367 CURVE",
"114 358 OFFCURVE",
"67 357 OFFCURVE",
"50 365 CURVE",
"34 373 OFFCURVE",
"41 421 OFFCURVE",
"50 434 CURVE"
);
}
);
width = 180;
}
);
unicode = 003A;
},
{
glyphname = semicolon;
lastChange = "2018-03-16 09:25:35 +0000";
layers = (
{
layerId = "88C65AEA-4CF7-410E-9BC9-3A05E177EFEE";
paths = (
{
closed = 1;
nodes = (
"88 88 OFFCURVE",
"147 84 OFFCURVE",
"155 74 CURVE",
"163 64 OFFCURVE",
"133 -65 OFFCURVE",
"118 -74 CURVE",
"102 -83 OFFCURVE",
"55 -84 OFFCURVE",
"38 -76 CURVE",
"22 -68 OFFCURVE",
"69 62 OFFCURVE",
"78 75 CURVE"
);
},
{
closed = 1;
nodes = (
"86 447 OFFCURVE",
"145 443 OFFCURVE",
"153 433 CURVE",
"161 423 OFFCURVE",
"171 376 OFFCURVE",
"156 367 CURVE",
"140 358 OFFCURVE",
"93 357 OFFCURVE",
"76 365 CURVE",
"60 373 OFFCURVE",
"67 421 OFFCURVE",
"76 434 CURVE"
);
}
);
width = 199;
}
);
unicode = 003B;
},
{
glyphname = exclam;
lastChange = "2018-03-10 11:18:10 +0000";
layers = (
{
layerId = "88C65AEA-4CF7-410E-9BC9-3A05E177EFEE";
paths = (
{
closed = 1;
nodes = (
"64 88 OFFCURVE",
"123 84 OFFCURVE",
"131 74 CURVE",
"139 64 OFFCURVE",
"149 17 OFFCURVE",
"134 8 CURVE",
"118 -1 OFFCURVE",
"71 -2 OFFCURVE",
"54 6 CURVE",
"38 14 OFFCURVE",
"45 62 OFFCURVE",
"54 75 CURVE"
);
},
{
closed = 1;
nodes = (
"60 720 OFFCURVE",
"119 716 OFFCURVE",
"127 706 CURVE",
"135 696 OFFCURVE",
"145 187 OFFCURVE",
"130 178 CURVE",
"114 169 OFFCURVE",
"67 168 OFFCURVE",
"50 176 CURVE",
"34 184 OFFCURVE",
"41 694 OFFCURVE",
"50 707 CURVE"
);
}
);
width = 182;
}
);
unicode = 0021;
},
{
glyphname = exclamdown;
lastChange = "2018-03-10 11:18:39 +0000";
layers = (
{
layerId = "88C65AEA-4CF7-410E-9BC9-3A05E177EFEE";
paths = (
{
closed = 1;
nodes = (
"45 430 OFFCURVE",
"38 478 OFFCURVE",
"54 486 CURVE",
"71 494 OFFCURVE",
"118 493 OFFCURVE",
"134 484 CURVE",
"149 475 OFFCURVE",
"139 428 OFFCURVE",
"131 418 CURVE",
"123 408 OFFCURVE",
"64 404 OFFCURVE",
"54 417 CURVE"
);
},
{
closed = 1;
nodes = (
"41 -201 OFFCURVE",
"34 308 OFFCURVE",
"50 316 CURVE",
"67 324 OFFCURVE",
"114 323 OFFCURVE",
"130 314 CURVE",
"145 305 OFFCURVE",
"135 -203 OFFCURVE",
"127 -213 CURVE",
"119 -223 OFFCURVE",
"60 -227 OFFCURVE",
"50 -214 CURVE"
);
}
);
width = 182;
}
);
unicode = 00A1;
},
{
glyphname = question;
lastChange = "2018-03-10 11:15:32 +0000";
layers = (
{
layerId = "88C65AEA-4CF7-410E-9BC9-3A05E177EFEE";
paths = (
{
closed = 1;
nodes = (
"25 511 OFFCURVE",
"81 507 OFFCURVE",
"90 527 CURVE",
"97 578 OFFCURVE",
"148 655 OFFCURVE",
"235 655 CURVE SMOOTH",
"317 655 OFFCURVE",
"372 595 OFFCURVE",
"372 526 CURVE SMOOTH",
"372 458 OFFCURVE",
"302 386 OFFCURVE",
"245 386 CURVE SMOOTH",
"232 386 OFFCURVE",
"220 388 OFFCURVE",
"203 369 CURVE",
"179 343 OFFCURVE",
"189 155 OFFCURVE",
"198 139 CURVE",
"210 130 OFFCURVE",
"263 130 OFFCURVE",
"273 139 CURVE",
"283 155 OFFCURVE",
"261 287 OFFCURVE",
"286 319 CURVE",
"303 326 OFFCURVE",
"444 352 OFFCURVE",
"444 524 CURVE SMOOTH",
"444 632 OFFCURVE",
"363 718 OFFCURVE",
"234 719 CURVE SMOOTH",
"95 720 OFFCURVE",
"20 600 OFFCURVE",
"20 528 CURVE"
);
},
{
closed = 1;
nodes = (
"210 -2 OFFCURVE",
"266 -1 OFFCURVE",
"278 8 CURVE",
"287 21 OFFCURVE",
"287 70 OFFCURVE",
"278 83 CURVE",
"263 95 OFFCURVE",
"215 95 OFFCURVE",
"198 83 CURVE",
"187 70 OFFCURVE",
"187 21 OFFCURVE",
"198 8 CURVE"
);
}
);
width = 464;
}
);
unicode = 003F;
},
{
glyphname = questiondown;
lastChange = "2018-03-16 21:49:49 +0000";
layers = (
{
layerId = "88C65AEA-4CF7-410E-9BC9-3A05E177EFEE";
paths = (
{
closed = 1;
nodes = (
"459 174 OFFCURVE",
"403 178 OFFCURVE",
"394 158 CURVE",
"387 107 OFFCURVE",
"336 64 OFFCURVE",
"249 64 CURVE SMOOTH",
"167 64 OFFCURVE",
"112 90 OFFCURVE",
"112 159 CURVE SMOOTH",
"112 227 OFFCURVE",
"173 287 OFFCURVE",
"230 296 CURVE SMOOTH",
"243 298 OFFCURVE",
"264 297 OFFCURVE",
"281 316 CURVE",
"305 342 OFFCURVE",
"295 530 OFFCURVE",
"286 546 CURVE",
"274 555 OFFCURVE",
"221 555 OFFCURVE",
"211 546 CURVE",
"201 530 OFFCURVE",
"223 398 OFFCURVE",
"198 366 CURVE",
"181 359 OFFCURVE",
"40 333 OFFCURVE",
"40 161 CURVE SMOOTH",
"40 53 OFFCURVE",
"121 0 OFFCURVE",
"250 -1 CURVE SMOOTH",
"389 -2 OFFCURVE",
"464 85 OFFCURVE",
"464 157 CURVE"
);
},
{
closed = 1;
nodes = (
"274 687 OFFCURVE",
"218 686 OFFCURVE",
"206 677 CURVE",
"197 664 OFFCURVE",
"197 615 OFFCURVE",
"206 602 CURVE",
"221 590 OFFCURVE",
"269 590 OFFCURVE",
"286 602 CURVE",
"297 615 OFFCURVE",
"297 664 OFFCURVE",
"286 677 CURVE"
);
}
);
width = 504;
}
);
unicode = 00BF;
},
{
glyphname = periodcentered;
lastChange = "2018-03-11 13:15:20 +0000";
layers = (
{
layerId = "88C65AEA-4CF7-410E-9BC9-3A05E177EFEE";
paths = (
{
closed = 1;
nodes = (
"36 328 OFFCURVE",
"36 261 OFFCURVE",
"50 244 CURVE",
"64 231 OFFCURVE",
"133 226 OFFCURVE",
"152 244 CURVE",
"168 261 OFFCURVE",
"169 328 OFFCURVE",
"152 348 CURVE",
"133 362 OFFCURVE",
"68 364 OFFCURVE",
"50 348 CURVE"
);
}
);
width = 204;
}
);
unicode = 00B7;
},
{
glyphname = bullet;
lastChange = "2018-03-09 10:50:45 +0000";
layers = (
{
layerId = "88C65AEA-4CF7-410E-9BC9-3A05E177EFEE";
paths = (
{
closed = 1;
nodes = (
"116 305 OFFCURVE",
"224 298 OFFCURVE",
"239 279 CURVE",
"253 261 OFFCURVE",
"272 175 OFFCURVE",
"244 158 CURVE",
"215 142 OFFCURVE",
"129 140 OFFCURVE",
"97 155 CURVE",
"68 169 OFFCURVE",
"81 257 OFFCURVE",
"97 281 CURVE"
);
}
);
width = 338;
}
);
unicode = 2022;
},
{
glyphname = asterisk;
lastChange = "2018-03-09 15:00:29 +0000";
layers = (
{
layerId = "88C65AEA-4CF7-410E-9BC9-3A05E177EFEE";
paths = (
{
closed = 1;
nodes = (
"334 482 OFFCURVE",
"308 337 OFFCURVE",
"322 330 CURVE",
"336 324 OFFCURVE",
"421 452 OFFCURVE",
"438 447 CURVE",
"456 442 OFFCURVE",
"484 418 OFFCURVE",
"483 402 CURVE",
"483 385 OFFCURVE",
"369 308 OFFCURVE",
"375 293 CURVE",
"381 278 OFFCURVE",
"522 306 OFFCURVE",
"532 293 CURVE",
"542 280 OFFCURVE",
"545 241 OFFCURVE",
"532 229 CURVE",
"519 217 OFFCURVE",
"371 245 OFFCURVE",
"363 229 CURVE",
"355 213 OFFCURVE",
"488 122 OFFCURVE",
"487 104 CURVE",
"487 86 OFFCURVE",
"463 58 OFFCURVE",
"442 59 CURVE",
"421 60 OFFCURVE",
"336 186 OFFCURVE",
"322 180 CURVE",
"308 174 OFFCURVE",
"339 21 OFFCURVE",
"322 8 CURVE",
"305 -5 OFFCURVE",
"269 -1 OFFCURVE",
"258 8 CURVE",
"247 17 OFFCURVE",
"274 164 OFFCURVE",
"258 176 CURVE",
"242 188 OFFCURVE",
"157 62 OFFCURVE",
"141 60 CURVE",
"125 57 OFFCURVE",
"95 89 OFFCURVE",
"96 105 CURVE",
"97 121 OFFCURVE",
"225 215 OFFCURVE",
"220 229 CURVE",
"216 243 OFFCURVE",
"57 220 OFFCURVE",
"48 229 CURVE",
"39 238 OFFCURVE",
"37 281 OFFCURVE",
"48 293 CURVE",
"59 305 OFFCURVE",
"202 280 OFFCURVE",
"209 293 CURVE",
"217 306 OFFCURVE",
"100 381 OFFCURVE",
"101 403 CURVE",
"102 424 OFFCURVE",
"133 450 OFFCURVE",
"146 448 CURVE",
"160 445 OFFCURVE",
"244 326 OFFCURVE",
"258 336 CURVE",
"272 345 OFFCURVE",
"245 479 OFFCURVE",
"258 492 CURVE",
"271 505 OFFCURVE",
"310 502 OFFCURVE",
"322 492 CURVE"
);
}
);
width = 581;
}
);
unicode = 002A;
},
{
glyphname = numbersign;
lastChange = "2018-03-10 11:03:12 +0000";
layers = (
{
layerId = "88C65AEA-4CF7-410E-9BC9-3A05E177EFEE";
paths = (
{
closed = 1;
nodes = (
"57 150 OFFCURVE",
"147 172 OFFCURVE",
"165 154 CURVE",
"178 132 OFFCURVE",
"157 22 OFFCURVE",
"172 7 CURVE",
"186 -2 OFFCURVE",
"219 -2 OFFCURVE",
"244 7 CURVE",
"259 28 OFFCURVE",
"238 131 OFFCURVE",
"249 153 CURVE",
"271 167 OFFCURVE",
"380 166 OFFCURVE",
"400 153 CURVE",
"411 137 OFFCURVE",
"396 32 OFFCURVE",
"408 7 CURVE",
"421 -5 OFFCURVE",
"458 -2 OFFCURVE",
"483 7 CURVE",
"498 24 OFFCURVE",
"477 132 OFFCURVE",
"489 152 CURVE",
"509 159 OFFCURVE",
"600 145 OFFCURVE",
"622 161 CURVE",
"634 179 OFFCURVE",
"634 207 OFFCURVE",
"623 227 CURVE",
"609 243 OFFCURVE",
"508 222 OFFCURVE",
"488 233 CURVE",
"471 253 OFFCURVE",
"476 337 OFFCURVE",
"488 364 CURVE",
"508 382 OFFCURVE",
"609 362 OFFCURVE",
"622 373 CURVE",
"634 385 OFFCURVE",
"641 416 OFFCURVE",
"623 441 CURVE",
"609 456 OFFCURVE",
"498 431 OFFCURVE",
"483 450 CURVE",
"467 471 OFFCURVE",
"495 581 OFFCURVE",
"480 601 CURVE",
"467 616 OFFCURVE",
"426 616 OFFCURVE",
"412 601 CURVE",
"400 587 OFFCURVE",
"421 469 OFFCURVE",
"408 451 CURVE",
"386 439 OFFCURVE",
"266 439 OFFCURVE",
"244 451 CURVE",
"232 478 OFFCURVE",
"256 571 OFFCURVE",
"241 601 CURVE",
"229 616 OFFCURVE",
"200 619 OFFCURVE",
"175 601 CURVE",
"167 581 OFFCURVE",
"182 469 OFFCURVE",
"169 452 CURVE",
"154 439 OFFCURVE",
"55 457 OFFCURVE",
"40 440 CURVE",
"31 415 OFFCURVE",
"31 393 OFFCURVE",
"39 376 CURVE",
"53 356 OFFCURVE",
"131 385 OFFCURVE",
"162 366 CURVE",
"175 347 OFFCURVE",
"182 262 OFFCURVE",
"162 239 CURVE",
"144 224 OFFCURVE",
"55 249 OFFCURVE",
"40 229 CURVE",
"31 204 OFFCURVE",
"23 179 OFFCURVE",
"39 163 CURVE"
);
},
{
closed = 1;
nodes = (
"236 258 OFFCURVE",
"242 341 OFFCURVE",
"253 364 CURVE",
"275 377 OFFCURVE",
"373 380 OFFCURVE",
"399 363 CURVE",
"416 351 OFFCURVE",
"416 252 OFFCURVE",
"403 234 CURVE",
"377 220 OFFCURVE",
"272 222 OFFCURVE",
"255 234 CURVE"
);
}
);
width = 664;
}
);
unicode = 0023;
},
{
glyphname = slash;
lastChange = "2018-03-17 16:26:46 +0000";
layers = (
{
layerId = "88C65AEA-4CF7-410E-9BC9-3A05E177EFEE";
paths = (
{
closed = 1;
nodes = (
"352 691 OFFCURVE",
"33 27 OFFCURVE",
"40 11 CURVE",
"53 -4 OFFCURVE",
"78 -2 OFFCURVE",
"97 11 CURVE",
"115 25 OFFCURVE",
"441 691 OFFCURVE",
"431 710 CURVE",
"416 724 OFFCURVE",
"394 723 OFFCURVE",
"372 710 CURVE"
);
}
);
width = 471;
}
);
unicode = 002F;
},
{
glyphname = backslash;
lastChange = "2018-03-17 16:27:09 +0000";
layers = (
{
layerId = "88C65AEA-4CF7-410E-9BC9-3A05E177EFEE";
paths = (
{
closed = 1;
nodes = (
"76 723 OFFCURVE",
"55 724 OFFCURVE",
"40 710 CURVE",
"30 691 OFFCURVE",
"356 25 OFFCURVE",
"374 11 CURVE",
"393 -2 OFFCURVE",
"417 -4 OFFCURVE",
"430 11 CURVE",
"437 27 OFFCURVE",
"118 691 OFFCURVE",
"98 710 CURVE"
);
}
);
width = 470;
}
);
unicode = 005C;
},
{
glyphname = parenleft;
lastChange = "2018-03-12 08:57:30 +0000";
layers = (
{
layerId = "88C65AEA-4CF7-410E-9BC9-3A05E177EFEE";
paths = (
{
closed = 1;
nodes = (
"-17 464 OFFCURVE",
"-14 257 OFFCURVE",
"127 8 CURVE",
"152 -5 OFFCURVE",
"189 -7 OFFCURVE",
"201 8 CURVE",
"72 246 OFFCURVE",
"48 464 OFFCURVE",
"201 709 CURVE",
"189 729 OFFCURVE",
"138 719 OFFCURVE",
"127 709 CURVE"
);
}
);
width = 221;
}
);
unicode = 0028;
},
{
glyphname = parenright;
lastChange = "2018-03-12 08:57:45 +0000";
layers = (
{
layerId = "88C65AEA-4CF7-410E-9BC9-3A05E177EFEE";
paths = (
{
closed = 1;
nodes = (
"83 719 OFFCURVE",
"32 729 OFFCURVE",
"20 709 CURVE",
"173 464 OFFCURVE",
"149 246 OFFCURVE",
"20 8 CURVE",
"32 -7 OFFCURVE",
"69 -5 OFFCURVE",
"94 8 CURVE",
"235 257 OFFCURVE",
"238 464 OFFCURVE",
"94 709 CURVE"
);
}
);
width = 221;
}
);
unicode = 0029;
},
{
glyphname = braceleft;
lastChange = "2018-03-12 09:08:21 +0000";
layers = (
{
layerId = "88C65AEA-4CF7-410E-9BC9-3A05E177EFEE";
paths = (
{
closed = 1;
nodes = (
"55 320 OFFCURVE",
"98 310 OFFCURVE",
"98 275 CURVE SMOOTH",
"98 262 LINE",
"98 141 LINE",
"97 136 OFFCURVE",
"97 130 OFFCURVE",
"97 125 CURVE SMOOTH",
"97 56 OFFCURVE",
"153 0 OFFCURVE",
"223 0 CURVE",
"235 11 OFFCURVE",
"240 61 OFFCURVE",
"224 76 CURVE",
"196 77 OFFCURVE",
"173 91 OFFCURVE",
"173 129 CURVE SMOOTH",
"173 274 LINE SMOOTH",
"173 341 OFFCURVE",
"133 339 OFFCURVE",
"128 363 CURVE",
"133 387 OFFCURVE",
"171 383 OFFCURVE",
"171 449 CURVE SMOOTH",
"171 592 LINE SMOOTH",
"171 630 OFFCURVE",
"194 644 OFFCURVE",
"222 645 CURVE",
"231 652 OFFCURVE",
"235 709 OFFCURVE",
"221 721 CURVE",
"151 721 OFFCURVE",
"95 665 OFFCURVE",
"95 596 CURVE SMOOTH",
"95 591 OFFCURVE",
"95 585 OFFCURVE",
"96 580 CURVE",
"96 461 LINE",
"96 448 LINE",
"95 418 OFFCURVE",
"79 406 OFFCURVE",
"48 397 CURVE",
"39 389 OFFCURVE",
"37 336 OFFCURVE",
"46 323 CURVE"
);
}
);
width = 274;
}
);
unicode = 007B;
},
{
glyphname = braceright;
lastChange = "2018-03-12 09:08:53 +0000";
layers = (
{
layerId = "88C65AEA-4CF7-410E-9BC9-3A05E177EFEE";
paths = (
{
closed = 1;
nodes = (
"237 336 OFFCURVE",
"235 389 OFFCURVE",
"226 397 CURVE",
"195 406 OFFCURVE",
"179 418 OFFCURVE",
"178 448 CURVE",
"178 461 LINE",
"178 580 LINE",
"179 585 OFFCURVE",
"179 591 OFFCURVE",
"179 596 CURVE SMOOTH",
"179 665 OFFCURVE",
"123 721 OFFCURVE",
"53 721 CURVE",
"39 709 OFFCURVE",
"43 652 OFFCURVE",
"52 645 CURVE",
"80 644 OFFCURVE",
"103 630 OFFCURVE",
"103 592 CURVE SMOOTH",
"103 449 LINE SMOOTH",
"103 383 OFFCURVE",
"141 387 OFFCURVE",
"146 363 CURVE",
"141 339 OFFCURVE",
"101 341 OFFCURVE",
"101 274 CURVE SMOOTH",
"101 129 LINE SMOOTH",
"101 91 OFFCURVE",
"78 77 OFFCURVE",
"50 76 CURVE",
"34 61 OFFCURVE",
"39 11 OFFCURVE",
"51 0 CURVE",
"121 0 OFFCURVE",
"177 56 OFFCURVE",
"177 125 CURVE SMOOTH",
"177 130 OFFCURVE",
"177 136 OFFCURVE",
"176 141 CURVE",
"176 262 LINE",
"176 275 LINE SMOOTH",
"176 310 OFFCURVE",
"219 320 OFFCURVE",
"228 323 CURVE"
);
}
);
width = 274;
}
);
unicode = 007D;
},
{
glyphname = bracketleft;
lastChange = "2018-03-12 10:04:19 +0000";
layers = (
{
layerId = "88C65AEA-4CF7-410E-9BC9-3A05E177EFEE";
paths = (
{
closed = 1;
nodes = (
"58 -4 OFFCURVE",
"211 -1 OFFCURVE",
"225 8 CURVE",
"236 20 OFFCURVE",
"236 57 OFFCURVE",
"225 70 CURVE",
"215 78 OFFCURVE",
"128 68 OFFCURVE",
"118 78 CURVE",
"110 96 OFFCURVE",
"111 632 OFFCURVE",
"118 642 CURVE",
"123 650 OFFCURVE",
"216 642 OFFCURVE",
"225 648 CURVE",
"236 658 OFFCURVE",
"237 698 OFFCURVE",
"225 713 CURVE",
"215 723 OFFCURVE",
"55 721 OFFCURVE",
"47 714 CURVE",
"41 705 OFFCURVE",
"36 23 OFFCURVE",
"47 8 CURVE"
);
}
);
width = 274;
}
);
unicode = 005B;
},
{
glyphname = bracketright;
lastChange = "2018-03-12 10:04:43 +0000";
layers = (
{
layerId = "88C65AEA-4CF7-410E-9BC9-3A05E177EFEE";
paths = (
{
closed = 1;
nodes = (
"238 23 OFFCURVE",
"233 705 OFFCURVE",
"227 714 CURVE",
"219 721 OFFCURVE",
"59 723 OFFCURVE",
"49 713 CURVE",
"37 698 OFFCURVE",
"38 658 OFFCURVE",
"49 648 CURVE",
"58 642 OFFCURVE",
"151 650 OFFCURVE",
"156 642 CURVE",
"163 632 OFFCURVE",
"164 96 OFFCURVE",
"156 78 CURVE",
"146 68 OFFCURVE",
"59 78 OFFCURVE",
"49 70 CURVE",
"38 57 OFFCURVE",
"38 20 OFFCURVE",
"49 8 CURVE",
"63 -1 OFFCURVE",
"216 -4 OFFCURVE",
"227 8 CURVE"
);
}
);
width = 274;
}
);
unicode = 005D;
},
{
glyphname = hyphen;
lastChange = "2018-03-16 21:47:24 +0000";
layers = (
{
layerId = "88C65AEA-4CF7-410E-9BC9-3A05E177EFEE";
paths = (
{
closed = 1;
nodes = (
"80 275 OFFCURVE",
"365 271 OFFCURVE",
"373 261 CURVE",
"381 251 OFFCURVE",
"391 204 OFFCURVE",
"376 195 CURVE",
"360 186 OFFCURVE",
"87 185 OFFCURVE",
"70 193 CURVE",
"54 201 OFFCURVE",
"61 249 OFFCURVE",
"70 262 CURVE"
);
}
);
width = 444;
}
);
unicode = 002D;
},
{
glyphname = endash;
lastChange = "2018-03-16 21:47:35 +0000";
layers = (
{
layerId = "88C65AEA-4CF7-410E-9BC9-3A05E177EFEE";
paths = (
{
closed = 1;
nodes = (
"80 275 OFFCURVE",
"545 271 OFFCURVE",
"555 261 CURVE",
"566 251 OFFCURVE",
"578 204 OFFCURVE",
"559 195 CURVE",
"539 186 OFFCURVE",
"87 185 OFFCURVE",
"70 193 CURVE",
"54 201 OFFCURVE",
"61 249 OFFCURVE",
"70 262 CURVE"
);
}
);
width = 629;
}
);
unicode = 2013;
},
{
glyphname = emdash;
lastChange = "2018-03-16 21:48:17 +0000";
layers = (
{
layerId = "88C65AEA-4CF7-410E-9BC9-3A05E177EFEE";
paths = (
{
closed = 1;
nodes = (
"59 287 OFFCURVE",
"57 280 OFFCURVE",
"68 255 CURVE",
"79 244 OFFCURVE",
"968 239 OFFCURVE",
"989 255 CURVE",
"999 269 OFFCURVE",
"1002 287 OFFCURVE",
"989 312 CURVE",
"976 328 OFFCURVE",
"79 325 OFFCURVE",
"68 312 CURVE"
);
}
);
width = 1058;
}
);
unicode = 2014;
},
{
glyphname = underscore;
lastChange = "2018-03-09 14:53:16 +0000";
layers = (
{
layerId = "88C65AEA-4CF7-410E-9BC9-3A05E177EFEE";
paths = (
{
closed = 1;
nodes = (
"30 -23 OFFCURVE",
"499 -27 OFFCURVE",
"507 -37 CURVE",
"515 -47 OFFCURVE",
"525 -94 OFFCURVE",
"510 -103 CURVE",
"494 -112 OFFCURVE",
"37 -113 OFFCURVE",
"20 -105 CURVE",
"4 -97 OFFCURVE",
"11 -49 OFFCURVE",
"20 -36 CURVE"
);
}
);
width = 528;
}
);
unicode = 005F;
},
{
glyphname = quotedblleft;
lastChange = "2018-03-11 13:13:37 +0000";
layers = (
{
layerId = "88C65AEA-4CF7-410E-9BC9-3A05E177EFEE";
paths = (
{
closed = 1;
nodes = (
"117 701 OFFCURVE",
"169 559 OFFCURVE",
"153 551 CURVE",
"136 543 OFFCURVE",
"89 544 OFFCURVE",
"73 553 CURVE",
"58 562 OFFCURVE",
"23 703 OFFCURVE",
"31 713 CURVE",
"39 723 OFFCURVE",
"98 727 OFFCURVE",
"108 714 CURVE"
);
},
{
closed = 1;
nodes = (
"280 701 OFFCURVE",
"332 559 OFFCURVE",
"316 551 CURVE",
"299 543 OFFCURVE",
"252 544 OFFCURVE",
"236 553 CURVE",
"221 562 OFFCURVE",
"186 703 OFFCURVE",
"194 713 CURVE",
"202 723 OFFCURVE",
"261 727 OFFCURVE",
"271 714 CURVE"
);
}
);
width = 349;
}
);
unicode = 201C;
},
{
glyphname = quotedblright;
lastChange = "2018-03-11 13:13:56 +0000";
layers = (
{
layerId = "88C65AEA-4CF7-410E-9BC9-3A05E177EFEE";
paths = (
{
closed = 1;
nodes = (
"251 727 OFFCURVE",
"310 723 OFFCURVE",
"318 713 CURVE",
"326 703 OFFCURVE",
"291 562 OFFCURVE",
"276 553 CURVE",
"260 544 OFFCURVE",
"213 543 OFFCURVE",
"196 551 CURVE",
"180 559 OFFCURVE",
"232 701 OFFCURVE",
"241 714 CURVE"
);
},
{
closed = 1;
nodes = (
"88 727 OFFCURVE",
"147 723 OFFCURVE",
"155 713 CURVE",
"163 703 OFFCURVE",
"128 562 OFFCURVE",
"113 553 CURVE",
"97 544 OFFCURVE",
"50 543 OFFCURVE",
"33 551 CURVE",
"17 559 OFFCURVE",
"69 701 OFFCURVE",
"78 714 CURVE"
);
}
);
width = 349;
}
);
unicode = 201D;
},
{
glyphname = quoteleft;
lastChange = "2018-03-11 13:12:40 +0000";
layers = (
{
layerId = "88C65AEA-4CF7-410E-9BC9-3A05E177EFEE";
paths = (
{
closed = 1;
nodes = (
"117 701 OFFCURVE",
"169 559 OFFCURVE",
"153 551 CURVE",
"136 543 OFFCURVE",
"89 544 OFFCURVE",
"73 553 CURVE",
"58 562 OFFCURVE",
"23 703 OFFCURVE",
"31 713 CURVE",
"39 723 OFFCURVE",
"98 727 OFFCURVE",
"108 714 CURVE"
);
}
);
width = 186;
}
);
unicode = 2018;
},
{
glyphname = quoteright;
lastChange = "2018-03-11 13:12:25 +0000";
layers = (
{
layerId = "88C65AEA-4CF7-410E-9BC9-3A05E177EFEE";
paths = (
{
closed = 1;
nodes = (
"88 727 OFFCURVE",
"147 723 OFFCURVE",
"155 713 CURVE",
"163 703 OFFCURVE",
"128 562 OFFCURVE",
"113 553 CURVE",
"97 544 OFFCURVE",
"50 543 OFFCURVE",
"33 551 CURVE",
"17 559 OFFCURVE",
"69 701 OFFCURVE",
"78 714 CURVE"
);
}
);
width = 186;
}
);
unicode = 2019;
},
{
glyphname = guillemetleft;
lastChange = "2018-03-12 10:11:33 +0000";
layers = (
{
layerId = "88C65AEA-4CF7-410E-9BC9-3A05E177EFEE";
paths = (
{
closed = 1;
nodes = (
"504 451 OFFCURVE",
"516 432 CURVE",
"528 412 OFFCURVE",
"321 260 OFFCURVE",
"322 222 CURVE",
"322 181 OFFCURVE",
"503 47 OFFCURVE",
"515 14 CURVE",
"512 -5 OFFCURVE",
"455 -2 OFFCURVE",
"433 10 CURVE",
"414 22 OFFCURVE",
"230 181 OFFCURVE",
"230 222 CURVE",
"233 260 OFFCURVE",
"411 417 OFFCURVE",
"424 432 CURVE",
"448 447 OFFCURVE"
);
},
{
closed = 1;
nodes = (
"302 451 OFFCURVE",
"314 432 CURVE",
"326 412 OFFCURVE",
"131 260 OFFCURVE",
"132 222 CURVE",
"132 181 OFFCURVE",
"301 47 OFFCURVE",
"313 14 CURVE",
"310 -5 OFFCURVE",
"253 -2 OFFCURVE",
"231 10 CURVE",
"212 22 OFFCURVE",
"40 181 OFFCURVE",
"40 222 CURVE",
"43 260 OFFCURVE",
"209 417 OFFCURVE",
"222 432 CURVE",
"246 447 OFFCURVE"
);
}
);
width = 557;
}
);
unicode = 00AB;
},
{
glyphname = guillemetright;
lastChange = "2018-03-12 10:11:20 +0000";
layers = (
{
layerId = "88C65AEA-4CF7-410E-9BC9-3A05E177EFEE";
paths = (
{
closed = 1;
nodes = (
"133 432 CURVE",
"146 417 OFFCURVE",
"324 260 OFFCURVE",
"327 222 CURVE",
"327 181 OFFCURVE",
"143 22 OFFCURVE",
"124 10 CURVE",
"102 -2 OFFCURVE",
"45 -5 OFFCURVE",
"42 14 CURVE",
"54 47 OFFCURVE",
"235 181 OFFCURVE",
"235 222 CURVE",
"236 260 OFFCURVE",
"29 412 OFFCURVE",
"41 432 CURVE",
"53 451 OFFCURVE",
"109 447 OFFCURVE"
);
},
{
closed = 1;
nodes = (
"335 432 CURVE",
"348 417 OFFCURVE",
"514 260 OFFCURVE",
"517 222 CURVE",
"517 181 OFFCURVE",
"345 22 OFFCURVE",
"326 10 CURVE",
"304 -2 OFFCURVE",
"247 -5 OFFCURVE",
"244 14 CURVE",
"256 47 OFFCURVE",
"425 181 OFFCURVE",
"425 222 CURVE",
"426 260 OFFCURVE",
"231 412 OFFCURVE",
"243 432 CURVE",
"255 451 OFFCURVE",
"311 447 OFFCURVE"
);
}
);
width = 557;
}
);
unicode = 00BB;
},
{
glyphname = guilsinglleft;
lastChange = "2018-03-12 10:10:34 +0000";
layers = (
{
layerId = "88C65AEA-4CF7-410E-9BC9-3A05E177EFEE";
paths = (
{
closed = 1;
nodes = (
"313 451 OFFCURVE",
"325 432 CURVE",
"337 412 OFFCURVE",
"131 260 OFFCURVE",
"132 222 CURVE",
"132 181 OFFCURVE",
"313 47 OFFCURVE",
"325 14 CURVE",
"322 -5 OFFCURVE",
"265 -2 OFFCURVE",
"243 10 CURVE",
"224 22 OFFCURVE",
"40 181 OFFCURVE",
"40 222 CURVE",
"43 260 OFFCURVE",
"220 417 OFFCURVE",
"233 432 CURVE",
"257 447 OFFCURVE"
);
}
);
width = 366;
}
);
unicode = 2039;
},
{
glyphname = guilsinglright;
lastChange = "2018-03-12 10:10:17 +0000";
layers = (
{
layerId = "88C65AEA-4CF7-410E-9BC9-3A05E177EFEE";
paths = (
{
closed = 1;
nodes = (
"133 432 CURVE",
"146 417 OFFCURVE",
"323 260 OFFCURVE",
"326 222 CURVE",
"326 181 OFFCURVE",
"142 22 OFFCURVE",
"123 10 CURVE",
"101 -2 OFFCURVE",
"44 -5 OFFCURVE",
"41 14 CURVE",
"53 47 OFFCURVE",
"234 181 OFFCURVE",
"234 222 CURVE",
"235 260 OFFCURVE",
"29 412 OFFCURVE",
"41 432 CURVE",
"53 451 OFFCURVE",
"109 447 OFFCURVE"
);
}
);
width = 366;
}
);
unicode = 203A;
},
{
glyphname = quotedbl;
lastChange = "2018-03-09 10:53:16 +0000";
layers = (
{
layerId = "88C65AEA-4CF7-410E-9BC9-3A05E177EFEE";
paths = (
{
closed = 1;
nodes = (
"63 734 OFFCURVE",
"122 730 OFFCURVE",
"130 720 CURVE",
"138 710 OFFCURVE",
"143 569 OFFCURVE",
"128 560 CURVE",
"112 551 OFFCURVE",
"65 550 OFFCURVE",
"48 558 CURVE",
"32 566 OFFCURVE",
"44 708 OFFCURVE",
"53 721 CURVE"
);
},
{
closed = 1;
nodes = (
"229 733 OFFCURVE",
"288 729 OFFCURVE",
"296 719 CURVE",
"304 709 OFFCURVE",
"309 568 OFFCURVE",
"294 559 CURVE",
"278 550 OFFCURVE",
"231 549 OFFCURVE",
"214 557 CURVE",
"198 565 OFFCURVE",
"210 707 OFFCURVE",
"219 720 CURVE"
);
}
);
width = 344;
}
);
unicode = 0022;
},
{
glyphname = quotesingle;
lastChange = "2018-03-09 10:53:51 +0000";
layers = (
{
layerId = "88C65AEA-4CF7-410E-9BC9-3A05E177EFEE";
paths = (
{
closed = 1;
nodes = (
"63 727 OFFCURVE",
"122 723 OFFCURVE",
"130 713 CURVE",
"138 703 OFFCURVE",
"143 562 OFFCURVE",
"128 553 CURVE",
"112 544 OFFCURVE",
"65 543 OFFCURVE",
"48 551 CURVE",
"32 559 OFFCURVE",
"44 701 OFFCURVE",
"53 714 CURVE"
);
}
);
width = 178;
}
);
unicode = 0027;
},
{
glyphname = cent;
lastChange = "2018-03-17 16:26:02 +0000";
layers = (
{
layerId = "88C65AEA-4CF7-410E-9BC9-3A05E177EFEE";
paths = (
{
closed = 1;
nodes = (
"31 258 OFFCURVE",
"41 157 OFFCURVE",
"87 120 CURVE",
"125 94 OFFCURVE",
"169 94 OFFCURVE",
"219 92 CURVE",
"230 81 OFFCURVE",
"220 19 OFFCURVE",
"223 8 CURVE",
"250 -3 OFFCURVE",
"272 -4 OFFCURVE",
"299 7 CURVE",
"304 15 OFFCURVE",
"294 73 OFFCURVE",
"304 94 CURVE",
"314 100 OFFCURVE",
"412 91 OFFCURVE",
"449 121 CURVE",
"460 133 OFFCURVE",
"471 145 OFFCURVE",
"479 159 CURVE SMOOTH",
"490 178 OFFCURVE",
"491 206 OFFCURVE",
"485 220 CURVE SMOOTH",
"479 234 OFFCURVE",
"431 227 OFFCURVE",
"421 218 CURVE SMOOTH",
"411 209 OFFCURVE",
"405 193 OFFCURVE",
"391 180 CURVE SMOOTH",
"362 153 OFFCURVE",
"172 156 OFFCURVE",
"145 180 CURVE SMOOTH",
"126 197 OFFCURVE",
"116 211 OFFCURVE",
"112 254 CURVE SMOOTH",
"105 329 OFFCURVE",
"118 379 OFFCURVE",
"145 421 CURVE SMOOTH",
"171 453 OFFCURVE",
"216 472 OFFCURVE",
"265 472 CURVE SMOOTH",
"314 472 OFFCURVE",
"351 456 OFFCURVE",
"377 424 CURVE",
"383 416 OFFCURVE",
"394 400 OFFCURVE",
"412 391 CURVE SMOOTH",
"429 382 OFFCURVE",
"463 381 OFFCURVE",
"475 394 CURVE SMOOTH",
"487 407 OFFCURVE",
"453 450 OFFCURVE",
"437 472 CURVE",
"403 509 OFFCURVE",
"358 531 OFFCURVE",
"304 538 CURVE",
"298 554 OFFCURVE",
"308 596 OFFCURVE",
"301 608 CURVE",
"285 614 OFFCURVE",
"253 615 OFFCURVE",
"235 608 CURVE",
"229 596 OFFCURVE",
"237 547 OFFCURVE",
"229 538 CURVE",
"171 532 OFFCURVE",
"125 510 OFFCURVE",
"89 472 CURVE SMOOTH",
"46 427 OFFCURVE",
"26 329 OFFCURVE",
"31 258 CURVE"
);
}
);
width = 519;
}
);
unicode = 00A2;
},
{
glyphname = currency;
lastChange = "2018-03-17 11:07:09 +0000";
layers = (
{
layerId = "88C65AEA-4CF7-410E-9BC9-3A05E177EFEE";
paths = (
{
closed = 1;
nodes = (
"40 67 OFFCURVE",
"136 132 OFFCURVE",
"136 151 CURVE",
"114 204 OFFCURVE",
"114 275 OFFCURVE",
"114 275 CURVE",
"109 346 OFFCURVE",
"123 395 OFFCURVE",
"166 439 CURVE",
"165 458 OFFCURVE",
"71 523 OFFCURVE",
"71 548 CURVE",
"71 570 OFFCURVE",
"103 596 OFFCURVE",
"119 596 CURVE",
"151 593 OFFCURVE",
"214 492 OFFCURVE",
"232 492 CURVE",
"267 510 OFFCURVE",
"302 516 OFFCURVE",
"349 516 CURVE SMOOTH",
"400 516 OFFCURVE",
"435 504 OFFCURVE",
"471 481 CURVE",
"501 481 OFFCURVE",
"559 574 OFFCURVE",
"582 580 CURVE",
"605 580 OFFCURVE",
"627 552 OFFCURVE",
"627 536 CURVE",
"622 516 OFFCURVE",
"532 454 OFFCURVE",
"532 431 CURVE",
"548 405 OFFCURVE",
"578 350 OFFCURVE",
"579 270 CURVE SMOOTH",
"580 202 OFFCURVE",
"578 174 OFFCURVE",
"565 149 CURVE",
"566 131 OFFCURVE",
"660 75 OFFCURVE",
"660 49 CURVE",
"660 33 OFFCURVE",
"638 0 OFFCURVE",
"612 1 CURVE",
"595 0 OFFCURVE",
"530 89 OFFCURVE",
"514 92 CURVE",
"473 69 OFFCURVE",
"421 69 OFFCURVE",
"348 68 CURVE SMOOTH",
"273 67 OFFCURVE",
"230 61 OFFCURVE",
"187 85 CURVE",
"164 79 OFFCURVE",
"103 0 OFFCURVE",
"88 0 CURVE",
"70 4 OFFCURVE",
"40 32 OFFCURVE",
"40 48 CURVE"
);
},
{
closed = 1;
nodes = (
"189 195 OFFCURVE",
"208 176 OFFCURVE",
"227 159 CURVE SMOOTH",
"246 142 OFFCURVE",
"301 134 OFFCURVE",
"348 134 CURVE SMOOTH",
"395 134 OFFCURVE",
"450 140 OFFCURVE",
"473 161 CURVE SMOOTH",
"496 182 OFFCURVE",
"508 190 OFFCURVE",
"506 271 CURVE SMOOTH",
"504 351 OFFCURVE",
"460 400 OFFCURVE",
"460 400 CURVE",
"434 432 OFFCURVE",
"397 449 OFFCURVE",
"348 449 CURVE SMOOTH",
"299 449 OFFCURVE",
"257 435 OFFCURVE",
"231 403 CURVE",
"231 403 OFFCURVE",
"183 346 OFFCURVE",
"186 271 CURVE SMOOTH"
);
}
);
width = 700;
}
);
unicode = 00A4;
},
{
glyphname = dollar;
lastChange = "2018-03-12 15:17:17 +0000";
layers = (
{
layerId = "88C65AEA-4CF7-410E-9BC9-3A05E177EFEE";
paths = (
{
closed = 1;
nodes = (
"37 158 OFFCURVE",
"94 151 OFFCURVE",
"109 142 CURVE SMOOTH",
"125 133 OFFCURVE",
"138 102 OFFCURVE",
"150 90 CURVE",
"166 76 OFFCURVE",
"259 63 OFFCURVE",
"270 75 CURVE",
"279 86 OFFCURVE",
"282 265 OFFCURVE",
"271 278 CURVE",
"216 281 OFFCURVE",
"175 283 OFFCURVE",
"175 283 CURVE SMOOTH",
"92 285 OFFCURVE",
"77 304 OFFCURVE",
"56 319 CURVE",
"36 335 OFFCURVE",
"2 464 OFFCURVE",
"74 531 CURVE SMOOTH",
"138 590 OFFCURVE",
"205 606 OFFCURVE",
"270 609 CURVE",
"279 626 OFFCURVE",
"270 650 OFFCURVE",
"278 665 CURVE",
"291 675 OFFCURVE",
"318 675 OFFCURVE",
"343 665 CURVE",
"356 652 OFFCURVE",
"343 619 OFFCURVE",
"352 607 CURVE",
"408 598 OFFCURVE",
"462 575 OFFCURVE",
"510 526 CURVE SMOOTH",
"534 502 OFFCURVE",
"572 453 OFFCURVE",
"558 440 CURVE",
"545 427 OFFCURVE",
"498 435 OFFCURVE",
"484 442 CURVE SMOOTH",
"471 449 OFFCURVE",
"462 467 OFFCURVE",
"453 479 CURVE SMOOTH",
"426 514 OFFCURVE",
"366 544 OFFCURVE",
"354 533 CURVE",
"345 523 OFFCURVE",
"340 363 OFFCURVE",
"351 350 CURVE",
"365 335 OFFCURVE",
"527 336 OFFCURVE",
"546 322 CURVE SMOOTH",
"565 308 OFFCURVE",
"578 275 OFFCURVE",
"579 235 CURVE SMOOTH",
"580 195 OFFCURVE",
"553 70 OFFCURVE",
"513 31 CURVE",
"480 4 OFFCURVE",
"369 12 OFFCURVE",
"352 -2 CURVE",
"343 -13 OFFCURVE",
"352 -42 OFFCURVE",
"346 -54 CURVE",
"332 -64 OFFCURVE",
"305 -66 OFFCURVE",
"280 -54 CURVE",
"268 -41 OFFCURVE",
"280 -11 OFFCURVE",
"271 0 CURVE",
"256 8 OFFCURVE",
"130 6 OFFCURVE",
"86 35 CURVE",
"60 59 OFFCURVE",
"32 122 OFFCURVE",
"34 140 CURVE"
);
},
{
closed = 1;
nodes = (
"151 340 OFFCURVE",
"257 346 OFFCURVE",
"273 354 CURVE",
"282 363 OFFCURVE",
"287 527 OFFCURVE",
"273 536 CURVE",
"250 543 OFFCURVE",
"166 520 OFFCURVE",
"138 477 CURVE SMOOTH",
"111 434 OFFCURVE",
"112 379 OFFCURVE",
"127 364 CURVE SMOOTH"
);
},
{
closed = 1;
nodes = (
"342 262 OFFCURVE",
"341 81 OFFCURVE",
"350 74 CURVE",
"364 64 OFFCURVE",
"438 72 OFFCURVE",
"454 87 CURVE",
"474 107 OFFCURVE",
"486 134 OFFCURVE",
"495 161 CURVE",
"495 161 OFFCURVE",
"508 236 OFFCURVE",
"492 254 CURVE SMOOTH",
"485 262 OFFCURVE",
"421 269 OFFCURVE",
"351 274 CURVE"
);
}
);
width = 609;
}
);
unicode = 0024;
},
{
glyphname = euro;
lastChange = "2018-03-17 10:52:11 +0000";
layers = (
{
layerId = "88C65AEA-4CF7-410E-9BC9-3A05E177EFEE";
paths = (
{
closed = 1;
nodes = (
"62 343 OFFCURVE",
"111 356 OFFCURVE",
"129 341 CURVE",
"138 319 OFFCURVE",
"142 303 OFFCURVE",
"125 276 CURVE",
"106 268 OFFCURVE",
"79 282 OFFCURVE",
"54 268 CURVE",
"37 253 OFFCURVE",
"40 225 OFFCURVE",
"54 208 CURVE",
"79 198 OFFCURVE",
"128 214 OFFCURVE",
"141 199 CURVE",
"176 45 OFFCURVE",
"227 0 OFFCURVE",
"509 1 CURVE SMOOTH",
"538 1 OFFCURVE",
"571 -5 OFFCURVE",
"593 17 CURVE SMOOTH",
"608 32 OFFCURVE",
"611 65 OFFCURVE",
"593 71 CURVE",
"565 77 OFFCURVE",
"558 72 OFFCURVE",
"480 72 CURVE SMOOTH",
"272 72 OFFCURVE",
"234 142 OFFCURVE",
"225 199 CURVE SMOOTH",
"222 221 OFFCURVE",
"505 193 OFFCURVE",
"518 215 CURVE",
"534 238 OFFCURVE",
"530 254 OFFCURVE",
"518 266 CURVE",
"496 281 OFFCURVE",
"227 259 OFFCURVE",
"209 276 CURVE",
"206 293 OFFCURVE",
"205 326 OFFCURVE",
"212 341 CURVE",
"227 352 OFFCURVE",
"497 333 OFFCURVE",
"517 350 CURVE",
"531 372 OFFCURVE",
"530 391 OFFCURVE",
"517 406 CURVE",
"496 419 OFFCURVE",
"237 399 OFFCURVE",
"233 419 CURVE",
"252 506 OFFCURVE",
"347 541 OFFCURVE",
"469 541 CURVE SMOOTH",
"499 541 OFFCURVE",
"552 534 OFFCURVE",
"575 548 CURVE SMOOTH",
"594 560 OFFCURVE",
"601 574 OFFCURVE",
"588 593 CURVE SMOOTH",
"572 617 OFFCURVE",
"508 612 OFFCURVE",
"479 612 CURVE SMOOTH",
"312 612 OFFCURVE",
"200 576 OFFCURVE",
"148 419 CURVE",
"126 407 OFFCURVE",
"85 426 OFFCURVE",
"53 408 CURVE",
"31 393 OFFCURVE",
"40 369 OFFCURVE",
"53 352 CURVE"
);
}
);
width = 645;
}
);
unicode = 20AC;
},
{
glyphname = sterling;
lastChange = "2018-03-13 14:28:58 +0000";
layers = (
{
layerId = "88C65AEA-4CF7-410E-9BC9-3A05E177EFEE";
paths = (
{
closed = 1;
nodes = (
"43 233 OFFCURVE",
"56 241 OFFCURVE",
"69 236 CURVE",
"81 221 OFFCURVE",
"61 32 OFFCURVE",
"77 14 CURVE",
"105 -2 OFFCURVE",
"441 -6 OFFCURVE",
"464 7 CURVE",
"480 24 OFFCURVE",
"468 57 OFFCURVE",
"457 70 CURVE",
"437 83 OFFCURVE",
"182 60 OFFCURVE",
"158 74 CURVE",
"149 93 OFFCURVE",
"146 207 OFFCURVE",
"160 234 CURVE",
"179 255 OFFCURVE",
"374 235 OFFCURVE",
"389 243 CURVE",
"407 259 OFFCURVE",
"409 285 OFFCURVE",
"389 310 CURVE",
"365 320 OFFCURVE",
"174 307 OFFCURVE",
"156 320 CURVE",
"147 339 OFFCURVE",
"155 399 OFFCURVE",
"155 442 CURVE SMOOTH",
"155 554 OFFCURVE",
"256 543 OFFCURVE",
"280 544 CURVE SMOOTH",
"315 545 OFFCURVE",
"353 534 OFFCURVE",
"364 527 CURVE",
"385 514 OFFCURVE",
"397 496 OFFCURVE",
"415 496 CURVE",
"436 494 OFFCURVE",
"464 513 OFFCURVE",
"463 533 CURVE",
"452 557 OFFCURVE",
"436 566 OFFCURVE",
"425 574 CURVE",
"397 598 OFFCURVE",
"346 613 OFFCURVE",
"280 613 CURVE SMOOTH",
"159 613 OFFCURVE",
"74 549 OFFCURVE",
"71 448 CURVE SMOOTH",
"71 405 OFFCURVE",
"83 334 OFFCURVE",
"71 321 CURVE",
"58 312 OFFCURVE",
"42 322 OFFCURVE",
"29 314 CURVE",
"16 287 OFFCURVE",
"17 264 OFFCURVE",
"30 243 CURVE"
);
}
);
width = 512;
}
);
unicode = 00A3;
},
{
glyphname = yen;
lastChange = "2018-03-14 14:56:43 +0000";
layers = (
{
layerId = "88C65AEA-4CF7-410E-9BC9-3A05E177EFEE";
paths = (
{
closed = 1;
nodes = (
"24 676 OFFCURVE",
"94 671 OFFCURVE",
"104 664 CURVE",
"114 656 OFFCURVE",
"227 444 OFFCURVE",
"263 443 CURVE SMOOTH",
"299 442 OFFCURVE",
"403 655 OFFCURVE",
"415 665 CURVE SMOOTH",
"427 675 OFFCURVE",
"487 674 OFFCURVE",
"493 660 CURVE SMOOTH",
"499 646 OFFCURVE",
"312 379 OFFCURVE",
"305 350 CURVE SMOOTH",
"303 344 OFFCURVE",
"303 323 OFFCURVE",
"303 296 CURVE",
"415 295 OFFCURVE",
"448 292 OFFCURVE",
"453 287 CURVE",
"464 277 OFFCURVE",
"476 230 OFFCURVE",
"457 221 CURVE SMOOTH",
"448 217 OFFCURVE",
"415 214 OFFCURVE",
"305 214 CURVE",
"306 157 LINE",
"416 156 OFFCURVE",
"448 153 OFFCURVE",
"453 148 CURVE",
"464 138 OFFCURVE",
"476 91 OFFCURVE",
"457 82 CURVE SMOOTH",
"448 78 OFFCURVE",
"415 75 OFFCURVE",
"305 75 CURVE",
"304 35 OFFCURVE",
"302 6 OFFCURVE",
"295 4 CURVE SMOOTH",
"279 -1 OFFCURVE",
"255 -1 OFFCURVE",
"235 4 CURVE SMOOTH",
"227 6 OFFCURVE",
"223 35 OFFCURVE",
"221 75 CURVE",
"127 75 OFFCURVE",
"91 77 OFFCURVE",
"84 80 CURVE SMOOTH",
"68 87 OFFCURVE",
"75 136 OFFCURVE",
"84 149 CURVE",
"88 154 OFFCURVE",
"125 157 OFFCURVE",
"220 157 CURVE",
"221 214 LINE",
"127 214 OFFCURVE",
"91 216 OFFCURVE",
"84 219 CURVE SMOOTH",
"68 226 OFFCURVE",
"75 275 OFFCURVE",
"84 288 CURVE",
"88 293 OFFCURVE",
"126 296 OFFCURVE",
"222 296 CURVE",
"222 324 OFFCURVE",
"221 345 OFFCURVE",
"219 352 CURVE SMOOTH",
"209 385 OFFCURVE",
"16 649 OFFCURVE",
"20 663 CURVE SMOOTH"
);
}
);
width = 513;
}
);
unicode = 00A5;
},
{
glyphname = plus;
lastChange = "2018-03-12 15:27:40 +0000";
layers = (
{
layerId = "88C65AEA-4CF7-410E-9BC9-3A05E177EFEE";
paths = (
{
closed = 1;
nodes = (
"24 200 OFFCURVE",
"31 249 OFFCURVE",
"40 262 CURVE",
"44 268 OFFCURVE",
"201 260 OFFCURVE",
"213 272 CURVE",
"226 280 OFFCURVE",
"217 429 OFFCURVE",
"220 436 CURVE SMOOTH",
"227 452 OFFCURVE",
"276 445 OFFCURVE",
"289 436 CURVE",
"295 432 OFFCURVE",
"286 277 OFFCURVE",
"299 268 CURVE",
"310 260 OFFCURVE",
"476 266 OFFCURVE",
"481 261 CURVE",
"492 251 OFFCURVE",
"504 204 OFFCURVE",
"485 195 CURVE SMOOTH",
"476 191 OFFCURVE",
"308 201 OFFCURVE",
"298 186 CURVE",
"289 175 OFFCURVE",
"301 20 OFFCURVE",
"288 11 CURVE",
"275 2 OFFCURVE",
"237 -6 OFFCURVE",
"222 7 CURVE SMOOTH",
"215 13 OFFCURVE",
"224 177 OFFCURVE",
"213 188 CURVE",
"199 197 OFFCURVE",
"47 190 OFFCURVE",
"40 193 CURVE SMOOTH"
);
}
);
width = 525;
}
);
unicode = 002B;
},
{
glyphname = minus;
lastChange = "2018-03-12 15:21:24 +0000";
layers = (
{
layerId = "88C65AEA-4CF7-410E-9BC9-3A05E177EFEE";
paths = (
{
closed = 1;
nodes = (
"50 275 OFFCURVE",
"515 271 OFFCURVE",
"525 261 CURVE",
"536 251 OFFCURVE",
"548 204 OFFCURVE",
"529 195 CURVE",
"509 186 OFFCURVE",
"57 185 OFFCURVE",
"40 193 CURVE",
"24 201 OFFCURVE",
"31 249 OFFCURVE",
"40 262 CURVE"
);
}
);
width = 569;
}
);
unicode = 2212;
},
{
glyphname = multiply;
lastChange = "2018-03-12 15:28:14 +0000";
layers = (
{
layerId = "88C65AEA-4CF7-410E-9BC9-3A05E177EFEE";
paths = (
{
closed = 1;
nodes = (
"27 375 OFFCURVE",
"66 405 OFFCURVE",
"82 408 CURVE",
"89 409 OFFCURVE",
"194 293 OFFCURVE",
"211 293 CURVE",
"226 289 OFFCURVE",
"325 401 OFFCURVE",
"332 404 CURVE SMOOTH",
"348 410 OFFCURVE",
"378 371 OFFCURVE",
"381 355 CURVE",
"382 348 OFFCURVE",
"266 245 OFFCURVE",
"269 229 CURVE",
"271 216 OFFCURVE",
"393 103 OFFCURVE",
"393 95 CURVE",
"394 81 OFFCURVE",
"369 39 OFFCURVE",
"349 46 CURVE SMOOTH",
"340 50 OFFCURVE",
"228 175 OFFCURVE",
"211 172 CURVE",
"196 170 OFFCURVE",
"95 52 OFFCURVE",
"80 55 CURVE",
"64 58 OFFCURVE",
"32 79 OFFCURVE",
"30 99 CURVE SMOOTH",
"30 108 OFFCURVE",
"152 218 OFFCURVE",
"152 233 CURVE",
"148 250 OFFCURVE",
"36 352 OFFCURVE",
"33 359 CURVE SMOOTH"
);
}
);
width = 423;
}
);
unicode = 00D7;
},
{
glyphname = divide;
lastChange = "2018-03-12 23:03:20 +0000";
layers = (
{
layerId = "88C65AEA-4CF7-410E-9BC9-3A05E177EFEE";
paths = (
{
closed = 1;
nodes = (
"61 281 OFFCURVE",
"526 277 OFFCURVE",
"536 267 CURVE",
"547 257 OFFCURVE",
"559 210 OFFCURVE",
"540 201 CURVE",
"520 192 OFFCURVE",
"68 191 OFFCURVE",
"51 199 CURVE",
"35 207 OFFCURVE",
"42 255 OFFCURVE",
"51 268 CURVE"
);
},
{
closed = 1;
nodes = (
"250 401 OFFCURVE",
"254 341 OFFCURVE",
"261 334 CURVE SMOOTH",
"268 327 OFFCURVE",
"329 328 OFFCURVE",
"336 334 CURVE SMOOTH",
"344 341 OFFCURVE",
"345 401 OFFCURVE",
"336 410 CURVE SMOOTH",
"329 417 OFFCURVE",
"271 418 OFFCURVE",
"261 410 CURVE SMOOTH"
);
},
{
closed = 1;
nodes = (
"254 124 OFFCURVE",
"258 64 OFFCURVE",
"265 57 CURVE SMOOTH",
"272 50 OFFCURVE",
"333 51 OFFCURVE",
"340 57 CURVE SMOOTH",
"348 64 OFFCURVE",
"349 124 OFFCURVE",
"340 133 CURVE SMOOTH",
"333 140 OFFCURVE",
"275 141 OFFCURVE",
"265 133 CURVE SMOOTH"
);
}
);
width = 600;
}
);
unicode = 00F7;
},
{
glyphname = equal;
lastChange = "2018-03-17 10:47:38 +0000";
layers = (
{
layerId = "88C65AEA-4CF7-410E-9BC9-3A05E177EFEE";
paths = (
{
closed = 1;
nodes = (
"60 339 OFFCURVE",
"525 335 OFFCURVE",
"535 325 CURVE",
"546 315 OFFCURVE",
"558 279 OFFCURVE",
"539 270 CURVE",
"519 261 OFFCURVE",
"67 260 OFFCURVE",
"50 268 CURVE",
"34 276 OFFCURVE",
"41 313 OFFCURVE",
"50 326 CURVE"
);
},
{
closed = 1;
nodes = (
"61 194 OFFCURVE",
"526 190 OFFCURVE",
"536 180 CURVE",
"547 170 OFFCURVE",
"559 135 OFFCURVE",
"540 126 CURVE",
"520 117 OFFCURVE",
"68 116 OFFCURVE",
"51 124 CURVE",
"35 132 OFFCURVE",
"42 168 OFFCURVE",
"51 181 CURVE"
);
}
);
width = 590;
}
);
unicode = 003D;
},
{
glyphname = notequal;
lastChange = "2018-03-17 16:24:38 +0000";
layers = (
{
layerId = "88C65AEA-4CF7-410E-9BC9-3A05E177EFEE";
paths = (
{
closed = 1;
nodes = (
"34 289 OFFCURVE",
"41 320 OFFCURVE",
"50 333 CURVE",
"55 340 OFFCURVE",
"186 342 OFFCURVE",
"313 341 CURVE",
"337 382 OFFCURVE",
"365 429 OFFCURVE",
"370 434 CURVE",
"392 447 OFFCURVE",
"410 448 OFFCURVE",
"425 434 CURVE",
"428 429 OFFCURVE",
"405 382 OFFCURVE",
"383 340 CURVE",
"454 338 OFFCURVE",
"532 335 OFFCURVE",
"535 332 CURVE",
"546 322 OFFCURVE",
"558 292 OFFCURVE",
"539 283 CURVE SMOOTH",
"531 279 OFFCURVE",
"440 277 OFFCURVE",
"349 276 CURVE",
"303 196 LINE",
"414 195 OFFCURVE",
"531 192 OFFCURVE",
"536 187 CURVE",
"547 177 OFFCURVE",
"559 143 OFFCURVE",
"540 134 CURVE SMOOTH",
"529 129 OFFCURVE",
"381 127 OFFCURVE",
"255 127 CURVE",
"221 69 OFFCURVE",
"194 13 OFFCURVE",
"188 9 CURVE",
"169 -4 OFFCURVE",
"148 -6 OFFCURVE",
"135 9 CURVE",
"133 14 OFFCURVE",
"154 70 OFFCURVE",
"184 127 CURVE",
"115 128 OFFCURVE",
"57 129 OFFCURVE",
"51 132 CURVE SMOOTH",
"35 140 OFFCURVE",
"42 175 OFFCURVE",
"51 188 CURVE",
"55 193 OFFCURVE",
"137 196 OFFCURVE",
"229 196 CURVE",
"274 276 LINE",
"165 276 OFFCURVE",
"58 277 OFFCURVE",
"50 281 CURVE SMOOTH"
);
}
);
width = 590;
}
);
unicode = 2260;
},
{
glyphname = greater;
lastChange = "2018-03-12 23:13:04 +0000";
layers = (
{
layerId = "88C65AEA-4CF7-410E-9BC9-3A05E177EFEE";
paths = (
{
closed = 1;
nodes = (
"27 55 OFFCURVE",
"24 10 OFFCURVE",
"41 0 CURVE",
"64 0 OFFCURVE",
"417 247 OFFCURVE",
"430 269 CURVE",
"436 279 OFFCURVE",
"438 290 OFFCURVE",
"430 300 CURVE",
"404 333 OFFCURVE",
"53 582 OFFCURVE",
"41 568 CURVE",
"25 549 OFFCURVE",
"31 515 OFFCURVE",
"42 492 CURVE",
"56 469 OFFCURVE",
"322 311 OFFCURVE",
"322 285 CURVE",
"322 263 OFFCURVE",
"54 96 OFFCURVE",
"43 81 CURVE"
);
}
);
width = 455;
}
);
unicode = 003E;
},
{
glyphname = less;
lastChange = "2018-03-12 23:13:17 +0000";
layers = (
{
layerId = "88C65AEA-4CF7-410E-9BC9-3A05E177EFEE";
paths = (
{
closed = 1;
nodes = (
"401 96 OFFCURVE",
"133 263 OFFCURVE",
"133 285 CURVE",
"133 311 OFFCURVE",
"399 469 OFFCURVE",
"413 492 CURVE",
"424 515 OFFCURVE",
"430 549 OFFCURVE",
"414 568 CURVE",
"402 582 OFFCURVE",
"51 333 OFFCURVE",
"25 300 CURVE",
"17 290 OFFCURVE",
"19 279 OFFCURVE",
"25 269 CURVE",
"38 247 OFFCURVE",
"391 0 OFFCURVE",
"414 0 CURVE",
"431 10 OFFCURVE",
"428 55 OFFCURVE",
"412 81 CURVE"
);
}
);
width = 455;
}
);
unicode = 003C;
},
{
glyphname = greaterequal;
lastChange = "2018-03-14 15:09:25 +0000";
layers = (
{
layerId = "88C65AEA-4CF7-410E-9BC9-3A05E177EFEE";
paths = (
{
closed = 1;
nodes = (
"44 176 OFFCURVE",
"41 131 OFFCURVE",
"58 121 CURVE",
"81 121 OFFCURVE",
"434 368 OFFCURVE",
"447 390 CURVE",
"453 400 OFFCURVE",
"455 411 OFFCURVE",
"447 421 CURVE",
"421 454 OFFCURVE",
"70 703 OFFCURVE",
"58 689 CURVE",
"42 670 OFFCURVE",
"48 636 OFFCURVE",
"59 613 CURVE",
"73 590 OFFCURVE",
"339 432 OFFCURVE",
"339 406 CURVE",
"339 384 OFFCURVE",
"71 217 OFFCURVE",
"60 202 CURVE"
);
},
{
closed = 1;
nodes = (
"461 216 OFFCURVE",
"153 -2 OFFCURVE",
"139 0 CURVE",
"124 2 OFFCURVE",
"87 33 OFFCURVE",
"97 51 CURVE",
"108 70 OFFCURVE",
"402 285 OFFCURVE",
"421 288 CURVE",
"438 291 OFFCURVE",
"461 248 OFFCURVE",
"461 233 CURVE"
);
}
);
width = 501;
}
);
unicode = 2265;
},
{
glyphname = lessequal;
lastChange = "2018-03-14 15:09:19 +0000";
layers = (
{
layerId = "88C65AEA-4CF7-410E-9BC9-3A05E177EFEE";
paths = (
{
closed = 1;
nodes = (
"430 217 OFFCURVE",
"162 384 OFFCURVE",
"162 406 CURVE",
"162 432 OFFCURVE",
"428 590 OFFCURVE",
"442 613 CURVE",
"453 636 OFFCURVE",
"459 670 OFFCURVE",
"443 689 CURVE",
"431 703 OFFCURVE",
"80 454 OFFCURVE",
"54 421 CURVE",
"46 411 OFFCURVE",
"48 400 OFFCURVE",
"54 390 CURVE",
"67 368 OFFCURVE",
"420 121 OFFCURVE",
"443 121 CURVE",
"460 131 OFFCURVE",
"457 176 OFFCURVE",
"441 202 CURVE"
);
},
{
closed = 1;
nodes = (
"40 248 OFFCURVE",
"63 291 OFFCURVE",
"80 288 CURVE",
"99 285 OFFCURVE",
"393 70 OFFCURVE",
"404 51 CURVE",
"414 33 OFFCURVE",
"377 2 OFFCURVE",
"362 0 CURVE",
"348 -2 OFFCURVE",
"40 216 OFFCURVE",
"40 233 CURVE"
);
}
);
width = 494;
}
);
unicode = 2264;
},
{
glyphname = plusminus;
lastChange = "2018-03-17 16:25:28 +0000";
layers = (
{
layerId = "88C65AEA-4CF7-410E-9BC9-3A05E177EFEE";
paths = (
{
closed = 1;
nodes = (
"62 353 OFFCURVE",
"69 396 OFFCURVE",
"78 409 CURVE",
"82 415 OFFCURVE",
"242 407 OFFCURVE",
"254 419 CURVE",
"267 427 OFFCURVE",
"258 579 OFFCURVE",
"261 586 CURVE SMOOTH",
"268 602 OFFCURVE",
"311 595 OFFCURVE",
"324 586 CURVE",
"330 582 OFFCURVE",
"321 424 OFFCURVE",
"334 415 CURVE",
"345 407 OFFCURVE",
"514 413 OFFCURVE",
"519 408 CURVE",
"530 398 OFFCURVE",
"542 357 OFFCURVE",
"523 348 CURVE SMOOTH",
"514 344 OFFCURVE",
"343 354 OFFCURVE",
"333 339 CURVE",
"324 328 OFFCURVE",
"336 170 OFFCURVE",
"323 161 CURVE",
"310 152 OFFCURVE",
"278 144 OFFCURVE",
"263 157 CURVE SMOOTH",
"256 163 OFFCURVE",
"265 330 OFFCURVE",
"254 341 CURVE",
"240 350 OFFCURVE",
"85 343 OFFCURVE",
"78 346 CURVE SMOOTH"
);
},
{
closed = 1;
nodes = (
"60 110 OFFCURVE",
"525 106 OFFCURVE",
"535 96 CURVE",
"546 86 OFFCURVE",
"558 52 OFFCURVE",
"539 43 CURVE",
"519 34 OFFCURVE",
"67 33 OFFCURVE",
"50 41 CURVE",
"34 49 OFFCURVE",
"41 84 OFFCURVE",
"50 97 CURVE"
);
}
);
width = 589;
}
);
unicode = 00B1;
},
{
glyphname = approxequal;
lastChange = "2018-03-13 18:01:58 +0000";
layers = (
{
layerId = "88C65AEA-4CF7-410E-9BC9-3A05E177EFEE";
paths = (
{
closed = 1;
nodes = (
"61 304 OFFCURVE",
"82 302 OFFCURVE",
"101 317 CURVE",
"105 356 OFFCURVE",
"130 396 OFFCURVE",
"176 396 CURVE SMOOTH",
"251 396 OFFCURVE",
"246 311 OFFCURVE",
"335 311 CURVE SMOOTH",
"412 311 OFFCURVE",
"475 356 OFFCURVE",
"475 456 CURVE",
"459 466 OFFCURVE",
"424 468 OFFCURVE",
"413 456 CURVE",
"395 420 OFFCURVE",
"399 376 OFFCURVE",
"338 376 CURVE SMOOTH",
"274 377 OFFCURVE",
"264 465 OFFCURVE",
"178 466 CURVE SMOOTH",
"87 467 OFFCURVE",
"28 373 OFFCURVE",
"42 320 CURVE"
);
},
{
closed = 1;
nodes = (
"61 112 OFFCURVE",
"82 110 OFFCURVE",
"101 125 CURVE",
"105 164 OFFCURVE",
"130 204 OFFCURVE",
"176 204 CURVE SMOOTH",
"251 204 OFFCURVE",
"246 119 OFFCURVE",
"335 119 CURVE SMOOTH",
"412 119 OFFCURVE",
"475 164 OFFCURVE",
"475 264 CURVE",
"459 274 OFFCURVE",
"424 276 OFFCURVE",
"413 264 CURVE",
"395 228 OFFCURVE",
"399 184 OFFCURVE",
"338 184 CURVE SMOOTH",
"274 184 OFFCURVE",
"264 273 OFFCURVE",
"178 274 CURVE SMOOTH",
"87 275 OFFCURVE",
"28 181 OFFCURVE",
"42 128 CURVE"
);
}
);
width = 515;
}
);
unicode = 2248;
},
{
glyphname = asciitilde;
lastChange = "2018-03-13 18:02:35 +0000";
layers = (
{
layerId = "88C65AEA-4CF7-410E-9BC9-3A05E177EFEE";
paths = (
{
closed = 1;
nodes = (
"61 154 OFFCURVE",
"82 152 OFFCURVE",
"101 167 CURVE",
"105 206 OFFCURVE",
"130 246 OFFCURVE",
"176 246 CURVE SMOOTH",
"251 246 OFFCURVE",
"246 161 OFFCURVE",
"335 161 CURVE SMOOTH",
"412 161 OFFCURVE",
"475 206 OFFCURVE",
"475 306 CURVE",
"459 316 OFFCURVE",
"424 318 OFFCURVE",
"413 306 CURVE",
"395 270 OFFCURVE",
"399 226 OFFCURVE",
"338 226 CURVE SMOOTH",
"274 226 OFFCURVE",
"264 315 OFFCURVE",
"178 316 CURVE SMOOTH",
"87 317 OFFCURVE",
"28 223 OFFCURVE",
"42 170 CURVE"
);
}
);
width = 515;
}
);
unicode = 007E;
},
{
glyphname = logicalnot;
lastChange = "2018-03-14 15:11:17 +0000";
layers = (
{
layerId = "88C65AEA-4CF7-410E-9BC9-3A05E177EFEE";
paths = (
{
closed = 1;
nodes = (
"62 245 OFFCURVE",
"407 262 OFFCURVE",
"426 250 CURVE",
"438 232 OFFCURVE",
"426 132 OFFCURVE",
"433 116 CURVE",
"455 106 OFFCURVE",
"473 107 OFFCURVE",
"495 116 CURVE",
"505 132 OFFCURVE",
"505 297 OFFCURVE",
"495 319 CURVE",
"475 330 OFFCURVE",
"62 327 OFFCURVE",
"47 319 CURVE",
"39 297 OFFCURVE",
"37 271 OFFCURVE",
"47 259 CURVE"
);
}
);
width = 542;
}
);
unicode = 00AC;
},
{
glyphname = emptyset;
lastChange = "2018-03-14 15:59:20 +0000";
layers = (
{
layerId = "88C65AEA-4CF7-410E-9BC9-3A05E177EFEE";
paths = (
{
closed = 1;
nodes = (
"468 392 LINE",
"504 347 OFFCURVE",
"522 297 OFFCURVE",
"522 241 CURVE",
"522 174 OFFCURVE",
"498 118 OFFCURVE",
"451 71 CURVE",
"404 24 OFFCURVE",
"347 0 OFFCURVE",
"281 0 CURVE",
"225 0 OFFCURVE",
"175 18 OFFCURVE",
"130 53 CURVE",
"97 20 LINE",
"59 58 LINE",
"91 91 LINE",
"57 135 OFFCURVE",
"40 185 OFFCURVE",
"40 241 CURVE",
"40 307 OFFCURVE",
"63 364 OFFCURVE",
"110 411 CURVE",
"157 458 OFFCURVE",
"214 482 OFFCURVE",
"281 482 CURVE",
"337 482 OFFCURVE",
"387 465 OFFCURVE",
"430 430 CURVE",
"463 463 LINE",
"502 425 LINE"
);
},
{
closed = 1;
nodes = (
"392 391 LINE",
"359 416 OFFCURVE",
"322 428 OFFCURVE",
"281 428 CURVE",
"230 428 OFFCURVE",
"186 409 OFFCURVE",
"149 373 CURVE",
"112 336 OFFCURVE",
"94 292 OFFCURVE",
"94 241 CURVE",
"94 200 OFFCURVE",
"106 163 OFFCURVE",
"131 130 CURVE"
);
},
{
closed = 1;
nodes = (
"167 92 LINE",
"202 66 OFFCURVE",
"239 54 OFFCURVE",
"281 54 CURVE",
"332 54 OFFCURVE",
"376 72 OFFCURVE",
"413 109 CURVE",
"449 146 OFFCURVE",
"468 190 OFFCURVE",
"468 241 CURVE",
"468 283 OFFCURVE",
"455 320 OFFCURVE",
"430 353 CURVE"
);
}
);
width = 562;
}
);
unicode = 2205;
},
{
glyphname = infinity;
lastChange = "2018-03-14 16:28:29 +0000";
layers = (
{
layerId = "88C65AEA-4CF7-410E-9BC9-3A05E177EFEE";
paths = (
{
closed = 1;
nodes = (
"328 147 OFFCURVE",
"284 127 OFFCURVE",
"236 105 CURVE",
"188 84 OFFCURVE",
"138 85 OFFCURVE",
"93 111 CURVE",
"52 137 OFFCURVE",
"26 177 OFFCURVE",
"21 224 CURVE",
"18 251 OFFCURVE",
"23 277 OFFCURVE",
"36 304 CURVE",
"60 356 OFFCURVE",
"114 395 OFFCURVE",
"176 388 CURVE",
"221 384 OFFCURVE",
"268 365 OFFCURVE",
"303 338 CURVE",
"320 327 OFFCURVE",
"352 308 OFFCURVE",
"373 288 CURVE",
"415 330 OFFCURVE",
"451 359 OFFCURVE",
"498 377 CURVE",
"543 397 OFFCURVE",
"606 399 OFFCURVE",
"653 369 CURVE",
"701 337 OFFCURVE",
"730 280 OFFCURVE",
"725 224 CURVE",
"722 201 OFFCURVE",
"715 180 OFFCURVE",
"702 160 CURVE",
"679 123 OFFCURVE",
"636 95 OFFCURVE",
"584 90 CURVE",
"546 87 OFFCURVE",
"501 102 OFFCURVE",
"463 125 CURVE",
"429 149 OFFCURVE",
"411 155 OFFCURVE",
"373 189 CURVE"
);
},
{
closed = 1;
nodes = (
"464 201 OFFCURVE",
"491 177 OFFCURVE",
"535 160 CURVE",
"572 146 OFFCURVE",
"602 153 OFFCURVE",
"630 177 CURVE",
"652 196 OFFCURVE",
"665 213 OFFCURVE",
"665 241 CURVE",
"665 279 OFFCURVE",
"643 309 OFFCURVE",
"606 322 CURVE",
"565 335 OFFCURVE",
"524 329 OFFCURVE",
"491 307 CURVE",
"476 296 OFFCURVE",
"454 275 OFFCURVE",
"418 239 CURVE"
);
},
{
closed = 1;
nodes = (
"304 263 OFFCURVE",
"285 275 OFFCURVE",
"273 286 CURVE",
"241 316 OFFCURVE",
"175 333 OFFCURVE",
"140 322 CURVE",
"103 309 OFFCURVE",
"91 284 OFFCURVE",
"91 246 CURVE",
"88 213 OFFCURVE",
"97 178 OFFCURVE",
"139 163 CURVE",
"159 154 OFFCURVE",
"183 157 OFFCURVE",
"211 167 CURVE",
"249 181 OFFCURVE",
"279 200 OFFCURVE",
"327 239 CURVE"
);
}
);
width = 746;
}
);
unicode = 221E;
},
{
glyphname = integral;
lastChange = "2018-03-17 10:43:13 +0000";
layers = (
{
layerId = "88C65AEA-4CF7-410E-9BC9-3A05E177EFEE";
paths = (
{
closed = 1;
nodes = (
"69 0 OFFCURVE",
"224 -7 OFFCURVE",
"244 10 CURVE",
"285 36 OFFCURVE",
"382 508 OFFCURVE",
"408 533 CURVE",
"434 551 OFFCURVE",
"504 549 OFFCURVE",
"560 546 CURVE",
"578 563 OFFCURVE",
"576 599 OFFCURVE",
"549 608 CURVE",
"535 614 OFFCURVE",
"392 623 OFFCURVE",
"348 585 CURVE",
"314 552 OFFCURVE",
"228 105 OFFCURVE",
"197 83 CURVE",
"170 59 OFFCURVE",
"83 77 OFFCURVE",
"62 72 CURVE",
"33 48 OFFCURVE",
"37 24 OFFCURVE",
"52 7 CURVE"
);
}
);
width = 612;
}
);
unicode = 222B;
},
{
glyphname = product;
lastChange = "2018-03-17 10:56:54 +0000";
layers = (
{
layerId = "88C65AEA-4CF7-410E-9BC9-3A05E177EFEE";
paths = (
{
closed = 1;
nodes = (
"162 -3 OFFCURVE",
"120 0 OFFCURVE",
"109 6 CURVE",
"97 20 OFFCURVE",
"118 350 OFFCURVE",
"103 364 CURVE",
"94 374 OFFCURVE",
"46 363 OFFCURVE",
"35 370 CURVE",
"28 381 OFFCURVE",
"28 427 OFFCURVE",
"35 439 CURVE",
"46 446 OFFCURVE",
"458 448 OFFCURVE",
"467 439 CURVE",
"477 419 OFFCURVE",
"480 390 OFFCURVE",
"467 370 CURVE",
"453 361 OFFCURVE",
"407 372 OFFCURVE",
"396 365 CURVE",
"385 351 OFFCURVE",
"400 31 OFFCURVE",
"384 6 CURVE",
"369 1 OFFCURVE",
"348 -3 OFFCURVE",
"326 6 CURVE",
"309 17 OFFCURVE",
"331 354 OFFCURVE",
"315 368 CURVE",
"301 375 OFFCURVE",
"194 377 OFFCURVE",
"184 367 CURVE",
"175 358 OFFCURVE",
"184 23 OFFCURVE",
"175 6 CURVE"
);
}
);
width = 506;
}
);
unicode = 220F;
},
{
glyphname = summation;
lastChange = "2018-03-17 10:50:52 +0000";
layers = (
{
layerId = "88C65AEA-4CF7-410E-9BC9-3A05E177EFEE";
paths = (
{
closed = 1;
nodes = (
"138 65 OFFCURVE",
"457 78 OFFCURVE",
"477 67 CURVE",
"498 49 OFFCURVE",
"489 28 OFFCURVE",
"478 8 CURVE",
"462 -3 OFFCURVE",
"54 0 OFFCURVE",
"44 8 CURVE",
"34 25 OFFCURVE",
"44 51 OFFCURVE",
"44 77 CURVE",
"48 102 OFFCURVE",
"193 284 OFFCURVE",
"193 308 CURVE",
"193 333 OFFCURVE",
"65 529 OFFCURVE",
"54 548 CURVE",
"43 563 OFFCURVE",
"43 589 OFFCURVE",
"54 604 CURVE",
"72 616 OFFCURVE",
"441 615 OFFCURVE",
"461 604 CURVE",
"472 589 OFFCURVE",
"470 563 OFFCURVE",
"461 552 CURVE",
"448 543 OFFCURVE",
"160 554 OFFCURVE",
"147 545 CURVE",
"137 530 OFFCURVE",
"285 333 OFFCURVE",
"285 305 CURVE",
"285 280 OFFCURVE",
"116 95 OFFCURVE",
"128 76 CURVE"
);
}
);
width = 530;
}
);
unicode = 2211;
},
{
glyphname = radical;
lastChange = "2018-03-16 21:51:26 +0000";
layers = (
{
layerId = "88C65AEA-4CF7-410E-9BC9-3A05E177EFEE";
paths = (
{
closed = 1;
nodes = (
"60 317 OFFCURVE",
"159 1 OFFCURVE",
"284 1 CURVE",
"432 7 OFFCURVE",
"466 578 OFFCURVE",
"492 603 CURVE",
"518 621 OFFCURVE",
"587 613 OFFCURVE",
"643 613 CURVE",
"661 630 OFFCURVE",
"659 677 OFFCURVE",
"632 686 CURVE",
"559 701 OFFCURVE",
"470 696 OFFCURVE",
"426 658 CURVE",
"392 625 OFFCURVE",
"351 104 OFFCURVE",
"276 96 CURVE",
"226 96 OFFCURVE",
"134 354 OFFCURVE",
"103 369 CURVE",
"74 369 OFFCURVE",
"28 341 OFFCURVE",
"43 324 CURVE"
);
}
);
width = 695;
}
);
unicode = 221A;
},
{
glyphname = partialdiff;
lastChange = "2018-03-16 09:20:28 +0000";
layers = (
{
layerId = "88C65AEA-4CF7-410E-9BC9-3A05E177EFEE";
paths = (
{
closed = 1;
nodes = (
"242 650 OFFCURVE",
"187 681 OFFCURVE",
"187 697 CURVE SMOOTH",
"187 715 OFFCURVE",
"202 723 OFFCURVE",
"224 723 CURVE SMOOTH",
"240 723 OFFCURVE",
"282 710 OFFCURVE",
"304 695 CURVE",
"409 635 OFFCURVE",
"490 428 OFFCURVE",
"490 199 CURVE SMOOTH",
"490 126 OFFCURVE",
"477 64 OFFCURVE",
"448 30 CURVE",
"416 4 OFFCURVE",
"358 0 OFFCURVE",
"316 0 CURVE SMOOTH",
"295 0 OFFCURVE",
"277 1 OFFCURVE",
"270 1 CURVE",
"253 1 OFFCURVE",
"238 1 OFFCURVE",
"224 1 CURVE SMOOTH",
"168 1 OFFCURVE",
"130 4 OFFCURVE",
"92 30 CURVE",
"46 67 OFFCURVE",
"36 201 OFFCURVE",
"36 201 CURVE",
"32 271 OFFCURVE",
"52 329 OFFCURVE",
"95 374 CURVE",
"138 419 OFFCURVE",
"197 442 OFFCURVE",
"272 442 CURVE",
"285 442 OFFCURVE",
"307 440 OFFCURVE",
"326 440 CURVE SMOOTH",
"341 440 OFFCURVE",
"355 441 OFFCURVE",
"360 445 CURVE",
"362 446 OFFCURVE",
"363 450 OFFCURVE",
"363 454 CURVE SMOOTH",
"363 483 OFFCURVE",
"352 568 OFFCURVE",
"270 628 CURVE"
);
},
{
closed = 1;
nodes = (
"304 372 OFFCURVE",
"288 374 OFFCURVE",
"272 373 CURVE",
"222 373 OFFCURVE",
"181 362 OFFCURVE",
"147 327 CURVE SMOOTH",
"119 299 OFFCURVE",
"108 279 OFFCURVE",
"111 204 CURVE",
"114 129 OFFCURVE",
"135 103 OFFCURVE",
"154 86 CURVE",
"173 69 OFFCURVE",
"224 68 OFFCURVE",
"271 68 CURVE",
"318 68 OFFCURVE",
"349 65 OFFCURVE",
"372 86 CURVE",
"395 107 OFFCURVE",
"418 137 OFFCURVE",
"416 218 CURVE",
"411 353 OFFCURVE",
"411 364 OFFCURVE",
"320 373 CURVE"
);
}
);
width = 525;
}
);
unicode = 2202;
},
{
glyphname = percent;
lastChange = "2018-03-16 21:45:56 +0000";
layers = (
{
layerId = "88C65AEA-4CF7-410E-9BC9-3A05E177EFEE";
paths = (
{
closed = 1;
nodes = (
"263 327 OFFCURVE",
"322 375 OFFCURVE",
"322 461 CURVE",
"322 547 OFFCURVE",
"263 611 OFFCURVE",
"177 611 CURVE",
"91 611 OFFCURVE",
"30 547 OFFCURVE",
"30 461 CURVE",
"30 375 OFFCURVE",
"91 327 OFFCURVE",
"177 327 CURVE"
);
},
{
closed = 1;
nodes = (
"128 395 OFFCURVE",
"97 413 OFFCURVE",
"97 461 CURVE SMOOTH",
"97 508 OFFCURVE",
"128 541 OFFCURVE",
"175 541 CURVE",
"222 541 OFFCURVE",
"252 508 OFFCURVE",
"252 461 CURVE SMOOTH",
"252 413 OFFCURVE",
"222 395 OFFCURVE",
"175 395 CURVE"
);
},
{
closed = 1;
nodes = (
"656 0 OFFCURVE",
"715 45 OFFCURVE",
"715 131 CURVE",
"715 217 OFFCURVE",
"656 281 OFFCURVE",
"570 281 CURVE",
"484 281 OFFCURVE",
"423 217 OFFCURVE",
"423 131 CURVE",
"423 45 OFFCURVE",
"484 0 OFFCURVE",
"570 0 CURVE"
);
},
{
closed = 1;
nodes = (
"521 66 OFFCURVE",
"490 83 OFFCURVE",
"490 131 CURVE SMOOTH",
"490 178 OFFCURVE",
"521 211 OFFCURVE",
"568 211 CURVE",
"615 211 OFFCURVE",
"645 178 OFFCURVE",
"645 131 CURVE SMOOTH",
"645 83 OFFCURVE",
"615 66 OFFCURVE",
"568 66 CURVE"
);
},
{
closed = 1;
nodes = (
"485 585 OFFCURVE",
"174 27 OFFCURVE",
"181 11 CURVE",
"194 -4 OFFCURVE",
"234 -2 OFFCURVE",
"253 11 CURVE",
"271 25 OFFCURVE",
"589 585 OFFCURVE",
"579 604 CURVE",
"564 618 OFFCURVE",
"527 617 OFFCURVE",
"505 604 CURVE"
);
}
);
width = 745;
}
);
unicode = 0025;
},
{
glyphname = perthousand;
lastChange = "2018-03-17 10:46:32 +0000";
layers = (
{
layerId = "88C65AEA-4CF7-410E-9BC9-3A05E177EFEE";
paths = (
{
closed = 1;
nodes = (
"273 330 OFFCURVE",
"332 376 OFFCURVE",
"332 462 CURVE",
"332 548 OFFCURVE",
"273 612 OFFCURVE",
"187 612 CURVE",
"101 612 OFFCURVE",
"40 548 OFFCURVE",
"40 462 CURVE",
"40 376 OFFCURVE",
"101 330 OFFCURVE",
"187 330 CURVE"
);
},
{
closed = 1;
nodes = (
"138 405 OFFCURVE",
"107 414 OFFCURVE",
"107 462 CURVE SMOOTH",
"107 509 OFFCURVE",
"138 542 OFFCURVE",
"185 542 CURVE",
"232 542 OFFCURVE",
"262 509 OFFCURVE",
"262 462 CURVE SMOOTH",
"262 414 OFFCURVE",
"232 405 OFFCURVE",
"185 405 CURVE"
);
},
{
closed = 1;
nodes = (
"635 2 OFFCURVE",
"694 52 OFFCURVE",
"694 122 CURVE",
"694 208 OFFCURVE",
"635 272 OFFCURVE",
"549 272 CURVE",
"463 272 OFFCURVE",
"402 208 OFFCURVE",
"402 122 CURVE",
"402 52 OFFCURVE",
"463 2 OFFCURVE",
"549 2 CURVE"
);
},
{
closed = 1;
nodes = (
"500 67 OFFCURVE",
"469 74 OFFCURVE",
"469 122 CURVE SMOOTH",
"469 169 OFFCURVE",
"500 202 OFFCURVE",
"547 202 CURVE",
"594 202 OFFCURVE",
"624 169 OFFCURVE",
"624 122 CURVE SMOOTH",
"624 74 OFFCURVE",
"594 67 OFFCURVE",
"547 67 CURVE"
);
},
{
closed = 1;
nodes = (
"479 585 OFFCURVE",
"168 27 OFFCURVE",
"175 11 CURVE",
"188 -4 OFFCURVE",
"218 -2 OFFCURVE",
"237 11 CURVE",
"255 25 OFFCURVE",
"568 585 OFFCURVE",
"558 604 CURVE",
"543 618 OFFCURVE",
"521 617 OFFCURVE",
"499 604 CURVE"
);
},
{
closed = 1;
nodes = (
"970 0 OFFCURVE",
"1029 52 OFFCURVE",
"1029 122 CURVE",
"1029 208 OFFCURVE",
"970 272 OFFCURVE",
"884 272 CURVE",
"798 272 OFFCURVE",
"737 208 OFFCURVE",
"737 122 CURVE",
"737 52 OFFCURVE",
"798 0 OFFCURVE",
"884 0 CURVE"
);
},
{
closed = 1;
nodes = (
"835 67 OFFCURVE",
"804 74 OFFCURVE",
"804 122 CURVE SMOOTH",
"804 169 OFFCURVE",
"835 202 OFFCURVE",
"882 202 CURVE",
"929 202 OFFCURVE",
"959 169 OFFCURVE",
"959 122 CURVE SMOOTH",
"959 74 OFFCURVE",
"929 67 OFFCURVE",
"882 67 CURVE"
);
}
);
width = 1069;
}
);
unicode = 2030;
},
{
glyphname = upArrow;
lastChange = "2018-03-14 12:08:03 +0000";
layers = (
{
layerId = "88C65AEA-4CF7-410E-9BC9-3A05E177EFEE";
paths = (
{
closed = 1;
nodes = (
"10 342 OFFCURVE",
"42 326 OFFCURVE",
"58 326 CURVE",
"75 324 OFFCURVE",
"199 491 OFFCURVE",
"212 484 CURVE",
"224 476 OFFCURVE",
"208 31 OFFCURVE",
"221 8 CURVE",
"233 -3 OFFCURVE",
"261 -2 OFFCURVE",
"279 8 CURVE",
"294 20 OFFCURVE",
"277 473 OFFCURVE",
"295 486 CURVE",
"310 494 OFFCURVE",
"415 336 OFFCURVE",
"447 336 CURVE",
"469 342 OFFCURVE",
"488 355 OFFCURVE",
"488 376 CURVE",
"482 397 OFFCURVE",
"282 614 OFFCURVE",
"254 614 CURVE SMOOTH",
"220 614 OFFCURVE",
"15 384 OFFCURVE",
"10 364 CURVE"
);
}
);
width = 498;
}
);
unicode = 2191;
},
{
glyphname = northEastArrow;
lastChange = "2018-03-14 12:09:13 +0000";
layers = (
{
layerId = "88C65AEA-4CF7-410E-9BC9-3A05E177EFEE";
paths = (
{
closed = 1;
nodes = (
"107 501 OFFCURVE",
"118 467 OFFCURVE",
"129 456 CURVE",
"140 442 OFFCURVE",
"346 472 OFFCURVE",
"350 458 CURVE",
"353 444 OFFCURVE",
"27 141 OFFCURVE",
"20 115 CURVE",
"20 99 OFFCURVE",
"41 80 OFFCURVE",
"61 74 CURVE",
"80 72 OFFCURVE",
"388 405 OFFCURVE",
"410 401 CURVE",
"426 396 OFFCURVE",
"389 210 OFFCURVE",
"411 188 CURVE",
"431 176 OFFCURVE",
"454 172 OFFCURVE",
"469 187 CURVE",
"479 206 OFFCURVE",
"491 501 OFFCURVE",
"472 521 CURVE SMOOTH",
"448 545 OFFCURVE",
"140 527 OFFCURVE",
"122 516 CURVE"
);
}
);
width = 502;
}
);
unicode = 2197;
},
{
glyphname = rightArrow;
lastChange = "2018-03-14 12:08:32 +0000";
layers = (
{
layerId = "88C65AEA-4CF7-410E-9BC9-3A05E177EFEE";
paths = (
{
closed = 1;
nodes = (
"362 545 OFFCURVE",
"346 513 OFFCURVE",
"346 497 CURVE",
"344 480 OFFCURVE",
"511 356 OFFCURVE",
"504 343 CURVE",
"496 331 OFFCURVE",
"51 347 OFFCURVE",
"28 334 CURVE",
"17 322 OFFCURVE",
"18 294 OFFCURVE",
"28 276 CURVE",
"40 261 OFFCURVE",
"493 278 OFFCURVE",
"506 260 CURVE",
"514 245 OFFCURVE",
"356 140 OFFCURVE",
"356 108 CURVE",
"362 86 OFFCURVE",
"375 67 OFFCURVE",
"396 67 CURVE",
"417 73 OFFCURVE",
"634 273 OFFCURVE",
"634 301 CURVE SMOOTH",
"634 335 OFFCURVE",
"404 540 OFFCURVE",
"384 545 CURVE"
);
}
);
width = 654;
}
);
unicode = 2192;
},
{
glyphname = southEastArrow;
lastChange = "2018-03-14 12:09:44 +0000";
layers = (
{
layerId = "88C65AEA-4CF7-410E-9BC9-3A05E177EFEE";
paths = (
{
closed = 1;
nodes = (
"446 451 OFFCURVE",
"412 439 OFFCURVE",
"401 428 CURVE",
"388 417 OFFCURVE",
"418 212 OFFCURVE",
"404 207 CURVE",
"390 205 OFFCURVE",
"87 531 OFFCURVE",
"61 538 CURVE",
"45 537 OFFCURVE",
"26 516 OFFCURVE",
"20 497 CURVE",
"18 478 OFFCURVE",
"350 169 OFFCURVE",
"347 147 CURVE",
"342 131 OFFCURVE",
"156 169 OFFCURVE",
"133 146 CURVE",
"122 126 OFFCURVE",
"118 103 OFFCURVE",
"132 89 CURVE",
"152 78 OFFCURVE",
"446 66 OFFCURVE",
"466 86 CURVE SMOOTH",
"490 110 OFFCURVE",
"473 417 OFFCURVE",
"462 435 CURVE"
);
}
);
width = 498;
}
);
unicode = 2198;
},
{
glyphname = downArrow;
lastChange = "2018-03-14 12:07:56 +0000";
layers = (
{
layerId = "88C65AEA-4CF7-410E-9BC9-3A05E177EFEE";
paths = (
{
closed = 1;
nodes = (
"15 230 OFFCURVE",
"220 0 OFFCURVE",
"254 0 CURVE SMOOTH",
"282 0 OFFCURVE",
"482 217 OFFCURVE",
"488 238 CURVE",
"488 259 OFFCURVE",
"469 272 OFFCURVE",
"447 278 CURVE",
"415 278 OFFCURVE",
"310 120 OFFCURVE",
"295 128 CURVE",
"277 141 OFFCURVE",
"294 594 OFFCURVE",
"279 606 CURVE",
"261 616 OFFCURVE",
"233 617 OFFCURVE",
"221 606 CURVE",
"208 583 OFFCURVE",
"224 138 OFFCURVE",
"212 130 CURVE",
"199 123 OFFCURVE",
"75 290 OFFCURVE",
"58 288 CURVE",
"42 288 OFFCURVE",
"10 272 OFFCURVE",
"10 250 CURVE"
);
}
);
width = 498;
}
);
unicode = 2193;
},
{
glyphname = southWestArrow;
lastChange = "2018-03-14 12:09:57 +0000";
layers = (
{
layerId = "88C65AEA-4CF7-410E-9BC9-3A05E177EFEE";
paths = (
{
closed = 1;
nodes = (
"396 110 OFFCURVE",
"384 144 OFFCURVE",
"373 155 CURVE",
"362 169 OFFCURVE",
"157 138 OFFCURVE",
"152 152 CURVE",
"149 166 OFFCURVE",
"475 470 OFFCURVE",
"483 495 CURVE",
"482 511 OFFCURVE",
"461 531 OFFCURVE",
"442 536 CURVE",
"422 538 OFFCURVE",
"114 206 OFFCURVE",
"92 210 CURVE",
"76 214 OFFCURVE",
"113 400 OFFCURVE",
"91 423 CURVE",
"71 434 OFFCURVE",
"48 439 OFFCURVE",
"34 424 CURVE",
"23 405 OFFCURVE",
"11 110 OFFCURVE",
"31 90 CURVE SMOOTH",
"55 66 OFFCURVE",
"362 84 OFFCURVE",
"380 94 CURVE"
);
}
);
width = 503;
}
);
unicode = 2199;
},
{
glyphname = leftArrow;
lastChange = "2018-03-14 12:08:50 +0000";
layers = (
{
layerId = "88C65AEA-4CF7-410E-9BC9-3A05E177EFEE";
paths = (
{
closed = 1;
nodes = (
"292 66 OFFCURVE",
"308 98 OFFCURVE",
"308 114 CURVE",
"310 131 OFFCURVE",
"143 255 OFFCURVE",
"150 268 CURVE",
"158 280 OFFCURVE",
"603 264 OFFCURVE",
"626 277 CURVE",
"637 289 OFFCURVE",
"636 317 OFFCURVE",
"626 335 CURVE",
"614 350 OFFCURVE",
"161 333 OFFCURVE",
"148 351 CURVE",
"140 366 OFFCURVE",
"298 471 OFFCURVE",
"298 503 CURVE",
"292 525 OFFCURVE",
"279 544 OFFCURVE",
"258 544 CURVE",
"237 538 OFFCURVE",
"20 338 OFFCURVE",
"20 310 CURVE SMOOTH",
"20 276 OFFCURVE",
"250 71 OFFCURVE",
"270 66 CURVE"
);
}
);
width = 654;
}
);
unicode = 2190;
},
{
glyphname = northWestArrow;
lastChange = "2018-03-14 12:10:13 +0000";
layers = (
{
layerId = "88C65AEA-4CF7-410E-9BC9-3A05E177EFEE";
paths = (
{
closed = 1;
nodes = (
"52 161 OFFCURVE",
"86 172 OFFCURVE",
"97 183 CURVE",
"111 194 OFFCURVE",
"80 400 OFFCURVE",
"95 404 CURVE",
"109 407 OFFCURVE",
"412 81 OFFCURVE",
"437 74 CURVE",
"454 74 OFFCURVE",
"473 95 OFFCURVE",
"478 115 CURVE",
"481 134 OFFCURVE",
"148 442 OFFCURVE",
"152 464 CURVE",
"157 480 OFFCURVE",
"343 443 OFFCURVE",
"365 465 CURVE",
"377 485 OFFCURVE",
"381 508 OFFCURVE",
"366 523 CURVE",
"347 533 OFFCURVE",
"52 545 OFFCURVE",
"32 525 CURVE SMOOTH",
"8 501 OFFCURVE",
"26 194 OFFCURVE",
"37 176 CURVE"
);
}
);
width = 498;
}
);
unicode = 2196;
},
{
glyphname = leftRightArrow;
lastChange = "2018-03-14 12:17:47 +0000";
layers = (
{
layerId = "88C65AEA-4CF7-410E-9BC9-3A05E177EFEE";
paths = (
{
closed = 1;
nodes = (
"20 276 OFFCURVE",
"250 71 OFFCURVE",
"270 66 CURVE",
"292 66 OFFCURVE",
"308 98 OFFCURVE",
"308 114 CURVE",
"310 131 OFFCURVE",
"143 255 OFFCURVE",
"150 268 CURVE",
"157 278 OFFCURVE",
"639 268 OFFCURVE",
"645 260 CURVE",
"653 245 OFFCURVE",
"495 140 OFFCURVE",
"495 108 CURVE",
"501 86 OFFCURVE",
"514 67 OFFCURVE",
"535 67 CURVE",
"556 73 OFFCURVE",
"773 273 OFFCURVE",
"773 301 CURVE SMOOTH",
"773 335 OFFCURVE",
"543 540 OFFCURVE",
"523 545 CURVE",
"501 545 OFFCURVE",
"485 513 OFFCURVE",
"485 497 CURVE",
"483 480 OFFCURVE",
"650 356 OFFCURVE",
"643 343 CURVE",
"636 333 OFFCURVE",
"160 335 OFFCURVE",
"148 351 CURVE",
"140 366 OFFCURVE",
"298 471 OFFCURVE",
"298 503 CURVE",
"292 525 OFFCURVE",
"279 544 OFFCURVE",
"258 544 CURVE",
"237 538 OFFCURVE",
"20 338 OFFCURVE",
"20 310 CURVE SMOOTH"
);
}
);
width = 793;
}
);
unicode = 2194;
},
{
glyphname = upDownArrow;
lastChange = "2018-03-14 12:19:29 +0000";
layers = (
{
layerId = "88C65AEA-4CF7-410E-9BC9-3A05E177EFEE";
paths = (
{
closed = 1;
nodes = (
"240 723 OFFCURVE",
"35 493 OFFCURVE",
"30 473 CURVE",
"30 451 OFFCURVE",
"62 435 OFFCURVE",
"78 435 CURVE",
"95 433 OFFCURVE",
"219 597 OFFCURVE",
"232 590 CURVE",
"242 583 OFFCURVE",
"232 140 OFFCURVE",
"224 134 CURVE",
"209 126 OFFCURVE",
"104 279 OFFCURVE",
"72 279 CURVE",
"50 273 OFFCURVE",
"31 260 OFFCURVE",
"31 239 CURVE",
"37 218 OFFCURVE",
"237 1 OFFCURVE",
"265 1 CURVE SMOOTH",
"299 1 OFFCURVE",
"504 231 OFFCURVE",
"509 251 CURVE",
"509 273 OFFCURVE",
"477 289 OFFCURVE",
"461 289 CURVE",
"444 291 OFFCURVE",
"320 129 OFFCURVE",
"307 136 CURVE",
"297 143 OFFCURVE",
"299 580 OFFCURVE",
"315 592 CURVE",
"330 600 OFFCURVE",
"435 445 OFFCURVE",
"467 445 CURVE",
"489 451 OFFCURVE",
"508 464 OFFCURVE",
"508 485 CURVE",
"502 506 OFFCURVE",
"302 723 OFFCURVE",
"274 723 CURVE SMOOTH"
);
}
);
width = 539;
}
);
unicode = 2195;
},
{
glyphname = lozenge;
lastChange = "2018-03-17 10:59:12 +0000";
layers = (
{
layerId = "88C65AEA-4CF7-410E-9BC9-3A05E177EFEE";
paths = (
{
closed = 1;
nodes = (
"40 272 OFFCURVE",
"206 29 OFFCURVE",
"226 14 CURVE",
"254 -6 OFFCURVE",
"289 -5 OFFCURVE",
"311 14 CURVE",
"343 55 OFFCURVE",
"500 272 OFFCURVE",
"500 307 CURVE",
"500 348 OFFCURVE",
"345 562 OFFCURVE",
"311 600 CURVE",
"289 617 OFFCURVE",
"254 616 OFFCURVE",
"226 600 CURVE",
"213 590 OFFCURVE",
"40 345 OFFCURVE",
"40 307 CURVE"
);
},
{
closed = 1;
nodes = (
"123 342 OFFCURVE",
"231 518 OFFCURVE",
"269 518 CURVE",
"294 518 OFFCURVE",
"413 343 OFFCURVE",
"413 306 CURVE",
"413 279 OFFCURVE",
"294 90 OFFCURVE",
"269 90 CURVE",
"246 90 OFFCURVE",
"123 272 OFFCURVE",
"123 306 CURVE"
);
}
);
width = 540;
}
);
unicode = 25CA;
},
{
glyphname = at;
lastChange = "2018-03-16 21:46:54 +0000";
layers = (
{
layerId = "88C65AEA-4CF7-410E-9BC9-3A05E177EFEE";
paths = (
{
closed = 1;
nodes = (
"34 298 OFFCURVE",
"34 140 OFFCURVE",
"87 68 CURVE",
"139 0 OFFCURVE",
"238 0 OFFCURVE",
"376 1 CURVE",
"442 1 OFFCURVE",
"505 -5 OFFCURVE",
"523 10 CURVE",
"543 32 OFFCURVE",
"543 53 OFFCURVE",
"523 64 CURVE",
"498 77 OFFCURVE",
"435 73 OFFCURVE",
"366 73 CURVE",
"274 73 OFFCURVE",
"186 67 OFFCURVE",
"153 117 CURVE",
"120 176 OFFCURVE",
"112 202 OFFCURVE",
"112 275 CURVE",
"115 327 OFFCURVE",
"127 382 OFFCURVE",
"153 428 CURVE",
"177 467 OFFCURVE",
"194 502 OFFCURVE",
"235 520 CURVE SMOOTH",
"304 550 OFFCURVE",
"387 544 OFFCURVE",
"468 533 CURVE",
"517 526 OFFCURVE",
"551 515 OFFCURVE",
"569 489 CURVE",
"584 457 OFFCURVE",
"596 414 OFFCURVE",
"594 377 CURVE",
"594 312 OFFCURVE",
"594 234 OFFCURVE",
"576 216 CURVE",
"557 202 OFFCURVE",
"528 201 OFFCURVE",
"508 222 CURVE",
"497 253 OFFCURVE",
"518 427 OFFCURVE",
"503 446 CURVE SMOOTH",
"492 460 OFFCURVE",
"461 456 OFFCURVE",
"353 456 CURVE SMOOTH",
"299 456 OFFCURVE",
"256 441 OFFCURVE",
"226 409 CURVE SMOOTH",
"196 376 OFFCURVE",
"182 339 OFFCURVE",
"185 288 CURVE",
"185 288 OFFCURVE",
"190 203 OFFCURVE",
"222 176 CURVE",
"255 147 OFFCURVE",
"292 144 OFFCURVE",
"352 144 CURVE SMOOTH",
"387 144 OFFCURVE",
"601 146 OFFCURVE",
"615 149 CURVE",
"662 163 OFFCURVE",
"662 297 OFFCURVE",
"662 415 CURVE",
"662 458 OFFCURVE",
"641 550 OFFCURVE",
"608 567 CURVE",
"565 588 OFFCURVE",
"524 600 OFFCURVE",
"474 605 CURVE",
"408 614 OFFCURVE",
"340 619 OFFCURVE",
"274 609 CURVE",
"227 602 OFFCURVE",
"170 585 OFFCURVE",
"121 528 CURVE SMOOTH",
"87 489 OFFCURVE",
"67 448 OFFCURVE",
"47 350 CURVE"
);
},
{
closed = 1;
nodes = (
"258 341 OFFCURVE",
"271 356 OFFCURVE",
"285 368 CURVE SMOOTH",
"304 384 OFFCURVE",
"338 387 OFFCURVE",
"372 387 CURVE",
"372 387 OFFCURVE",
"424 391 OFFCURVE",
"429 382 CURVE SMOOTH",
"434 373 OFFCURVE",
"437 355 OFFCURVE",
"437 298 CURVE SMOOTH",
"437 240 OFFCURVE",
"439 234 OFFCURVE",
"424 220 CURVE",
"406 205 OFFCURVE",
"408 208 OFFCURVE",
"373 208 CURVE SMOOTH",
"340 208 OFFCURVE",
"304 208 OFFCURVE",
"289 221 CURVE",
"277 233 OFFCURVE",
"265 235 OFFCURVE",
"261 289 CURVE SMOOTH"
);
}
);
width = 692;
}
);
unicode = 0040;
},
{
glyphname = ampersand;
lastChange = "2018-03-16 21:59:56 +0000";
layers = (
{
layerId = "88C65AEA-4CF7-410E-9BC9-3A05E177EFEE";
paths = (
{
closed = 1;
nodes = (
"41 193 OFFCURVE",
"60 227 OFFCURVE",
"74 246 CURVE SMOOTH",
"101 282 OFFCURVE",
"125 301 OFFCURVE",
"153 326 CURVE SMOOTH",
"177 348 OFFCURVE",
"156 365 OFFCURVE",
"135 390 CURVE SMOOTH",
"117 411 OFFCURVE",
"101 449 OFFCURVE",
"101 480 CURVE SMOOTH",
"101 525 OFFCURVE",
"113 544 OFFCURVE",
"135 563 CURVE SMOOTH",
"170 594 OFFCURVE",
"202 610 OFFCURVE",
"272 610 CURVE SMOOTH",
"335 610 OFFCURVE",
"356 593 OFFCURVE",
"390 543 CURVE SMOOTH",
"417 503 OFFCURVE",
"406 438 OFFCURVE",
"386 411 CURVE SMOOTH",
"361 377 OFFCURVE",
"335 371 OFFCURVE",
"330 338 CURVE SMOOTH",
"326 313 OFFCURVE",
"376 249 OFFCURVE",
"417 221 CURVE SMOOTH",
"434 209 OFFCURVE",
"469 263 OFFCURVE",
"484 263 CURVE SMOOTH",
"497 263 OFFCURVE",
"534 232 OFFCURVE",
"534 215 CURVE SMOOTH",
"534 196 OFFCURVE",
"481 171 OFFCURVE",
"484 146 CURVE SMOOTH",
"486 126 OFFCURVE",
"567 69 OFFCURVE",
"584 19 CURVE SMOOTH",
"590 1 OFFCURVE",
"531 -8 OFFCURVE",
"503 10 CURVE",
"489 25 OFFCURVE",
"448 88 OFFCURVE",
"417 88 CURVE SMOOTH",
"390 88 OFFCURVE",
"345 2 OFFCURVE",
"284 1 CURVE SMOOTH",
"206 0 OFFCURVE",
"142 -9 OFFCURVE",
"86 21 CURVE",
"46 60 OFFCURVE",
"39 113 OFFCURVE",
"40 153 CURVE SMOOTH"
);
},
{
closed = 1;
nodes = (
"104 174 OFFCURVE",
"108 105 OFFCURVE",
"129 85 CURVE SMOOTH",
"158 58 OFFCURVE",
"213 66 OFFCURVE",
"259 67 CURVE SMOOTH",
"295 68 OFFCURVE",
"375 151 OFFCURVE",
"357 169 CURVE SMOOTH",
"322 204 OFFCURVE",
"270 288 OFFCURVE",
"236 290 CURVE",
"192 288 OFFCURVE",
"164 245 OFFCURVE",
"139 215 CURVE SMOOTH"
);
},
{
closed = 1;
nodes = (
"169 441 OFFCURVE",
"217 389 OFFCURVE",
"252 389 CURVE SMOOTH",
"299 389 OFFCURVE",
"349 450 OFFCURVE",
"337 491 CURVE SMOOTH",
"326 528 OFFCURVE",
"304 544 OFFCURVE",
"264 544 CURVE SMOOTH",
"226 544 OFFCURVE",
"171 525 OFFCURVE",
"170 482 CURVE SMOOTH"
);
}
);
width = 624;
}
);
unicode = 0026;
},
{
glyphname = paragraph;
lastChange = "2018-03-14 15:42:52 +0000";
layers = (
{
layerId = "88C65AEA-4CF7-410E-9BC9-3A05E177EFEE";
paths = (
{
closed = 1;
nodes = (
"301 612 OFFCURVE",
"340 611 OFFCURVE",
"354 596 CURVE",
"368 582 OFFCURVE",
"373 19 OFFCURVE",
"363 9 CURVE",
"353 0 OFFCURVE",
"299 -6 OFFCURVE",
"282 8 CURVE",
"265 22 OFFCURVE",
"290 196 OFFCURVE",
"276 213 CURVE",
"262 230 OFFCURVE",
"229 225 OFFCURVE",
"192 225 CURVE",
"168 225 OFFCURVE",
"153 224 OFFCURVE",
"106 264 CURVE",
"66 304 OFFCURVE",
"42 334 OFFCURVE",
"40 412 CURVE",
"38 490 OFFCURVE",
"74 550 OFFCURVE",
"111 581 CURVE",
"148 612 OFFCURVE",
"153 611 OFFCURVE",
"235 611 CURVE"
);
},
{
closed = 1;
nodes = (
"469 616 OFFCURVE",
"454 618 OFFCURVE",
"429 607 CURVE",
"418 596 OFFCURVE",
"405 29 OFFCURVE",
"421 8 CURVE",
"435 -2 OFFCURVE",
"461 -5 OFFCURVE",
"486 8 CURVE",
"502 21 OFFCURVE",
"507 596 OFFCURVE",
"494 607 CURVE"
);
}
);
width = 541;
}
);
unicode = 00B6;
},
{
glyphname = section;
lastChange = "2018-03-14 15:48:20 +0000";
layers = (
{
layerId = "88C65AEA-4CF7-410E-9BC9-3A05E177EFEE";
paths = (
{
closed = 1;
nodes = (
"78 675 OFFCURVE",
"159 721 OFFCURVE",
"249 721 CURVE",
"297 721 OFFCURVE",
"341 710 OFFCURVE",
"380 686 CURVE",
"406 665 OFFCURVE",
"428 640 OFFCURVE",
"428 612 CURVE",
"428 579 OFFCURVE",
"376 571 OFFCURVE",
"356 591 CURVE",
"316 619 OFFCURVE",
"314 654 OFFCURVE",
"254 654 CURVE",
"220 654 OFFCURVE",
"156 621 OFFCURVE",
"156 594 CURVE",
"156 527 OFFCURVE",
"340 484 OFFCURVE",
"408 427 CURVE",
"440 401 OFFCURVE",
"468 383 OFFCURVE",
"468 343 CURVE",
"468 293 OFFCURVE",
"422 246 OFFCURVE",
"374 220 CURVE",
"410 192 OFFCURVE",
"442 171 OFFCURVE",
"442 132 CURVE",
"442 51 OFFCURVE",
"427 0 OFFCURVE",
"265 0 CURVE",
"214 0 OFFCURVE",
"158 -1 OFFCURVE",
"115 32 CURVE",
"88 52 OFFCURVE",
"61 74 OFFCURVE",
"61 111 CURVE",
"61 145 OFFCURVE",
"94 158 OFFCURVE",
"121 145 CURVE",
"152 125 OFFCURVE",
"180 69 OFFCURVE",
"262 69 CURVE",
"318 69 OFFCURVE",
"391 94 OFFCURVE",
"361 132 CURVE",
"320 177 OFFCURVE",
"77 281 OFFCURVE",
"49 355 CURVE",
"24 416 OFFCURVE",
"55 472 OFFCURVE",
"126 508 CURVE",
"94 533 OFFCURVE",
"78 563 OFFCURVE",
"78 598 CURVE"
);
},
{
closed = 1;
nodes = (
"141 442 OFFCURVE",
"98 412 OFFCURVE",
"126 380 CURVE",
"146 357 OFFCURVE",
"237 297 OFFCURVE",
"317 257 CURVE",
"364 283 OFFCURVE",
"419 335 OFFCURVE",
"365 372 CURVE",
"352 382 OFFCURVE",
"185 465 OFFCURVE",
"180 466 CURVE"
);
}
);
width = 508;
}
);
unicode = 00A7;
},
{
glyphname = copyright;
lastChange = "2018-03-13 08:50:49 +0000";
layers = (
{
layerId = "88C65AEA-4CF7-410E-9BC9-3A05E177EFEE";
paths = (
{
closed = 1;
nodes = (
"459 505 OFFCURVE",
"496 502 OFFCURVE",
"538 457 CURVE",
"554 435 OFFCURVE",
"568 410 OFFCURVE",
"556 397 CURVE",
"532 371 OFFCURVE",
"509 370 OFFCURVE",
"482 406 CURVE",
"465 427 OFFCURVE",
"436 429 OFFCURVE",
"387 429 CURVE",
"313 429 OFFCURVE",
"285 426 OFFCURVE",
"289 330 CURVE",
"293 268 OFFCURVE",
"293 254 OFFCURVE",
"394 254 CURVE",
"441 254 OFFCURVE",
"466 253 OFFCURVE",
"489 274 CURVE",
"510 293 OFFCURVE",
"534 289 OFFCURVE",
"541 280 CURVE SMOOTH",
"554 263 OFFCURVE",
"564 246 OFFCURVE",
"539 219 CURVE",
"506 190 OFFCURVE",
"480 184 OFFCURVE",
"394 182 CURVE",
"318 181 OFFCURVE",
"305 176 OFFCURVE",
"257 208 CURVE",
"211 245 OFFCURVE",
"220 309 OFFCURVE",
"217 330 CURVE",
"212 391 OFFCURVE",
"217 422 OFFCURVE",
"260 467 CURVE",
"303 508 OFFCURVE",
"327 505 OFFCURVE",
"387 505 CURVE"
);
},
{
closed = 1;
nodes = (
"586 0 OFFCURVE",
"749 129 OFFCURVE",
"749 331 CURVE SMOOTH",
"749 532 OFFCURVE",
"586 695 OFFCURVE",
"384 695 CURVE SMOOTH",
"183 695 OFFCURVE",
"20 532 OFFCURVE",
"20 331 CURVE SMOOTH",
"20 129 OFFCURVE",
"183 0 OFFCURVE",
"384 0 CURVE SMOOTH"
);
},
{
closed = 1;
nodes = (
"233 69 OFFCURVE",
"99 179 OFFCURVE",
"99 333 CURVE SMOOTH",
"99 487 OFFCURVE",
"233 623 OFFCURVE",
"387 623 CURVE SMOOTH",
"541 623 OFFCURVE",
"675 487 OFFCURVE",
"675 333 CURVE SMOOTH",
"675 179 OFFCURVE",
"541 69 OFFCURVE",
"387 69 CURVE SMOOTH"
);
}
);
width = 769;
}
);
unicode = 00A9;
},
{
glyphname = registered;
lastChange = "2018-03-17 11:08:27 +0000";
layers = (
{
layerId = "88C65AEA-4CF7-410E-9BC9-3A05E177EFEE";
paths = (
{
closed = 1;
nodes = (
"291 616 OFFCURVE",
"320 612 OFFCURVE",
"333 600 CURVE",
"346 589 OFFCURVE",
"365 570 OFFCURVE",
"365 542 CURVE",
"364 515 OFFCURVE",
"363 513 OFFCURVE",
"328 478 CURVE",
"323 473 OFFCURVE",
"370 410 OFFCURVE",
"363 405 CURVE",
"355 400 OFFCURVE",
"311 397 OFFCURVE",
"304 401 CURVE",
"296 404 OFFCURVE",
"279 469 OFFCURVE",
"273 472 CURVE",
"268 474 OFFCURVE",
"247 478 OFFCURVE",
"241 472 CURVE",
"236 465 OFFCURVE",
"246 405 OFFCURVE",
"228 402 CURVE",
"222 397 OFFCURVE",
"184 398 OFFCURVE",
"181 401 CURVE",
"177 404 OFFCURVE",
"179 605 OFFCURVE",
"184 611 CURVE",
"189 616 OFFCURVE",
"261 616 OFFCURVE",
"261 616 CURVE"
);
},
{
closed = 1;
nodes = (
"241 578 OFFCURVE",
"234 577 CURVE",
"218 577 OFFCURVE",
"222 533 OFFCURVE",
"229 526 CURVE",
"233 521 OFFCURVE",
"256 519 OFFCURVE",
"277 519 CURVE",
"298 519 OFFCURVE",
"312 520 OFFCURVE",
"311 542 CURVE",
"310 572 OFFCURVE",
"305 577 OFFCURVE",
"288 578 CURVE",
"264 578 OFFCURVE"
);
},
{
closed = 1;
nodes = (
"416 274 OFFCURVE",
"487 387 OFFCURVE",
"487 505 CURVE SMOOTH",
"487 641 OFFCURVE",
"388 713 OFFCURVE",
"270 713 CURVE SMOOTH",
"152 713 OFFCURVE",
"40 645 OFFCURVE",
"40 505 CURVE SMOOTH",
"40 387 OFFCURVE",
"126 274 OFFCURVE",
"270 274 CURVE SMOOTH"
);
},
{
closed = 1;
nodes = (
"165 337 OFFCURVE",
"113 402 OFFCURVE",
"113 506 CURVE SMOOTH",
"113 610 OFFCURVE",
"165 657 OFFCURVE",
"269 657 CURVE SMOOTH",
"373 657 OFFCURVE",
"422 610 OFFCURVE",
"422 506 CURVE SMOOTH",
"422 402 OFFCURVE",
"373 337 OFFCURVE",
"269 337 CURVE SMOOTH"
);
}
);
width = 527;
}
);
unicode = 00AE;
},
{
glyphname = trademark;
lastChange = "2018-03-17 10:53:08 +0000";
layers = (
{
layerId = "88C65AEA-4CF7-410E-9BC9-3A05E177EFEE";
paths = (
{
closed = 1;
nodes = (
"329 692 OFFCURVE",
"331 669 OFFCURVE",
"317 658 CURVE",
"303 646 OFFCURVE",
"244 663 OFFCURVE",
"230 649 CURVE",
"217 634 OFFCURVE",
"236 483 OFFCURVE",
"221 471 CURVE",
"207 459 OFFCURVE",
"173 458 OFFCURVE",
"158 470 CURVE",
"143 482 OFFCURVE",
"161 638 OFFCURVE",
"148 650 CURVE",
"135 661 OFFCURVE",
"61 644 OFFCURVE",
"48 659 CURVE",
"36 673 OFFCURVE",
"40 698 OFFCURVE",
"48 710 CURVE",
"57 722 OFFCURVE",
"305 726 OFFCURVE",
"317 709 CURVE"
);
},
{
closed = 1;
nodes = (
"353 703 OFFCURVE",
"348 479 OFFCURVE",
"359 469 CURVE",
"370 459 OFFCURVE",
"410 454 OFFCURVE",
"426 464 CURVE",
"442 474 OFFCURVE",
"420 619 OFFCURVE",
"433 630 CURVE",
"446 641 OFFCURVE",
"504 571 OFFCURVE",
"523 561 CURVE",
"542 550 OFFCURVE",
"566 548 OFFCURVE",
"586 561 CURVE",
"606 573 OFFCURVE",
"650 643 OFFCURVE",
"665 630 CURVE",
"680 617 OFFCURVE",
"656 480 OFFCURVE",
"667 468 CURVE",
"678 456 OFFCURVE",
"731 457 OFFCURVE",
"737 466 CURVE",
"743 475 OFFCURVE",
"746 710 OFFCURVE",
"727 720 CURVE",
"708 730 OFFCURVE",
"646 729 OFFCURVE",
"632 719 CURVE",
"618 709 OFFCURVE",
"583 632 OFFCURVE",
"555 633 CURVE",
"527 633 OFFCURVE",
"492 705 OFFCURVE",
"477 714 CURVE",
"462 723 OFFCURVE",
"383 725 OFFCURVE",
"368 714 CURVE"
);
}
);
width = 782;
}
);
unicode = 2122;
},
{
glyphname = degree;
lastChange = "2018-03-16 21:50:24 +0000";
layers = (
{
layerId = "88C65AEA-4CF7-410E-9BC9-3A05E177EFEE";
paths = (
{
closed = 1;
nodes = (
"273 444 OFFCURVE",
"332 484 OFFCURVE",
"332 570 CURVE",
"332 656 OFFCURVE",
"273 720 OFFCURVE",
"187 720 CURVE",
"101 720 OFFCURVE",
"40 656 OFFCURVE",
"40 570 CURVE",
"40 484 OFFCURVE",
"101 444 OFFCURVE",
"187 444 CURVE"
);
},
{
closed = 1;
nodes = (
"138 509 OFFCURVE",
"107 522 OFFCURVE",
"107 570 CURVE SMOOTH",
"107 617 OFFCURVE",
"138 650 OFFCURVE",
"185 650 CURVE",
"232 650 OFFCURVE",
"262 617 OFFCURVE",
"262 570 CURVE SMOOTH",
"262 522 OFFCURVE",
"232 509 OFFCURVE",
"185 509 CURVE"
);
}
);
width = 372;
}
);
unicode = 00B0;
},
{
glyphname = bar;
lastChange = "2018-03-17 10:44:15 +0000";
layers = (
{
layerId = "88C65AEA-4CF7-410E-9BC9-3A05E177EFEE";
paths = (
{
closed = 1;
nodes = (
"94 720 OFFCURVE",
"95 722 OFFCURVE",
"70 711 CURVE",
"59 700 OFFCURVE",
"54 31 OFFCURVE",
"70 10 CURVE",
"84 0 OFFCURVE",
"93 -3 OFFCURVE",
"118 10 CURVE",
"134 23 OFFCURVE",
"132 700 OFFCURVE",
"119 711 CURVE"
);
}
);
width = 189;
}
);
unicode = 007C;
},
{
glyphname = brokenbar;
lastChange = "2018-03-17 10:45:00 +0000";
layers = (
{
layerId = "88C65AEA-4CF7-410E-9BC9-3A05E177EFEE";
paths = (
{
closed = 1;
nodes = (
"98 720 OFFCURVE",
"96 722 OFFCURVE",
"71 711 CURVE",
"60 700 OFFCURVE",
"54 421 OFFCURVE",
"70 400 CURVE",
"84 390 OFFCURVE",
"97 387 OFFCURVE",
"122 400 CURVE",
"138 413 OFFCURVE",
"136 700 OFFCURVE",
"123 711 CURVE"
);
},
{
closed = 1;
nodes = (
"97 335 OFFCURVE",
"95 337 OFFCURVE",
"70 326 CURVE",
"59 315 OFFCURVE",
"54 31 OFFCURVE",
"70 10 CURVE",
"84 0 OFFCURVE",
"97 -3 OFFCURVE",
"122 10 CURVE",
"138 23 OFFCURVE",
"135 315 OFFCURVE",
"122 326 CURVE"
);
}
);
width = 193;
}
);
unicode = 00A6;
},
{
glyphname = dagger;
lastChange = "2018-03-14 15:23:03 +0000";
layers = (
{
layerId = "88C65AEA-4CF7-410E-9BC9-3A05E177EFEE";
paths = (
{
closed = 1;
nodes = (
"317 722 OFFCURVE",
"302 724 OFFCURVE",
"277 713 CURVE",
"266 702 OFFCURVE",
"260 301 OFFCURVE",
"276 280 CURVE",
"290 270 OFFCURVE",
"316 267 OFFCURVE",
"341 280 CURVE",
"357 293 OFFCURVE",
"355 702 OFFCURVE",
"342 713 CURVE"
);
},
{
closed = 1;
nodes = (
"488 563 OFFCURVE",
"490 578 OFFCURVE",
"479 603 CURVE",
"468 614 OFFCURVE",
"170 619 OFFCURVE",
"149 603 CURVE",
"139 589 OFFCURVE",
"136 563 OFFCURVE",
"149 538 CURVE",
"162 522 OFFCURVE",
"468 525 OFFCURVE",
"479 538 CURVE"
);
}
);
width = 600;
}
);
unicode = 2020;
},
{
glyphname = daggerdbl;
lastChange = "2018-03-14 15:23:40 +0000";
layers = (
{
layerId = "88C65AEA-4CF7-410E-9BC9-3A05E177EFEE";
paths = (
{
closed = 1;
nodes = (
"223 722 OFFCURVE",
"208 724 OFFCURVE",
"183 713 CURVE",
"172 702 OFFCURVE",
"166 282 OFFCURVE",
"182 261 CURVE",
"196 251 OFFCURVE",
"222 248 OFFCURVE",
"247 261 CURVE",
"263 274 OFFCURVE",
"261 702 OFFCURVE",
"248 713 CURVE"
);
},
{
closed = 1;
nodes = (
"394 563 OFFCURVE",
"396 578 OFFCURVE",
"385 603 CURVE",
"374 614 OFFCURVE",
"76 619 OFFCURVE",
"55 603 CURVE",
"45 589 OFFCURVE",
"42 563 OFFCURVE",
"55 538 CURVE",
"68 522 OFFCURVE",
"374 525 OFFCURVE",
"385 538 CURVE"
);
},
{
closed = 1;
nodes = (
"388 395 OFFCURVE",
"390 410 OFFCURVE",
"379 435 CURVE",
"368 446 OFFCURVE",
"70 451 OFFCURVE",
"49 435 CURVE",
"39 421 OFFCURVE",
"36 395 OFFCURVE",
"49 370 CURVE",
"62 354 OFFCURVE",
"368 357 OFFCURVE",
"379 370 CURVE"
);
}
);
width = 433;
}
);
unicode = 2021;
},
{
glyphname = asciicircum;
lastChange = "2018-03-14 15:21:45 +0000";
layers = (
{
layerId = "88C65AEA-4CF7-410E-9BC9-3A05E177EFEE";
paths = (
{
closed = 1;
nodes = (
"422 355 OFFCURVE",
"407 364 CURVE",
"378 373 OFFCURVE",
"266 524 OFFCURVE",
"246 524 CURVE",
"226 524 OFFCURVE",
"145 379 OFFCURVE",
"112 367 CURVE",
"93 355 OFFCURVE",
"30 358 OFFCURVE",
"42 380 CURVE",
"54 399 OFFCURVE",
"205 613 OFFCURVE",
"246 613 CURVE",
"284 610 OFFCURVE",
"461 392 OFFCURVE",
"476 379 CURVE",
"491 355 OFFCURVE"
);
}
);
width = 518;
}
);
unicode = 005E;
},
{
glyphname = dieresiscomb;
lastChange = "2018-03-12 23:17:20 +0000";
layers = (
{
layerId = "88C65AEA-4CF7-410E-9BC9-3A05E177EFEE";
paths = (
{
closed = 1;
nodes = (
"36 704 OFFCURVE",
"40 644 OFFCURVE",
"47 637 CURVE SMOOTH",
"54 630 OFFCURVE",
"115 631 OFFCURVE",
"122 637 CURVE SMOOTH",
"130 644 OFFCURVE",
"131 704 OFFCURVE",
"122 713 CURVE SMOOTH",
"115 720 OFFCURVE",
"57 721 OFFCURVE",
"47 713 CURVE SMOOTH"
);
},
{
closed = 1;
nodes = (
"181 703 OFFCURVE",
"185 643 OFFCURVE",
"192 636 CURVE SMOOTH",
"199 629 OFFCURVE",
"260 630 OFFCURVE",
"267 636 CURVE SMOOTH",
"275 643 OFFCURVE",
"276 703 OFFCURVE",
"267 712 CURVE SMOOTH",
"260 719 OFFCURVE",
"202 720 OFFCURVE",
"192 712 CURVE SMOOTH"
);
}
);
width = 313;
}
);
unicode = 0308;
},
{
glyphname = dotaccentcomb;
lastChange = "2018-03-14 12:15:08 +0000";
layers = (
{
layerId = "88C65AEA-4CF7-410E-9BC9-3A05E177EFEE";
paths = (
{
closed = 1;
nodes = (
"40 721 OFFCURVE",
"99 717 OFFCURVE",
"107 707 CURVE",
"115 697 OFFCURVE",
"125 650 OFFCURVE",
"110 641 CURVE",
"94 632 OFFCURVE",
"47 631 OFFCURVE",
"30 639 CURVE",
"14 647 OFFCURVE",
"21 695 OFFCURVE",
"30 708 CURVE"
);
}
);
width = 138;
}
);
unicode = 0307;
},
{
glyphname = gravecomb;
lastChange = "2018-03-14 09:46:16 +0000";
layers = (
{
layerId = "88C65AEA-4CF7-410E-9BC9-3A05E177EFEE";
paths = (
{
closed = 1;
nodes = (
"126 701 OFFCURVE",
"289 571 OFFCURVE",
"273 563 CURVE",
"256 555 OFFCURVE",
"209 556 OFFCURVE",
"193 565 CURVE",
"178 574 OFFCURVE",
"32 703 OFFCURVE",
"40 713 CURVE",
"48 723 OFFCURVE",
"107 727 OFFCURVE",
"117 714 CURVE"
);
}
);
width = 314;
}
);
unicode = 0300;
},
{
glyphname = acutecomb;
lastChange = "2018-03-13 14:17:03 +0000";
layers = (
{
layerId = "88C65AEA-4CF7-410E-9BC9-3A05E177EFEE";
paths = (
{
closed = 1;
nodes = (
"207 727 OFFCURVE",
"266 723 OFFCURVE",
"274 713 CURVE",
"282 703 OFFCURVE",
"136 574 OFFCURVE",
"121 565 CURVE",
"105 556 OFFCURVE",
"58 555 OFFCURVE",
"41 563 CURVE",
"25 571 OFFCURVE",
"188 701 OFFCURVE",
"197 714 CURVE"
);
}
);
width = 314;
}
);
unicode = 0301;
},
{
glyphname = hungarumlautcomb;
lastChange = "2018-03-14 12:49:49 +0000";
layers = (
{
layerId = "88C65AEA-4CF7-410E-9BC9-3A05E177EFEE";
paths = (
{
closed = 1;
nodes = (
"135 727 OFFCURVE",
"194 723 OFFCURVE",
"202 713 CURVE",
"210 703 OFFCURVE",
"117 622 OFFCURVE",
"102 613 CURVE",
"86 604 OFFCURVE",
"39 603 OFFCURVE",
"22 611 CURVE",
"6 619 OFFCURVE",
"116 701 OFFCURVE",
"125 714 CURVE"
);
},
{
closed = 1;
nodes = (
"316 727 OFFCURVE",
"375 723 OFFCURVE",
"383 713 CURVE",
"391 703 OFFCURVE",
"298 622 OFFCURVE",
"283 613 CURVE",
"267 604 OFFCURVE",
"220 603 OFFCURVE",
"203 611 CURVE",
"187 619 OFFCURVE",
"297 701 OFFCURVE",
"306 714 CURVE"
);
}
);
width = 403;
}
);
unicode = 030B;
},
{
glyphname = circumflexcomb;
lastChange = "2018-03-14 09:37:50 +0000";
layers = (
{
layerId = "88C65AEA-4CF7-410E-9BC9-3A05E177EFEE";
paths = (
{
closed = 1;
nodes = (
"370 592 OFFCURVE",
"355 601 CURVE",
"326 610 OFFCURVE",
"314 649 OFFCURVE",
"294 649 CURVE",
"274 649 OFFCURVE",
"269 615 OFFCURVE",
"236 603 CURVE",
"217 591 OFFCURVE",
"154 594 OFFCURVE",
"166 616 CURVE",
"178 635 OFFCURVE",
"252 727 OFFCURVE",
"293 727 CURVE",
"331 724 OFFCURVE",
"409 629 OFFCURVE",
"424 616 CURVE",
"439 592 OFFCURVE"
);
}
);
width = 600;
}
);
unicode = 0302;
},
{
glyphname = caroncomb;
lastChange = "2018-03-14 12:52:33 +0000";
layers = (
{
layerId = "88C65AEA-4CF7-410E-9BC9-3A05E177EFEE";
paths = (
{
closed = 1;
nodes = (
"280 706 CURVE",
"265 693 OFFCURVE",
"187 598 OFFCURVE",
"149 595 CURVE",
"108 595 OFFCURVE",
"34 687 OFFCURVE",
"22 706 CURVE",
"10 728 OFFCURVE",
"73 731 OFFCURVE",
"92 719 CURVE",
"125 707 OFFCURVE",
"130 673 OFFCURVE",
"150 673 CURVE",
"170 673 OFFCURVE",
"182 712 OFFCURVE",
"211 721 CURVE",
"226 730 OFFCURVE",
"295 730 OFFCURVE"
);
}
);
width = 302;
}
);
unicode = 030C;
},
{
glyphname = brevecomb;
lastChange = "2018-03-14 15:00:54 +0000";
layers = (
{
layerId = "88C65AEA-4CF7-410E-9BC9-3A05E177EFEE";
paths = (
{
closed = 1;
nodes = (
"0 725 OFFCURVE",
"41 725 OFFCURVE",
"63 712 CURVE",
"63 650 OFFCURVE",
"126 624 OFFCURVE",
"174 624 CURVE SMOOTH",
"224 624 OFFCURVE",
"259 643 OFFCURVE",
"274 709 CURVE",
"280 725 OFFCURVE",
"334 725 OFFCURVE",
"334 705 CURVE SMOOTH",
"334 602 OFFCURVE",
"264 557 OFFCURVE",
"168 557 CURVE SMOOTH",
"71 557 OFFCURVE",
"0 624 OFFCURVE",
"0 706 CURVE SMOOTH"
);
}
);
width = 334;
}
);
unicode = 0306;
},
{
glyphname = ringcomb;
lastChange = "2018-03-13 14:12:40 +0000";
layers = (
{
layerId = "88C65AEA-4CF7-410E-9BC9-3A05E177EFEE";
paths = (
{
closed = 1;
nodes = (
"160 566 OFFCURVE",
"194 601 OFFCURVE",
"194 644 CURVE SMOOTH",
"194 686 OFFCURVE",
"160 721 OFFCURVE",
"117 721 CURVE SMOOTH",
"74 721 OFFCURVE",
"40 686 OFFCURVE",
"40 644 CURVE SMOOTH",
"40 601 OFFCURVE",
"74 566 OFFCURVE",
"117 566 CURVE SMOOTH"
);
},
{
closed = 1;
nodes = (
"95 607 OFFCURVE",
"78 624 OFFCURVE",
"78 646 CURVE SMOOTH",
"78 667 OFFCURVE",
"95 684 OFFCURVE",
"116 684 CURVE SMOOTH",
"138 684 OFFCURVE",
"154 667 OFFCURVE",
"154 646 CURVE SMOOTH",
"154 624 OFFCURVE",
"138 607 OFFCURVE",
"116 607 CURVE SMOOTH"
);
}
);
width = 234;
}
);
unicode = 030A;
},
{
glyphname = tildecomb;
lastChange = "2018-03-14 09:31:59 +0000";
layers = (
{
layerId = "88C65AEA-4CF7-410E-9BC9-3A05E177EFEE";
paths = (
{
closed = 1;
nodes = (
"136 580 OFFCURVE",
"160 578 OFFCURVE",
"179 593 CURVE",
"183 632 OFFCURVE",
"190 655 OFFCURVE",
"236 655 CURVE SMOOTH",
"289 655 OFFCURVE",
"273 588 OFFCURVE",
"355 588 CURVE SMOOTH",
"429 588 OFFCURVE",
"482 608 OFFCURVE",
"485 711 CURVE",
"479 721 OFFCURVE",
"434 723 OFFCURVE",
"423 711 CURVE",
"405 675 OFFCURVE",
"419 653 OFFCURVE",
"358 653 CURVE SMOOTH",
"303 653 OFFCURVE",
"323 718 OFFCURVE",
"237 720 CURVE SMOOTH",
"163 722 OFFCURVE",
"103 649 OFFCURVE",
"117 596 CURVE"
);
}
);
width = 600;
}
);
unicode = 0303;
},
{
glyphname = macroncomb;
lastChange = "2018-03-14 12:59:01 +0000";
layers = (
{
layerId = "88C65AEA-4CF7-410E-9BC9-3A05E177EFEE";
paths = (
{
closed = 1;
nodes = (
"40 720 OFFCURVE",
"325 716 OFFCURVE",
"333 707 CURVE",
"341 697 OFFCURVE",
"351 653 OFFCURVE",
"336 645 CURVE",
"320 636 OFFCURVE",
"47 635 OFFCURVE",
"30 643 CURVE",
"14 650 OFFCURVE",
"21 695 OFFCURVE",
"30 708 CURVE"
);
}
);
width = 364;
}
);
unicode = 0304;
},
{
glyphname = commaturnedabovecomb;
lastChange = "2018-03-14 15:13:04 +0000";
layers = (
{
layerId = "88C65AEA-4CF7-410E-9BC9-3A05E177EFEE";
paths = (
{
closed = 1;
nodes = (
"132 627 LINE",
"219 627 LINE",
"219 847 LINE",
"132 847 LINE"
);
}
);
width = 600;
}
);
unicode = 0312;
},
{
glyphname = commaaccentcomb;
lastChange = "2018-03-14 15:03:53 +0000";
layers = (
{
layerId = "88C65AEA-4CF7-410E-9BC9-3A05E177EFEE";
paths = (
{
closed = 1;
nodes = (
"74 -70 OFFCURVE",
"-6 -217 OFFCURVE",
"0 -238 CURVE",
"22 -250 OFFCURVE",
"45 -244 OFFCURVE",
"67 -238 CURVE",
"87 -216 OFFCURVE",
"161 -82 OFFCURVE",
"154 -61 CURVE",
"132 -53 OFFCURVE",
"109 -53 OFFCURVE",
"87 -61 CURVE"
);
}
);
width = 154;
}
);
unicode = 0326;
},
{
glyphname = cedillacomb;
lastChange = "2018-03-14 10:19:08 +0000";
layers = (
{
layerId = "88C65AEA-4CF7-410E-9BC9-3A05E177EFEE";
paths = (
{
closed = 1;
nodes = (
"39 -98 OFFCURVE",
"39 -116 OFFCURVE",
"44 -121 CURVE",
"51 -126 OFFCURVE",
"82 -113 OFFCURVE",
"106 -112 CURVE SMOOTH",
"147 -111 OFFCURVE",
"167 -130 OFFCURVE",
"167 -150 CURVE SMOOTH",
"167 -170 OFFCURVE",
"140 -187 OFFCURVE",
"103 -187 CURVE",
"78 -187 OFFCURVE",
"51 -169 OFFCURVE",
"45 -174 CURVE",
"41 -181 OFFCURVE",
"39 -209 OFFCURVE",
"45 -215 CURVE",
"59 -221 LINE SMOOTH",
"74 -227 OFFCURVE",
"92 -230 OFFCURVE",
"110 -230 CURVE SMOOTH",
"172 -230 OFFCURVE",
"222 -194 OFFCURVE",
"222 -150 CURVE SMOOTH",
"222 -105 OFFCURVE",
"181 -77 OFFCURVE",
"129 -75 CURVE SMOOTH",
"105 -74 LINE SMOOTH",
"91 -73 OFFCURVE",
"117 -45 OFFCURVE",
"125 -23 CURVE",
"127 -15 OFFCURVE",
"69 -15 OFFCURVE",
"66 -23 CURVE",
"58 -47 OFFCURVE",
"49 -62 OFFCURVE",
"41 -86 CURVE"
);
}
);
width = 262;
}
);
unicode = 0327;
},
{
glyphname = ogonekcomb;
lastChange = "2018-03-14 15:18:02 +0000";
layers = (
{
layerId = "88C65AEA-4CF7-410E-9BC9-3A05E177EFEE";
paths = (
{
closed = 1;
nodes = (
"135 -13 OFFCURVE",
"63 -75 OFFCURVE",
"62 -99 CURVE SMOOTH",
"61 -120 OFFCURVE",
"69 -140 OFFCURVE",
"78 -147 CURVE SMOOTH",
"87 -154 OFFCURVE",
"159 -151 OFFCURVE",
"166 -158 CURVE SMOOTH",
"168 -160 OFFCURVE",
"167 -218 OFFCURVE",
"165 -222 CURVE SMOOTH",
"162 -229 OFFCURVE",
"64 -227 OFFCURVE",
"48 -218 CURVE SMOOTH",
"31 -210 OFFCURVE",
"20 -204 OFFCURVE",
"11 -188 CURVE SMOOTH",
"3 -172 OFFCURVE",
"-4 -108 OFFCURVE",
"4 -88 CURVE SMOOTH",
"8 -78 OFFCURVE",
"23 -51 OFFCURVE",
"29 -43 CURVE SMOOTH",
"47 -18 OFFCURVE",
"49 1 OFFCURVE",
"83 1 CURVE SMOOTH",
"91 1 OFFCURVE",
"111 1 OFFCURVE",
"123 -3 CURVE"
);
}
);
width = 167;
}
);
unicode = 0328;
},
{
glyphname = strokeshortcomb;
lastChange = "2018-03-14 10:46:06 +0000";
layers = (
{
layerId = "88C65AEA-4CF7-410E-9BC9-3A05E177EFEE";
paths = (
{
closed = 1;
nodes = (
"50 275 OFFCURVE",
"335 271 OFFCURVE",
"343 261 CURVE",
"351 251 OFFCURVE",
"361 204 OFFCURVE",
"346 195 CURVE",
"330 186 OFFCURVE",
"57 185 OFFCURVE",
"40 193 CURVE",
"24 201 OFFCURVE",
"31 249 OFFCURVE",
"40 262 CURVE"
);
}
);
width = 384;
}
);
unicode = 0335;
},
{
glyphname = slashshortcomb;
lastChange = "2018-03-16 09:30:32 +0000";
layers = (
{
layerId = "88C65AEA-4CF7-410E-9BC9-3A05E177EFEE";
paths = (
{
closed = 1;
nodes = (
"258 446 OFFCURVE",
"306 447 OFFCURVE",
"321 433 CURVE",
"331 414 OFFCURVE",
"135 243 OFFCURVE",
"117 229 CURVE",
"98 216 OFFCURVE",
"48 214 OFFCURVE",
"35 229 CURVE",
"28 245 OFFCURVE",
"216 414 OFFCURVE",
"236 433 CURVE"
);
}
);
width = 356;
}
);
unicode = 0337;
},
{
glyphname = slashlongcomb;
lastChange = "2018-03-14 11:00:33 +0000";
layers = (
{
layerId = "88C65AEA-4CF7-410E-9BC9-3A05E177EFEE";
paths = (
{
closed = 1;
nodes = (
"434 691 OFFCURVE",
"-7 27 OFFCURVE",
"0 11 CURVE",
"13 -4 OFFCURVE",
"63 -2 OFFCURVE",
"82 11 CURVE",
"100 25 OFFCURVE",
"549 691 OFFCURVE",
"539 710 CURVE",
"524 724 OFFCURVE",
"476 723 OFFCURVE",
"454 710 CURVE"
);
}
